font.ufo
<glyph name="numbersign" format="1">
  <advance width="475"/>
  <unicode hex="0023"/>
  <outline>
    <contour>
      <point x="46" y="239" type="line"/>
      <point x="375" y="239" type="line"/>
      <point x="386" y="286" type="line"/>
      <point x="56" y="286" type="line"/>
    </contour>
    <contour>
      <point x="89" y="474" type="line"/>
      <point x="419" y="474" type="line"/>
      <point x="430" y="521" type="line"/>
      <point x="99" y="521" type="line"/>
    </contour>
    <contour>
      <point x="280" y="39" type="line"/>
      <point x="414" y="722" type="line"/>
      <point x="357" y="722" type="line"/>
      <point x="222" y="39" type="line"/>
    </contour>
    <contour>
      <point x="120" y="46" type="line"/>
      <point x="253" y="722" type="line"/>
      <point x="196" y="722" type="line"/>
      <point x="66" y="46" type="line"/>
    </contour>
  </outline>
</glyph>
<glyph name="dollar" format="1">
  <advance width="406"/>
  <unicode hex="0024"/>
  <outline>
    <contour>
      <point x="107" y="97" type="curve"/>
      <point x="107" y="217"/>
      <point x="107" y="96"/>
      <point x="107" y="216" type="curve"/>
      <point x="61" y="216"/>
      <point x="107" y="216"/>
      <point x="61" y="216" type="curve"/>
      <point x="61" y="96"/>
      <point x="61" y="217"/>
      <point x="61" y="97" type="curve"/>
      <point x="107" y="97"/>
      <point x="61" y="97"/>
    </contour>
    <contour>
      <point x="287" y="632" type="curve"/>
      <point x="287" y="512"/>
      <point x="287" y="634"/>
      <point x="287" y="514" type="curve"/>
      <point x="334" y="514"/>
      <point x="287" y="514"/>
      <point x="334" y="514" type="curve"/>
      <point x="334" y="634"/>
      <point x="334" y="512"/>
      <point x="334" y="632" type="curve"/>
      <point x="287" y="632"/>
      <point x="334" y="632"/>
    </contour>
    <contour>
      <point x="222" y="-43" type="curve"/>
      <point x="222" y="-10"/>
      <point x="222" y="37"/>
      <point x="222" y="70" type="curve"/>
      <point x="165" y="70"/>
      <point x="222" y="70"/>
      <point x="165" y="70" type="curve"/>
      <point x="165" y="37"/>
      <point x="165" y="-10"/>
      <point x="165" y="-43" type="curve"/>
      <point x="222" y="-43"/>
      <point x="165" y="-43"/>
    </contour>
    <contour>
      <point x="229" y="660" type="curve"/>
      <point x="229" y="693"/>
      <point x="229" y="740"/>
      <point x="229" y="773" type="curve"/>
      <point x="172" y="773"/>
      <point x="229" y="773"/>
      <point x="172" y="773" type="curve"/>
      <point x="172" y="740"/>
      <point x="172" y="693"/>
      <point x="172" y="660" type="curve"/>
      <point x="229" y="660"/>
      <point x="172" y="660"/>
    </contour>
    <contour>
      <point x="61" y="97" type="curve"/>
      <point x="94" y="70"/>
      <point x="138" y="46"/>
      <point x="191" y="46" type="curve"/>
      <point x="291" y="46"/>
      <point x="355" y="117"/>
      <point x="355" y="205" type="curve"/>
      <point x="355" y="285"/>
      <point x="296" y="346"/>
      <point x="219" y="396" type="curve"/>
      <point x="160" y="435"/>
      <point x="123" y="473"/>
      <point x="123" y="536" type="curve"/>
      <point x="123" y="589"/>
      <point x="149" y="639"/>
      <point x="203" y="639" type="curve"/>
      <point x="246" y="639"/>
      <point x="274" y="620"/>
      <point x="306" y="593" type="curve"/>
      <point x="334" y="632"/>
      <point x="306" y="593"/>
      <point x="334" y="632" type="curve"/>
      <point x="294" y="666"/>
      <point x="258" y="684"/>
      <point x="205" y="684" type="curve"/>
      <point x="117" y="684"/>
      <point x="66" y="618"/>
      <point x="66" y="536" type="curve"/>
      <point x="66" y="457"/>
      <point x="111" y="401"/>
      <point x="186" y="353" type="curve"/>
      <point x="248" y="314"/>
      <point x="298" y="269"/>
      <point x="298" y="202" type="curve"/>
      <point x="298" y="143"/>
      <point x="260" y="92"/>
      <point x="196" y="92" type="curve"/>
      <point x="153" y="92"/>
      <point x="119" y="117"/>
      <point x="91" y="138" type="curve"/>
      <point x="61" y="97"/>
      <point x="91" y="138"/>
    </contour>
  </outline>
</glyph>
<glyph name="percent" format="1">
  <advance width="692"/>
  <unicode hex="0025"/>
  <outline>
    <contour>
      <point x="242" y="-77" type="line"/>
      <point x="507" y="743" type="line"/>
      <point x="451" y="743" type="line"/>
      <point x="187" y="-77" type="line"/>
    </contour>
    <contour>
      <point x="87" y="540" type="curve"/>
      <point x="87" y="628"/>
      <point x="93" y="707"/>
      <point x="167" y="707" type="curve"/>
      <point x="242" y="708"/>
      <point x="248" y="629"/>
      <point x="248" y="540" type="curve"/>
      <point x="248" y="451"/>
      <point x="245" y="371"/>
      <point x="170" y="371" type="curve"/>
      <point x="94" y="371"/>
      <point x="87" y="450"/>
      <point x="87" y="540" type="curve"/>
      <point x="69" y="540"/>
      <point x="57" y="540"/>
      <point x="39" y="540" type="curve"/>
      <point x="39" y="424"/>
      <point x="66" y="328"/>
      <point x="168" y="328" type="curve"/>
      <point x="271" y="328"/>
      <point x="299" y="425"/>
      <point x="299" y="542" type="curve"/>
      <point x="299" y="657"/>
      <point x="270" y="750"/>
      <point x="169" y="750" type="curve"/>
      <point x="67" y="750"/>
      <point x="39" y="655"/>
      <point x="39" y="540" type="curve"/>
      <point x="57" y="540"/>
      <point x="69" y="540"/>
    </contour>
    <contour>
      <point x="441" y="131" type="curve"/>
      <point x="441" y="220"/>
      <point x="448" y="298"/>
      <point x="522" y="298" type="curve"/>
      <point x="596" y="299"/>
      <point x="602" y="221"/>
      <point x="602" y="131" type="curve"/>
      <point x="602" y="43"/>
      <point x="599" y="-38"/>
      <point x="525" y="-38" type="curve"/>
      <point x="449" y="-38"/>
      <point x="441" y="41"/>
      <point x="441" y="131" type="curve"/>
      <point x="423" y="131"/>
      <point x="411" y="131"/>
      <point x="393" y="131" type="curve"/>
      <point x="393" y="15"/>
      <point x="421" y="-81"/>
      <point x="523" y="-81" type="curve"/>
      <point x="626" y="-81"/>
      <point x="653" y="16"/>
      <point x="653" y="133" type="curve"/>
      <point x="653" y="248"/>
      <point x="625" y="341"/>
      <point x="524" y="341" type="curve"/>
      <point x="422" y="341"/>
      <point x="393" y="247"/>
      <point x="393" y="131" type="curve"/>
      <point x="411" y="131"/>
      <point x="423" y="131"/>
    </contour>
  </outline>
</glyph>
<glyph name="ampersand" format="1">
  <advance width="473"/>
  <unicode hex="0026"/>
  <outline>
    <contour>
      <point x="451" y="14" type="line"/>
      <point x="383" y="124"/>
      <point x="313" y="246"/>
      <point x="243" y="357" type="curve"/>
      <point x="203" y="426"/>
      <point x="154" y="488"/>
      <point x="154" y="569" type="curve"/>
      <point x="154" y="625"/>
      <point x="167" y="680"/>
      <point x="210" y="680" type="curve"/>
      <point x="256" y="680"/>
      <point x="268" y="628"/>
      <point x="268" y="571" type="curve"/>
      <point x="268" y="498"/>
      <point x="234" y="447"/>
      <point x="178" y="398" type="curve"/>
      <point x="108" y="335"/>
      <point x="58" y="275"/>
      <point x="58" y="184" type="curve"/>
      <point x="58" y="80"/>
      <point x="109" y="-5"/>
      <point x="204" y="-5" type="curve"/>
      <point x="358" y="-5"/>
      <point x="398" y="151"/>
      <point x="429" y="316" type="curve"/>
      <point x="380" y="328"/>
      <point x="429" y="316"/>
      <point x="380" y="328" type="curve"/>
      <point x="353" y="186"/>
      <point x="329" y="43"/>
      <point x="207" y="43" type="curve"/>
      <point x="143" y="43"/>
      <point x="116" y="108"/>
      <point x="116" y="184" type="curve"/>
      <point x="116" y="257"/>
      <point x="151" y="309"/>
      <point x="206" y="359" type="curve"/>
      <point x="275" y="420"/>
      <point x="326" y="481"/>
      <point x="326" y="572" type="curve"/>
      <point x="326" y="658"/>
      <point x="289" y="727"/>
      <point x="213" y="727" type="curve"/>
      <point x="134" y="727"/>
      <point x="100" y="656"/>
      <point x="100" y="569" type="curve"/>
      <point x="100" y="476"/>
      <point x="152" y="407"/>
      <point x="201" y="329" type="curve"/>
      <point x="268" y="219"/>
      <point x="340" y="95"/>
      <point x="406" y="-12" type="curve"/>
    </contour>
  </outline>
</glyph>
<glyph name="quotesingle" format="1">
  <advance width="218"/>
  <unicode hex="0027"/>
  <outline>
    <contour>
      <point x="134" y="548" type="line"/>
      <point x="139" y="743" type="line"/>
      <point x="79" y="743" type="line"/>
      <point x="84" y="548" type="line"/>
    </contour>
  </outline>
</glyph>
<glyph name="parenleft" format="1">
  <advance width="260"/>
  <unicode hex="0028"/>
  <outline>
    <contour>
      <point x="249" y="-228" type="curve"/>
      <point x="130" y="-44"/>
      <point x="108" y="112"/>
      <point x="108" y="326" type="curve"/>
      <point x="108" y="541"/>
      <point x="132" y="697"/>
      <point x="248" y="882" type="curve"/>
      <point x="212" y="911"/>
      <point x="248" y="882"/>
      <point x="212" y="911" type="curve"/>
      <point x="87" y="718"/>
      <point x="52" y="555"/>
      <point x="52" y="326" type="curve"/>
      <point x="52" y="97"/>
      <point x="88" y="-65"/>
      <point x="213" y="-260" type="curve"/>
      <point x="249" y="-228"/>
      <point x="213" y="-260"/>
    </contour>
  </outline>
</glyph>
<glyph name="parenright" format="1">
  <advance width="266"/>
  <unicode hex="0029"/>
  <outline>
    <contour>
      <point x="44" y="-275" type="curve"/>
      <point x="171" y="-73"/>
      <point x="216" y="91"/>
      <point x="216" y="328" type="curve"/>
      <point x="216" y="558"/>
      <point x="178" y="720"/>
      <point x="47" y="912" type="curve"/>
      <point x="12" y="880"/>
      <point x="47" y="912"/>
      <point x="12" y="880" type="curve"/>
      <point x="132" y="697"/>
      <point x="158" y="541"/>
      <point x="158" y="325" type="curve"/>
      <point x="158" y="105"/>
      <point x="124" y="-53"/>
      <point x="8" y="-244" type="curve"/>
      <point x="44" y="-275"/>
      <point x="8" y="-244"/>
    </contour>
  </outline>
</glyph>
<glyph name="asterisk" format="1">
  <advance width="506"/>
  <unicode hex="002A"/>
  <outline>
    <contour>
      <point x="275" y="515" type="line"/>
      <point x="279" y="711" type="line"/>
      <point x="230" y="711" type="line"/>
      <point x="234" y="515" type="line"/>
    </contour>
    <contour>
      <point x="247" y="505" type="line"/>
      <point x="435" y="563" type="line"/>
      <point x="418" y="609" type="line"/>
      <point x="234" y="542" type="line"/>
    </contour>
    <contour>
      <point x="228" y="526" type="line"/>
      <point x="344" y="368" type="line"/>
      <point x="382" y="398" type="line"/>
      <point x="261" y="551" type="line"/>
    </contour>
    <contour>
      <point x="244" y="553" type="line"/>
      <point x="123" y="400" type="line"/>
      <point x="160" y="369" type="line"/>
      <point x="276" y="528" type="line"/>
    </contour>
    <contour>
      <point x="272" y="545" type="line"/>
      <point x="88" y="611" type="line"/>
      <point x="72" y="565" type="line"/>
      <point x="259" y="507" type="line"/>
    </contour>
  </outline>
</glyph>
<glyph name="plus" format="1">
  <advance width="573"/>
  <unicode hex="002B"/>
  <outline>
    <contour>
      <point x="50" y="285" type="curve"/>
      <point x="522" y="285" type="line"/>
      <point x="522" y="337"/>
      <point x="522" y="285"/>
      <point x="522" y="337" type="curve"/>
      <point x="50" y="337" type="line"/>
      <point x="50" y="285"/>
      <point x="50" y="337"/>
    </contour>
    <contour>
      <point x="314" y="31" type="curve"/>
      <point x="314" y="585" type="line"/>
      <point x="257" y="585"/>
      <point x="317" y="585"/>
      <point x="260" y="585" type="curve"/>
      <point x="260" y="31" type="line"/>
      <point x="317" y="31"/>
      <point x="257" y="31"/>
    </contour>
  </outline>
</glyph>
<glyph name="hyphen" format="1">
  <advance width="337"/>
  <unicode hex="002D"/>
  <outline>
    <contour>
      <point x="79" y="250" type="curve"/>
      <point x="139" y="250"/>
      <point x="200" y="250"/>
      <point x="259" y="250" type="curve"/>
      <point x="259" y="301"/>
      <point x="259" y="250"/>
      <point x="259" y="301" type="curve"/>
      <point x="200" y="301"/>
      <point x="139" y="301"/>
      <point x="79" y="301" type="curve"/>
      <point x="79" y="250"/>
      <point x="79" y="301"/>
    </contour>
  </outline>
</glyph>
<glyph name="slash" format="1">
  <advance width="389"/>
  <unicode hex="002F"/>
  <outline>
    <contour>
      <point x="91" y="-52" type="curve"/>
      <point x="179" y="241"/>
      <point x="267" y="533"/>
      <point x="355" y="826" type="curve"/>
      <point x="298" y="826"/>
      <point x="355" y="826"/>
      <point x="298" y="826" type="curve"/>
      <point x="210" y="533"/>
      <point x="122" y="241"/>
      <point x="33" y="-52" type="curve"/>
      <point x="91" y="-52"/>
      <point x="33" y="-52"/>
    </contour>
  </outline>
</glyph>
<glyph name="zero" format="1">
  <advance width="512"/>
  <unicode hex="0030"/>
  <outline>
    <contour>
      <point x="118" y="360" type="curve"/>
      <point x="118" y="528"/>
      <point x="119" y="678"/>
      <point x="254" y="678" type="curve"/>
      <point x="391" y="678"/>
      <point x="395" y="530"/>
      <point x="395" y="363" type="curve"/>
      <point x="395" y="196"/>
      <point x="390" y="44"/>
      <point x="259" y="44" type="curve"/>
      <point x="129" y="44"/>
      <point x="118" y="193"/>
      <point x="118" y="360" type="curve"/>
      <point x="64" y="360"/>
      <point x="116" y="360"/>
      <point x="62" y="360" type="curve"/>
      <point x="62" y="162"/>
      <point x="88" y="-5"/>
      <point x="257" y="-5" type="curve"/>
      <point x="426" y="-5"/>
      <point x="450" y="163"/>
      <point x="450" y="363" type="curve"/>
      <point x="450" y="561"/>
      <point x="427" y="727"/>
      <point x="260" y="727" type="curve"/>
      <point x="89" y="727"/>
      <point x="62" y="560"/>
      <point x="62" y="360" type="curve"/>
      <point x="116" y="360"/>
      <point x="64" y="360"/>
    </contour>
  </outline>
</glyph>
<glyph name="one" format="1">
  <advance width="335"/>
  <unicode hex="0031"/>
  <outline>
    <contour>
      <point x="194" y="0" type="curve"/>
      <point x="231" y="0"/>
      <point x="268" y="0"/>
      <point x="307" y="0" type="curve"/>
      <point x="307" y="47"/>
      <point x="307" y="0"/>
      <point x="307" y="47" type="curve"/>
      <point x="194" y="47"/>
      <point x="307" y="47"/>
      <point x="194" y="47" type="curve"/>
      <point x="194" y="0"/>
      <point x="194" y="47"/>
    </contour>
    <contour>
      <point x="194" y="47" type="curve"/>
      <point x="75" y="47"/>
      <point x="194" y="47"/>
      <point x="75" y="47" type="curve"/>
      <point x="75" y="0"/>
      <point x="75" y="47"/>
      <point x="75" y="0" type="curve"/>
      <point x="115" y="0"/>
      <point x="154" y="0"/>
      <point x="194" y="0" type="curve"/>
      <point x="194" y="47"/>
      <point x="194" y="0"/>
    </contour>
    <contour>
      <point x="74" y="525" type="curve"/>
      <point x="210" y="696"/>
      <point x="74" y="525"/>
      <point x="210" y="696" type="curve"/>
      <point x="165" y="722"/>
      <point x="210" y="696"/>
      <point x="165" y="722" type="curve"/>
      <point x="37" y="559"/>
      <point x="165" y="722"/>
      <point x="37" y="559" type="curve"/>
      <point x="74" y="525"/>
      <point x="37" y="559"/>
    </contour>
    <contour>
      <point x="222" y="0" type="curve"/>
      <point x="222" y="241"/>
      <point x="222" y="481"/>
      <point x="222" y="722" type="curve"/>
      <point x="165" y="722"/>
      <point x="222" y="722"/>
      <point x="165" y="722" type="curve"/>
      <point x="165" y="481"/>
      <point x="165" y="241"/>
      <point x="165" y="0" type="curve"/>
      <point x="222" y="0"/>
      <point x="165" y="0"/>
    </contour>
  </outline>
</glyph>
<glyph name="four" format="1">
  <advance width="425"/>
  <unicode hex="0034"/>
  <outline>
    <contour>
      <point x="258" y="47" type="line"/>
      <point x="150" y="47" type="line"/>
      <point x="150" y="0" type="line"/>
      <point x="258" y="0" type="line"/>
    </contour>
    <contour>
      <point x="258" y="0" type="line"/>
      <point x="360" y="0" type="line"/>
      <point x="360" y="47" type="line"/>
      <point x="258" y="47" type="line"/>
    </contour>
    <contour>
      <point x="62" y="271" type="line"/>
      <point x="281" y="718" type="line"/>
      <point x="230" y="715" type="line"/>
      <point x="31" y="304" type="line"/>
    </contour>
    <contour>
      <point x="378" y="304" type="line"/>
      <point x="31" y="304" type="line"/>
      <point x="31" y="254" type="line"/>
      <point x="378" y="254" type="line"/>
    </contour>
    <contour>
      <point x="287" y="13" type="line"/>
      <point x="287" y="715" type="line"/>
      <point x="231" y="715" type="line"/>
      <point x="231" y="13" type="line"/>
    </contour>
  </outline>
</glyph>
<glyph name="six" format="1">
  <advance width="427"/>
  <unicode hex="0036"/>
  <outline>
    <contour>
      <point x="104" y="223" type="curve"/>
      <point x="110" y="290"/>
      <point x="145" y="372"/>
      <point x="218" y="372" type="curve"/>
      <point x="293" y="372"/>
      <point x="311" y="298"/>
      <point x="311" y="209" type="curve"/>
      <point x="311" y="131"/>
      <point x="293" y="47"/>
      <point x="221" y="47" type="curve"/>
      <point x="133" y="47"/>
      <point x="112" y="139"/>
      <point x="112" y="247" type="curve"/>
      <point x="112" y="448"/>
      <point x="186" y="612"/>
      <point x="364" y="690" type="curve"/>
      <point x="345" y="732"/>
      <point x="364" y="690"/>
      <point x="345" y="732" type="curve"/>
      <point x="149" y="650"/>
      <point x="56" y="475"/>
      <point x="56" y="245" type="curve"/>
      <point x="56" y="105"/>
      <point x="98" y="-7"/>
      <point x="220" y="-7" type="curve"/>
      <point x="327" y="-7"/>
      <point x="369" y="89"/>
      <point x="369" y="210" type="curve"/>
      <point x="369" y="328"/>
      <point x="329" y="421"/>
      <point x="227" y="421" type="curve"/>
      <point x="127" y="421"/>
      <point x="79" y="323"/>
      <point x="73" y="238" type="curve"/>
      <point x="102" y="223"/>
      <point x="75" y="238"/>
    </contour>
  </outline>
</glyph>
<glyph name="seven" format="1">
  <advance width="382"/>
  <unicode hex="0037"/>
  <outline>
    <contour>
      <point x="99" y="585" type="line"/>
      <point x="99" y="693" type="line"/>
      <point x="53" y="693" type="line"/>
      <point x="53" y="585" type="line"/>
    </contour>
    <contour>
      <point x="53" y="675" type="line"/>
      <point x="364" y="675" type="line"/>
      <point x="364" y="722" type="line"/>
      <point x="53" y="722" type="line"/>
    </contour>
    <contour>
      <point x="329" y="722" type="line"/>
      <point x="70" y="0" type="line"/>
      <point x="126" y="0" type="line"/>
      <point x="364" y="675" type="line"/>
    </contour>
  </outline>
</glyph>
<glyph name="eight" format="1">
  <advance width="419"/>
  <unicode hex="0038"/>
  <outline>
    <contour>
      <point x="73" y="557" type="curve"/>
      <point x="73" y="466"/>
      <point x="118" y="415"/>
      <point x="193" y="360" type="curve"/>
      <point x="261" y="308"/>
      <point x="300" y="256"/>
      <point x="300" y="176" type="curve"/>
      <point x="300" y="103"/>
      <point x="275" y="44"/>
      <point x="209" y="44" type="curve"/>
      <point x="143" y="44"/>
      <point x="119" y="102"/>
      <point x="119" y="176" type="curve"/>
      <point x="119" y="258"/>
      <point x="159" y="307"/>
      <point x="228" y="360" type="curve"/>
      <point x="298" y="415"/>
      <point x="345" y="466"/>
      <point x="345" y="555" type="curve"/>
      <point x="345" y="656"/>
      <point x="305" y="727"/>
      <point x="209" y="727" type="curve"/>
      <point x="116" y="727"/>
      <point x="73" y="655"/>
      <point x="73" y="557" type="curve"/>
      <point x="131" y="557"/>
      <point x="73" y="557"/>
      <point x="131" y="557" type="curve"/>
      <point x="131" y="622"/>
      <point x="149" y="678"/>
      <point x="208" y="678" type="curve"/>
      <point x="268" y="678"/>
      <point x="288" y="624"/>
      <point x="288" y="555" type="curve"/>
      <point x="288" y="485"/>
      <point x="252" y="440"/>
      <point x="193" y="395" type="curve"/>
      <point x="111" y="333"/>
      <point x="61" y="277"/>
      <point x="61" y="176" type="curve"/>
      <point x="61" y="70"/>
      <point x="106" y="-5"/>
      <point x="206" y="-5" type="curve"/>
      <point x="308" y="-5"/>
      <point x="357" y="68"/>
      <point x="357" y="176" type="curve"/>
      <point x="357" y="276"/>
      <point x="309" y="334"/>
      <point x="228" y="395" type="curve"/>
      <point x="169" y="442"/>
      <point x="131" y="485"/>
      <point x="131" y="557" type="curve"/>
      <point x="73" y="557"/>
      <point x="131" y="557"/>
    </contour>
  </outline>
</glyph>
<glyph name="nine" format="1">
  <advance width="426"/>
  <unicode hex="0039"/>
  <outline>
    <contour>
      <point x="325" y="484" type="curve"/>
      <point x="309" y="421"/>
      <point x="282" y="350"/>
      <point x="208" y="350" type="curve"/>
      <point x="132" y="350"/>
      <point x="112" y="426"/>
      <point x="112" y="515" type="curve"/>
      <point x="112" y="599"/>
      <point x="133" y="675"/>
      <point x="202" y="675" type="curve"/>
      <point x="293" y="675"/>
      <point x="313" y="581"/>
      <point x="313" y="475" type="curve"/>
      <point x="313" y="274"/>
      <point x="250" y="121"/>
      <point x="69" y="31" type="curve"/>
      <point x="93" y="-16"/>
      <point x="70" y="31"/>
      <point x="93" y="-16" type="curve"/>
      <point x="287" y="79"/>
      <point x="368" y="247"/>
      <point x="368" y="477" type="curve"/>
      <point x="368" y="617"/>
      <point x="328" y="729"/>
      <point x="204" y="729" type="curve"/>
      <point x="97" y="729"/>
      <point x="56" y="633"/>
      <point x="56" y="512" type="curve"/>
      <point x="56" y="394"/>
      <point x="97" y="301"/>
      <point x="203" y="301" type="curve"/>
      <point x="296" y="301"/>
      <point x="332" y="387"/>
      <point x="355" y="471" type="curve"/>
      <point x="325" y="484"/>
      <point x="355" y="471"/>
    </contour>
  </outline>
</glyph>
<glyph name="colon" format="1">
  <advance width="223"/>
  <unicode hex="003A"/>
  <outline>
    <contour>
      <point x="144" y="393" type="curve"/>
      <point x="144" y="414"/>
      <point x="130" y="425"/>
      <point x="110" y="425" type="curve"/>
      <point x="91" y="425"/>
      <point x="78" y="413"/>
      <point x="78" y="393" type="curve"/>
      <point x="147" y="393"/>
      <point x="76" y="393"/>
      <point x="144" y="393" type="curve"/>
      <point x="144" y="371"/>
      <point x="131" y="360"/>
      <point x="111" y="360" type="curve"/>
      <point x="91" y="360"/>
      <point x="78" y="372"/>
      <point x="78" y="393" type="curve"/>
      <point x="147" y="393"/>
      <point x="76" y="393"/>
    </contour>
    <contour>
      <point x="144" y="28" type="curve"/>
      <point x="144" y="49"/>
      <point x="130" y="61"/>
      <point x="111" y="61" type="curve"/>
      <point x="91" y="61"/>
      <point x="79" y="48"/>
      <point x="79" y="28" type="curve"/>
      <point x="147" y="28"/>
      <point x="76" y="28"/>
      <point x="144" y="28" type="curve"/>
      <point x="144" y="7"/>
      <point x="131" y="-4"/>
      <point x="111" y="-4" type="curve"/>
      <point x="91" y="-4"/>
      <point x="79" y="7"/>
      <point x="79" y="28" type="curve"/>
      <point x="147" y="28"/>
      <point x="76" y="28"/>
    </contour>
  </outline>
</glyph>
<glyph name="semicolon" format="1">
  <advance width="254"/>
  <unicode hex="003B"/>
  <outline>
    <contour>
      <point x="84" y="-140" type="line"/>
      <point x="129" y="-123"/>
      <point x="161" y="-84"/>
      <point x="161" y="-21" type="curve"/>
      <point x="161" y="19"/>
      <point x="148" y="43"/>
      <point x="122" y="43" type="curve"/>
      <point x="99" y="43"/>
      <point x="85" y="31"/>
      <point x="85" y="9" type="curve"/>
      <point x="85" y="-8"/>
      <point x="94" y="-21"/>
      <point x="113" y="-24" type="curve"/>
      <point x="113" y="-46"/>
      <point x="107" y="-86"/>
      <point x="72" y="-106" type="curve"/>
    </contour>
    <contour>
      <point x="161" y="413" type="curve"/>
      <point x="161" y="435"/>
      <point x="147" y="446"/>
      <point x="128" y="446" type="curve"/>
      <point x="108" y="446"/>
      <point x="96" y="433"/>
      <point x="96" y="413" type="curve"/>
      <point x="163" y="413"/>
      <point x="93" y="413"/>
      <point x="161" y="413" type="curve"/>
      <point x="161" y="392"/>
      <point x="148" y="381"/>
      <point x="128" y="381" type="curve"/>
      <point x="108" y="381"/>
      <point x="96" y="392"/>
      <point x="96" y="413" type="curve"/>
      <point x="163" y="413"/>
      <point x="93" y="413"/>
    </contour>
  </outline>
</glyph>
<glyph name="less" format="1">
  <advance width="479"/>
  <unicode hex="003C"/>
  <outline>
    <contour>
      <point x="416" y="596" type="curve"/>
      <point x="290" y="506"/>
      <point x="164" y="416"/>
      <point x="39" y="326" type="curve"/>
      <point x="39" y="274"/>
      <point x="39" y="326"/>
      <point x="39" y="274" type="curve"/>
      <point x="164" y="364"/>
      <point x="290" y="454"/>
      <point x="416" y="544" type="curve"/>
      <point x="416" y="596"/>
      <point x="416" y="544"/>
    </contour>
    <contour>
      <point x="422" y="62" type="curve"/>
      <point x="293" y="150"/>
      <point x="165" y="238"/>
      <point x="39" y="326" type="curve"/>
      <point x="39" y="274"/>
      <point x="39" y="326"/>
      <point x="39" y="274" type="curve"/>
      <point x="165" y="186"/>
      <point x="293" y="98"/>
      <point x="422" y="10" type="curve"/>
      <point x="422" y="62"/>
      <point x="422" y="10"/>
    </contour>
  </outline>
</glyph>
<glyph name="equal" format="1">
  <advance width="552"/>
  <unicode hex="003D"/>
  <outline>
    <contour>
      <point x="80" y="193" type="curve"/>
      <point x="210" y="193"/>
      <point x="340" y="193"/>
      <point x="471" y="193" type="curve"/>
      <point x="471" y="242"/>
      <point x="471" y="193"/>
      <point x="471" y="242" type="curve"/>
      <point x="340" y="242"/>
      <point x="210" y="242"/>
      <point x="80" y="242" type="curve"/>
      <point x="80" y="193"/>
      <point x="80" y="242"/>
    </contour>
    <contour>
      <point x="80" y="415" type="curve"/>
      <point x="210" y="415"/>
      <point x="340" y="415"/>
      <point x="471" y="415" type="curve"/>
      <point x="471" y="464"/>
      <point x="471" y="415"/>
      <point x="471" y="464" type="curve"/>
      <point x="340" y="464"/>
      <point x="210" y="464"/>
      <point x="80" y="464" type="curve"/>
      <point x="80" y="415"/>
      <point x="80" y="464"/>
    </contour>
  </outline>
</glyph>
<glyph name="greater" format="1">
  <advance width="479"/>
  <unicode hex="003E"/>
  <outline>
    <contour>
      <point x="63" y="10" type="curve"/>
      <point x="189" y="100"/>
      <point x="315" y="190"/>
      <point x="441" y="280" type="curve"/>
      <point x="441" y="332"/>
      <point x="441" y="280"/>
      <point x="441" y="332" type="curve"/>
      <point x="315" y="242"/>
      <point x="189" y="152"/>
      <point x="63" y="62" type="curve"/>
      <point x="63" y="10"/>
      <point x="63" y="62"/>
    </contour>
    <contour>
      <point x="57" y="544" type="curve"/>
      <point x="184" y="456"/>
      <point x="313" y="368"/>
      <point x="441" y="280" type="curve"/>
      <point x="441" y="332"/>
      <point x="441" y="280"/>
      <point x="441" y="332" type="curve"/>
      <point x="313" y="420"/>
      <point x="184" y="508"/>
      <point x="57" y="596" type="curve"/>
      <point x="57" y="544"/>
      <point x="57" y="596"/>
    </contour>
  </outline>
</glyph>
<glyph name="question" format="1">
  <advance width="393"/>
  <unicode hex="003F"/>
  <outline>
    <contour>
      <point x="161" y="347" type="curve"/>
      <point x="161" y="310"/>
      <point x="161" y="258"/>
      <point x="161" y="221" type="curve"/>
      <point x="213" y="221"/>
      <point x="161" y="221"/>
      <point x="213" y="221" type="curve"/>
      <point x="213" y="258"/>
      <point x="213" y="310"/>
      <point x="213" y="347" type="curve"/>
      <point x="161" y="347"/>
      <point x="213" y="347"/>
    </contour>
    <contour>
      <point x="88" y="610" type="line"/>
      <point x="107" y="645"/>
      <point x="133" y="672"/>
      <point x="179" y="672" type="curve"/>
      <point x="253" y="672"/>
      <point x="280" y="601"/>
      <point x="280" y="519" type="curve"/>
      <point x="280" y="427"/>
      <point x="249" y="347"/>
      <point x="169" y="347" type="curve"/>
      <point x="169" y="318"/>
      <point x="168" y="329"/>
      <point x="168" y="301" type="curve"/>
      <point x="282" y="301"/>
      <point x="336" y="397"/>
      <point x="336" y="519" type="curve"/>
      <point x="336" y="632"/>
      <point x="284" y="722"/>
      <point x="182" y="722" type="curve"/>
      <point x="115" y="722"/>
      <point x="79" y="689"/>
      <point x="54" y="644" type="curve"/>
    </contour>
    <contour>
      <point x="220" y="28" type="curve"/>
      <point x="220" y="49"/>
      <point x="206" y="61"/>
      <point x="186" y="61" type="curve"/>
      <point x="166" y="61"/>
      <point x="154" y="48"/>
      <point x="154" y="28" type="curve"/>
      <point x="220" y="28"/>
      <point x="154" y="28"/>
      <point x="220" y="28" type="curve"/>
      <point x="220" y="6"/>
      <point x="206" y="-4"/>
      <point x="186" y="-4" type="curve"/>
      <point x="166" y="-4"/>
      <point x="154" y="7"/>
      <point x="154" y="28" type="curve"/>
      <point x="220" y="28"/>
      <point x="154" y="28"/>
    </contour>
  </outline>
</glyph>
<glyph name="at" format="1">
  <advance width="580"/>
  <unicode hex="0040"/>
  <outline>
    <contour>
      <point x="388" y="-80" type="curve"/>
      <point x="360" y="-104"/>
      <point x="337" y="-114"/>
      <point x="300" y="-114" type="curve"/>
      <point x="155" y="-114"/>
      <point x="107" y="25"/>
      <point x="107" y="193" type="curve"/>
      <point x="107" y="356"/>
      <point x="154" y="493"/>
      <point x="295" y="493" type="curve"/>
      <point x="428" y="493"/>
      <point x="471" y="362"/>
      <point x="471" y="208" type="curve"/>
      <point x="471" y="133"/>
      <point x="475" y="64"/>
      <point x="438" y="64" type="curve"/>
      <point x="394" y="64"/>
      <point x="400" y="128"/>
      <point x="400" y="198" type="curve"/>
      <point x="400" y="296"/>
      <point x="375" y="377"/>
      <point x="290" y="377" type="curve"/>
      <point x="199" y="377"/>
      <point x="174" y="298"/>
      <point x="174" y="198" type="curve"/>
      <point x="174" y="91"/>
      <point x="193" y="8"/>
      <point x="285" y="8" type="curve"/>
      <point x="369" y="8"/>
      <point x="384" y="89"/>
      <point x="391" y="185" type="curve"/>
      <point x="356" y="192"/>
      <point x="391" y="185"/>
      <point x="356" y="192" type="curve"/>
      <point x="346" y="126"/>
      <point x="345" y="54"/>
      <point x="291" y="54" type="curve"/>
      <point x="229" y="54"/>
      <point x="225" y="122"/>
      <point x="225" y="200" type="curve"/>
      <point x="225" y="270"/>
      <point x="230" y="330"/>
      <point x="286" y="330" type="curve"/>
      <point x="346" y="330"/>
      <point x="348" y="267"/>
      <point x="348" y="196" type="curve"/>
      <point x="348" y="101"/>
      <point x="352" y="20"/>
      <point x="433" y="20" type="curve"/>
      <point x="519" y="20"/>
      <point x="522" y="107"/>
      <point x="522" y="210" type="curve"/>
      <point x="522" y="396"/>
      <point x="465" y="542"/>
      <point x="297" y="542" type="curve"/>
      <point x="119" y="542"/>
      <point x="55" y="388"/>
      <point x="55" y="191" type="curve"/>
      <point x="55" y="-7"/>
      <point x="121" y="-161"/>
      <point x="297" y="-161" type="curve"/>
      <point x="345" y="-161"/>
      <point x="373" y="-151"/>
      <point x="411" y="-121" type="curve"/>
      <point x="388" y="-80"/>
      <point x="411" y="-121"/>
    </contour>
  </outline>
</glyph>
<glyph name="D" format="1">
  <advance width="557"/>
  <unicode hex="0044"/>
  <outline>
    <contour>
      <point x="239" y="812" type="move" name="top"/>
    </contour>
    <contour>
      <point x="158" y="47" type="curve"/>
      <point x="30" y="47"/>
      <point x="175" y="47"/>
      <point x="47" y="47" type="curve"/>
      <point x="47" y="0"/>
      <point x="47" y="47"/>
      <point x="47" y="0" type="curve"/>
      <point x="89" y="0"/>
      <point x="116" y="0"/>
      <point x="158" y="0" type="curve"/>
      <point x="158" y="47"/>
      <point x="158" y="0"/>
    </contour>
    <contour>
      <point x="158" y="722" type="curve"/>
      <point x="116" y="722"/>
      <point x="89" y="722"/>
      <point x="47" y="722" type="curve"/>
      <point x="47" y="675"/>
      <point x="47" y="722"/>
      <point x="47" y="675" type="curve"/>
      <point x="175" y="675"/>
      <point x="30" y="675"/>
      <point x="158" y="675" type="curve"/>
      <point x="158" y="722"/>
      <point x="158" y="675"/>
    </contour>
    <contour>
      <point x="128" y="722" type="curve"/>
      <point x="128" y="481"/>
      <point x="128" y="241"/>
      <point x="128" y="0" type="curve"/>
      <point x="186" y="0"/>
      <point x="128" y="0"/>
      <point x="186" y="0" type="curve"/>
      <point x="186" y="241"/>
      <point x="186" y="481"/>
      <point x="186" y="722" type="curve"/>
      <point x="128" y="722"/>
      <point x="186" y="722"/>
    </contour>
    <contour>
      <point x="158" y="0" type="curve"/>
      <point x="197" y="0"/>
      <point x="223" y="0"/>
      <point x="262" y="0" type="curve"/>
      <point x="441" y="0"/>
      <point x="499" y="154"/>
      <point x="499" y="356" type="curve"/>
      <point x="499" y="564"/>
      <point x="439" y="722"/>
      <point x="257" y="722" type="curve"/>
      <point x="220" y="722"/>
      <point x="195" y="722"/>
      <point x="158" y="722" type="curve"/>
      <point x="158" y="687"/>
      <point x="158" y="711"/>
      <point x="158" y="675" type="curve"/>
      <point x="195" y="675"/>
      <point x="218" y="675"/>
      <point x="255" y="675" type="curve"/>
      <point x="406" y="675"/>
      <point x="442" y="532"/>
      <point x="442" y="355" type="curve"/>
      <point x="442" y="186"/>
      <point x="411" y="47"/>
      <point x="268" y="47" type="curve"/>
      <point x="227" y="47"/>
      <point x="199" y="47"/>
      <point x="158" y="47" type="curve"/>
      <point x="158" y="11"/>
      <point x="158" y="35"/>
    </contour>
  </outline>
</glyph>
<glyph name="F" format="1">
  <advance width="448"/>
  <unicode hex="0046"/>
  <outline>
    <contour>
      <point x="157" y="0" type="curve"/>
      <point x="200" y="0"/>
      <point x="157" y="0"/>
      <point x="286" y="0" type="curve"/>
      <point x="286" y="47"/>
      <point x="286" y="0"/>
      <point x="286" y="47" type="curve"/>
      <point x="157" y="47"/>
      <point x="286" y="47"/>
      <point x="157" y="47" type="curve"/>
      <point x="157" y="0"/>
      <point x="157" y="47"/>
    </contour>
    <contour>
      <point x="157" y="722" type="curve"/>
      <point x="115" y="722"/>
      <point x="88" y="722"/>
      <point x="46" y="722" type="curve"/>
      <point x="46" y="675"/>
      <point x="46" y="722"/>
      <point x="46" y="675" type="curve"/>
      <point x="174" y="675"/>
      <point x="29" y="675"/>
      <point x="157" y="675" type="curve"/>
      <point x="157" y="722"/>
      <point x="157" y="675"/>
    </contour>
    <contour>
      <point x="157" y="47" type="curve"/>
      <point x="29" y="47"/>
      <point x="174" y="47"/>
      <point x="46" y="47" type="curve"/>
      <point x="46" y="0"/>
      <point x="46" y="47"/>
      <point x="46" y="0" type="curve"/>
      <point x="88" y="0"/>
      <point x="115" y="0"/>
      <point x="157" y="0" type="curve"/>
      <point x="157" y="47"/>
      <point x="157" y="0"/>
    </contour>
    <contour>
      <point x="358" y="699" type="curve"/>
      <point x="358" y="579"/>
      <point x="358" y="707"/>
      <point x="358" y="587" type="curve"/>
      <point x="405" y="587"/>
      <point x="358" y="587"/>
      <point x="405" y="587" type="curve"/>
      <point x="405" y="707"/>
      <point x="405" y="579"/>
      <point x="405" y="699" type="curve"/>
      <point x="358" y="699"/>
      <point x="405" y="699"/>
    </contour>
    <contour>
      <point x="160" y="350" type="curve"/>
      <point x="226" y="350"/>
      <point x="293" y="350"/>
      <point x="359" y="350" type="curve"/>
      <point x="359" y="397"/>
      <point x="359" y="350"/>
      <point x="359" y="397" type="curve"/>
      <point x="293" y="397"/>
      <point x="226" y="397"/>
      <point x="160" y="397" type="curve"/>
      <point x="160" y="350"/>
      <point x="160" y="397"/>
    </contour>
    <contour>
      <point x="186" y="0" type="curve"/>
      <point x="186" y="722" type="line"/>
      <point x="129" y="722"/>
      <point x="186" y="722"/>
      <point x="129" y="722" type="curve"/>
      <point x="129" y="481"/>
      <point x="129" y="241"/>
      <point x="129" y="0" type="curve"/>
      <point x="186" y="0"/>
      <point x="129" y="0"/>
    </contour>
    <contour>
      <point x="150" y="675" type="curve"/>
      <point x="235" y="675"/>
      <point x="320" y="675"/>
      <point x="405" y="675" type="curve"/>
      <point x="405" y="722"/>
      <point x="405" y="675"/>
      <point x="405" y="722" type="curve"/>
      <point x="320" y="722"/>
      <point x="235" y="722"/>
      <point x="150" y="722" type="curve"/>
      <point x="150" y="675"/>
      <point x="150" y="722"/>
    </contour>
  </outline>
</glyph>
<glyph name="I" format="1">
  <advance width="302"/>
  <unicode hex="0049"/>
  <outline>
    <contour>
      <point x="152" y="812" type="move" name="top"/>
    </contour>
    <contour>
      <point x="176" y="2" type="move" name="bottom"/>
    </contour>
    <contour>
      <point x="151" y="722" type="curve"/>
      <point x="109" y="722"/>
      <point x="82" y="722"/>
      <point x="39" y="722" type="curve"/>
      <point x="39" y="675"/>
      <point x="39" y="722"/>
      <point x="39" y="675" type="curve"/>
      <point x="166" y="675"/>
      <point x="24" y="675"/>
      <point x="151" y="675" type="curve"/>
      <point x="151" y="722"/>
      <point x="151" y="675"/>
    </contour>
    <contour>
      <point x="151" y="675" type="curve"/>
      <point x="279" y="675"/>
      <point x="136" y="675"/>
      <point x="264" y="675" type="curve"/>
      <point x="264" y="722"/>
      <point x="264" y="675"/>
      <point x="264" y="722" type="curve"/>
      <point x="221" y="722"/>
      <point x="193" y="722"/>
      <point x="151" y="722" type="curve"/>
      <point x="151" y="675"/>
      <point x="151" y="722"/>
    </contour>
    <contour>
      <point x="151" y="0" type="curve"/>
      <point x="193" y="0"/>
      <point x="221" y="0"/>
      <point x="264" y="0" type="curve"/>
      <point x="264" y="47"/>
      <point x="264" y="0"/>
      <point x="264" y="47" type="curve"/>
      <point x="136" y="47"/>
      <point x="279" y="47"/>
      <point x="151" y="47" type="curve"/>
      <point x="151" y="0"/>
      <point x="151" y="47"/>
    </contour>
    <contour>
      <point x="151" y="47" type="curve"/>
      <point x="24" y="47"/>
      <point x="166" y="47"/>
      <point x="39" y="47" type="curve"/>
      <point x="39" y="0"/>
      <point x="39" y="47"/>
      <point x="39" y="0" type="curve"/>
      <point x="82" y="0"/>
      <point x="109" y="0"/>
      <point x="151" y="0" type="curve"/>
      <point x="151" y="47"/>
      <point x="151" y="0"/>
    </contour>
    <contour>
      <point x="179" y="0" type="curve"/>
      <point x="179" y="241"/>
      <point x="179" y="481"/>
      <point x="179" y="722" type="curve"/>
      <point x="122" y="722"/>
      <point x="179" y="722"/>
      <point x="122" y="722" type="curve"/>
      <point x="122" y="481"/>
      <point x="122" y="241"/>
      <point x="122" y="0" type="curve"/>
      <point x="179" y="0"/>
      <point x="122" y="0"/>
    </contour>
  </outline>
</glyph>
<glyph name="L" format="1">
  <advance width="445"/>
  <unicode hex="004C"/>
  <outline>
    <contour>
      <point x="152" y="812" type="move" name="top"/>
    </contour>
    <contour>
      <point x="254" y="-66" type="move" name="bottom"/>
    </contour>
    <contour>
      <point x="413" y="23" type="curve"/>
      <point x="413" y="143"/>
      <point x="413" y="15"/>
      <point x="413" y="136" type="curve"/>
      <point x="365" y="136"/>
      <point x="413" y="136"/>
      <point x="365" y="136" type="curve"/>
      <point x="365" y="15"/>
      <point x="365" y="143"/>
      <point x="365" y="23" type="curve"/>
      <point x="413" y="23"/>
      <point x="365" y="23"/>
    </contour>
    <contour>
      <point x="150" y="47" type="curve"/>
      <point x="23" y="47"/>
      <point x="165" y="47"/>
      <point x="39" y="47" type="curve"/>
      <point x="38" y="0"/>
      <point x="39" y="47"/>
      <point x="38" y="0" type="curve"/>
      <point x="81" y="0"/>
      <point x="108" y="0"/>
      <point x="150" y="0" type="curve"/>
      <point x="150" y="47"/>
      <point x="150" y="0"/>
    </contour>
    <contour>
      <point x="150" y="722" type="curve"/>
      <point x="108" y="722"/>
      <point x="81" y="722"/>
      <point x="39" y="722" type="curve"/>
      <point x="38" y="675"/>
      <point x="39" y="722"/>
      <point x="38" y="675" type="curve"/>
      <point x="165" y="675"/>
      <point x="23" y="675"/>
      <point x="150" y="675" type="curve"/>
      <point x="150" y="722"/>
      <point x="150" y="675"/>
    </contour>
    <contour>
      <point x="150" y="675" type="curve"/>
      <point x="277" y="675"/>
      <point x="135" y="675"/>
      <point x="262" y="675" type="curve"/>
      <point x="262" y="722"/>
      <point x="262" y="675"/>
      <point x="262" y="722" type="curve"/>
      <point x="219" y="722"/>
      <point x="192" y="722"/>
      <point x="150" y="722" type="curve"/>
      <point x="150" y="675"/>
      <point x="150" y="722"/>
    </contour>
    <contour>
      <point x="179" y="0" type="curve"/>
      <point x="179" y="241"/>
      <point x="179" y="481"/>
      <point x="179" y="722" type="curve"/>
      <point x="123" y="722"/>
      <point x="179" y="722"/>
      <point x="123" y="722" type="curve"/>
      <point x="123" y="481"/>
      <point x="123" y="241"/>
      <point x="123" y="0" type="curve"/>
      <point x="179" y="0"/>
      <point x="123" y="0"/>
    </contour>
    <contour>
      <point x="150" y="0" type="curve"/>
      <point x="238" y="0"/>
      <point x="325" y="0"/>
      <point x="413" y="0" type="curve"/>
      <point x="413" y="47"/>
      <point x="413" y="0"/>
      <point x="413" y="47" type="curve"/>
      <point x="325" y="47"/>
      <point x="238" y="47"/>
      <point x="150" y="47" type="curve"/>
      <point x="150" y="0"/>
      <point x="150" y="47"/>
    </contour>
  </outline>
</glyph>
<glyph name="Q" format="1">
  <advance width="525"/>
  <unicode hex="0051"/>
  <outline>
    <contour>
      <point x="250" y="11" type="curve"/>
      <point x="301" y="-142"/>
      <point x="374" y="-232"/>
      <point x="522" y="-232" type="curve"/>
      <point x="522" y="-183"/>
      <point x="522" y="-232"/>
      <point x="522" y="-183" type="curve"/>
      <point x="398" y="-183"/>
      <point x="343" y="-97"/>
      <point x="299" y="34" type="curve"/>
      <point x="250" y="11"/>
      <point x="299" y="34"/>
    </contour>
    <contour>
      <point x="117" y="360" type="curve"/>
      <point x="117" y="524"/>
      <point x="130" y="676"/>
      <point x="267" y="676" type="curve"/>
      <point x="403" y="676"/>
      <point x="421" y="526"/>
      <point x="421" y="362" type="curve"/>
      <point x="421" y="198"/>
      <point x="409" y="44"/>
      <point x="272" y="44" type="curve"/>
      <point x="133" y="45"/>
      <point x="117" y="195"/>
      <point x="117" y="360" type="curve"/>
      <point x="60" y="360"/>
      <point x="117" y="360"/>
      <point x="60" y="360" type="curve"/>
      <point x="60" y="164"/>
      <point x="101" y="-5"/>
      <point x="269" y="-5" type="curve"/>
      <point x="439" y="-5"/>
      <point x="478" y="167"/>
      <point x="478" y="365" type="curve"/>
      <point x="478" y="560"/>
      <point x="439" y="728"/>
      <point x="272" y="728" type="curve"/>
      <point x="102" y="728"/>
      <point x="60" y="557"/>
      <point x="60" y="360" type="curve"/>
      <point x="117" y="360"/>
      <point x="60" y="360"/>
    </contour>
  </outline>
</glyph>
<glyph name="V" format="1">
  <advance width="552"/>
  <unicode hex="0056"/>
  <outline>
    <contour>
      <point x="429" y="722" type="curve"/>
      <point x="388" y="722"/>
      <point x="354" y="722"/>
      <point x="312" y="722" type="curve"/>
      <point x="312" y="675"/>
      <point x="312" y="722"/>
      <point x="312" y="675" type="curve"/>
      <point x="436" y="675"/>
      <point x="305" y="675"/>
      <point x="429" y="675" type="curve"/>
      <point x="429" y="722"/>
      <point x="429" y="675"/>
    </contour>
    <contour>
      <point x="93" y="722" type="curve"/>
      <point x="56" y="722"/>
      <point x="26" y="722"/>
      <point x="-13" y="722" type="curve"/>
      <point x="-13" y="675"/>
      <point x="-13" y="722"/>
      <point x="-13" y="675" type="curve"/>
      <point x="101" y="675"/>
      <point x="-20" y="675"/>
      <point x="93" y="675" type="curve"/>
      <point x="93" y="722"/>
      <point x="93" y="675"/>
    </contour>
    <contour>
      <point x="431" y="675" type="curve"/>
      <point x="545" y="675"/>
      <point x="423" y="675"/>
      <point x="537" y="675" type="curve"/>
      <point x="537" y="722"/>
      <point x="537" y="675"/>
      <point x="537" y="722" type="curve"/>
      <point x="500" y="722"/>
      <point x="468" y="722"/>
      <point x="431" y="722" type="curve"/>
      <point x="431" y="675"/>
      <point x="431" y="722"/>
    </contour>
    <contour>
      <point x="96" y="675" type="curve"/>
      <point x="219" y="675"/>
      <point x="88" y="675"/>
      <point x="212" y="675" type="curve"/>
      <point x="212" y="722"/>
      <point x="212" y="675"/>
      <point x="212" y="722" type="curve"/>
      <point x="171" y="722"/>
      <point x="137" y="722"/>
      <point x="96" y="722" type="curve"/>
      <point x="96" y="675"/>
      <point x="96" y="722"/>
    </contour>
    <contour>
      <point x="409" y="722" type="curve"/>
      <point x="353" y="481"/>
      <point x="297" y="241"/>
      <point x="241" y="0" type="curve"/>
      <point x="301" y="0"/>
      <point x="236" y="0"/>
      <point x="296" y="0" type="curve"/>
      <point x="354" y="241"/>
      <point x="410" y="481"/>
      <point x="467" y="722" type="curve"/>
      <point x="409" y="722"/>
      <point x="467" y="722"/>
    </contour>
    <contour>
      <point x="57" y="722" type="curve"/>
      <point x="115" y="481"/>
      <point x="173" y="241"/>
      <point x="232" y="0" type="curve"/>
      <point x="292" y="0"/>
      <point x="227" y="0"/>
      <point x="288" y="0" type="curve"/>
      <point x="231" y="241"/>
      <point x="174" y="481"/>
      <point x="117" y="722" type="curve"/>
      <point x="57" y="722"/>
      <point x="117" y="722"/>
    </contour>
  </outline>
</glyph>
<glyph name="X" format="1">
  <advance width="522"/>
  <unicode hex="0058"/>
  <outline>
    <contour>
      <point x="114" y="0" type="curve"/>
      <point x="152" y="0"/>
      <point x="107" y="0"/>
      <point x="222" y="0" type="curve"/>
      <point x="222" y="47"/>
      <point x="222" y="0"/>
      <point x="222" y="47" type="curve"/>
      <point x="107" y="47"/>
      <point x="229" y="47"/>
      <point x="114" y="47" type="curve"/>
      <point x="114" y="0"/>
      <point x="114" y="47"/>
    </contour>
    <contour>
      <point x="108" y="47" type="curve"/>
      <point x="-4" y="47"/>
      <point x="115" y="47"/>
      <point x="3" y="47" type="curve"/>
      <point x="3" y="0"/>
      <point x="3" y="47"/>
      <point x="3" y="0" type="curve"/>
      <point x="40" y="0"/>
      <point x="71" y="0"/>
      <point x="108" y="0" type="curve"/>
      <point x="108" y="47"/>
      <point x="108" y="0"/>
    </contour>
    <contour>
      <point x="412" y="0" type="curve"/>
      <point x="449" y="0"/>
      <point x="480" y="0"/>
      <point x="516" y="0" type="curve"/>
      <point x="516" y="47"/>
      <point x="516" y="0"/>
      <point x="516" y="47" type="curve"/>
      <point x="404" y="47"/>
      <point x="524" y="47"/>
      <point x="412" y="47" type="curve"/>
      <point x="412" y="0"/>
      <point x="412" y="47"/>
    </contour>
    <contour>
      <point x="405" y="47" type="curve"/>
      <point x="290" y="47"/>
      <point x="412" y="47"/>
      <point x="298" y="47" type="curve"/>
      <point x="298" y="0"/>
      <point x="298" y="47"/>
      <point x="298" y="0" type="curve"/>
      <point x="336" y="0"/>
      <point x="367" y="0"/>
      <point x="405" y="0" type="curve"/>
      <point x="405" y="47"/>
      <point x="405" y="0"/>
    </contour>
    <contour>
      <point x="397" y="675" type="curve"/>
      <point x="510" y="675"/>
      <point x="390" y="675"/>
      <point x="503" y="675" type="curve"/>
      <point x="503" y="722"/>
      <point x="503" y="675"/>
      <point x="503" y="722" type="curve"/>
      <point x="465" y="722"/>
      <point x="434" y="722"/>
      <point x="397" y="722" type="curve"/>
      <point x="397" y="675"/>
      <point x="397" y="722"/>
    </contour>
    <contour>
      <point x="402" y="722" type="curve"/>
      <point x="363" y="722"/>
      <point x="330" y="722"/>
      <point x="292" y="722" type="curve"/>
      <point x="292" y="675"/>
      <point x="292" y="722"/>
      <point x="292" y="675" type="curve"/>
      <point x="410" y="675"/>
      <point x="284" y="675"/>
      <point x="402" y="675" type="curve"/>
      <point x="402" y="722"/>
      <point x="402" y="675"/>
    </contour>
    <contour>
      <point x="124" y="722" type="curve"/>
      <point x="87" y="722"/>
      <point x="57" y="722"/>
      <point x="19" y="722" type="curve"/>
      <point x="19" y="675"/>
      <point x="19" y="722"/>
      <point x="19" y="675" type="curve"/>
      <point x="132" y="675"/>
      <point x="12" y="675"/>
      <point x="124" y="675" type="curve"/>
      <point x="124" y="722"/>
      <point x="124" y="675"/>
    </contour>
    <contour>
      <point x="119" y="675" type="curve"/>
      <point x="238" y="675"/>
      <point x="112" y="675"/>
      <point x="230" y="675" type="curve"/>
      <point x="230" y="722"/>
      <point x="230" y="675"/>
      <point x="230" y="722" type="curve"/>
      <point x="191" y="722"/>
      <point x="158" y="722"/>
      <point x="119" y="722" type="curve"/>
      <point x="119" y="675"/>
      <point x="119" y="722"/>
    </contour>
    <contour>
      <point x="380" y="722" type="curve"/>
      <point x="275" y="480"/>
      <point x="172" y="240"/>
      <point x="67" y="-2" type="curve"/>
      <point x="128" y="-2"/>
      <point x="67" y="0"/>
      <point x="128" y="0" type="curve"/>
      <point x="232" y="242"/>
      <point x="335" y="482"/>
      <point x="438" y="724" type="curve"/>
      <point x="380" y="724"/>
      <point x="438" y="722"/>
    </contour>
    <contour>
      <point x="86" y="724" type="curve"/>
      <point x="187" y="482"/>
      <point x="290" y="242"/>
      <point x="393" y="0" type="curve"/>
      <point x="453" y="0"/>
      <point x="393" y="-1"/>
      <point x="453" y="-1" type="curve"/>
      <point x="350" y="240"/>
      <point x="247" y="480"/>
      <point x="144" y="722" type="curve"/>
      <point x="86" y="722"/>
      <point x="144" y="724"/>
    </contour>
  </outline>
</glyph>
<glyph name="bracketleft" format="1">
  <advance width="235"/>
  <unicode hex="005B"/>
  <outline>
    <contour>
      <point x="195" y="770" type="curve"/>
      <point x="164" y="770"/>
      <point x="132" y="770"/>
      <point x="100" y="770" type="curve"/>
      <point x="94" y="770"/>
      <point x="81" y="770"/>
      <point x="75" y="770" type="curve"/>
      <point x="75" y="764"/>
      <point x="75" y="757"/>
      <point x="75" y="751" type="curve"/>
      <point x="75" y="466"/>
      <point x="75" y="182"/>
      <point x="75" y="-103" type="curve"/>
      <point x="75" y="-109"/>
      <point x="75" y="-113"/>
      <point x="75" y="-121" type="curve"/>
      <point x="82" y="-121"/>
      <point x="94" y="-121"/>
      <point x="99" y="-121" type="curve"/>
      <point x="131" y="-121"/>
      <point x="163" y="-121"/>
      <point x="195" y="-121" type="curve"/>
      <point x="195" y="-69"/>
      <point x="195" y="-121"/>
      <point x="195" y="-69" type="curve"/>
      <point x="163" y="-69"/>
      <point x="131" y="-69"/>
      <point x="99" y="-69" type="curve"/>
      <point x="133" y="-69"/>
      <point x="99" y="-69"/>
      <point x="133" y="-69" type="curve"/>
      <point x="133" y="-103"/>
      <point x="133" y="-69"/>
      <point x="133" y="-103" type="curve"/>
      <point x="133" y="182"/>
      <point x="133" y="466"/>
      <point x="133" y="751" type="curve"/>
      <point x="133" y="719"/>
      <point x="133" y="751"/>
      <point x="133" y="719" type="curve"/>
      <point x="100" y="719"/>
      <point x="133" y="719"/>
      <point x="100" y="719" type="curve"/>
      <point x="132" y="719"/>
      <point x="164" y="719"/>
      <point x="195" y="719" type="curve"/>
      <point x="195" y="770"/>
      <point x="195" y="719"/>
    </contour>
  </outline>
</glyph>
<glyph name="backslash" format="1">
  <advance width="375"/>
  <unicode hex="005C"/>
  <outline>
    <contour>
      <point x="339" y="-68" type="curve"/>
      <point x="258" y="236"/>
      <point x="176" y="540"/>
      <point x="96" y="844" type="curve"/>
      <point x="36" y="844"/>
      <point x="96" y="844"/>
      <point x="36" y="844" type="curve"/>
      <point x="117" y="540"/>
      <point x="198" y="236"/>
      <point x="280" y="-68" type="curve"/>
      <point x="339" y="-68"/>
      <point x="280" y="-68"/>
    </contour>
  </outline>
</glyph>
<glyph name="bracketright" format="1">
  <advance width="236"/>
  <unicode hex="005D"/>
  <outline>
    <contour>
      <point x="40" y="719" type="curve"/>
      <point x="72" y="719"/>
      <point x="104" y="719"/>
      <point x="136" y="719" type="curve"/>
      <point x="130" y="725"/>
      <point x="122" y="726"/>
      <point x="117" y="733" type="curve"/>
      <point x="112" y="739"/>
      <point x="107" y="745"/>
      <point x="103" y="751" type="curve"/>
      <point x="103" y="466"/>
      <point x="102" y="182"/>
      <point x="103" y="-103" type="curve"/>
      <point x="107" y="-96"/>
      <point x="113" y="-91"/>
      <point x="119" y="-84" type="curve"/>
      <point x="123" y="-78"/>
      <point x="132" y="-76"/>
      <point x="136" y="-69" type="curve"/>
      <point x="104" y="-69"/>
      <point x="72" y="-69"/>
      <point x="40" y="-69" type="curve"/>
      <point x="40" y="-121"/>
      <point x="40" y="-69"/>
      <point x="40" y="-121" type="curve"/>
      <point x="72" y="-121"/>
      <point x="104" y="-121"/>
      <point x="136" y="-121" type="curve"/>
      <point x="160" y="-121"/>
      <point x="136" y="-121"/>
      <point x="160" y="-121" type="curve"/>
      <point x="160" y="-103"/>
      <point x="160" y="-121"/>
      <point x="160" y="-103" type="curve"/>
      <point x="160" y="182"/>
      <point x="160" y="466"/>
      <point x="160" y="751" type="curve"/>
      <point x="160" y="770"/>
      <point x="160" y="751"/>
      <point x="160" y="770" type="curve"/>
      <point x="136" y="770"/>
      <point x="160" y="770"/>
      <point x="136" y="770" type="curve"/>
      <point x="104" y="770"/>
      <point x="72" y="770"/>
      <point x="40" y="770" type="curve"/>
      <point x="40" y="719"/>
      <point x="40" y="770"/>
    </contour>
  </outline>
</glyph>
<glyph name="asciicircum" format="1">
  <advance width="402"/>
  <unicode hex="005E"/>
  <outline>
    <contour>
      <point x="120" y="462" type="curve"/>
      <point x="157" y="573"/>
      <point x="193" y="684"/>
      <point x="229" y="794" type="curve"/>
      <point x="172" y="794"/>
      <point x="230" y="794"/>
      <point x="172" y="794" type="curve"/>
      <point x="136" y="684"/>
      <point x="100" y="573"/>
      <point x="64" y="462" type="curve"/>
      <point x="121" y="462"/>
      <point x="64" y="462"/>
    </contour>
    <contour>
      <point x="338" y="462" type="curve"/>
      <point x="303" y="570"/>
      <point x="264" y="687"/>
      <point x="229" y="794" type="curve"/>
      <point x="172" y="794"/>
      <point x="229" y="794"/>
      <point x="172" y="794" type="curve"/>
      <point x="208" y="687"/>
      <point x="246" y="570"/>
      <point x="282" y="462" type="curve"/>
      <point x="338" y="462"/>
      <point x="282" y="462"/>
    </contour>
  </outline>
</glyph>
<glyph name="underscore" format="1">
  <advance width="423"/>
  <unicode hex="005F"/>
  <outline>
    <contour>
      <point x="-1" y="-202" type="curve"/>
      <point x="141" y="-202"/>
      <point x="282" y="-202"/>
      <point x="423" y="-202" type="curve"/>
      <point x="423" y="-155"/>
      <point x="423" y="-202"/>
      <point x="423" y="-155" type="curve"/>
      <point x="282" y="-155"/>
      <point x="141" y="-155"/>
      <point x="-1" y="-155" type="curve"/>
      <point x="-1" y="-202"/>
      <point x="-1" y="-155"/>
    </contour>
  </outline>
</glyph>
<glyph name="grave" format="1">
  <advance width="320"/>
  <unicode hex="0060"/>
  <outline>
    <contour>
      <point x="152" y="593" type="move" name="_top"/>
    </contour>
    <contour>
      <point x="179" y="593" type="line"/>
      <point x="124" y="759" type="line"/>
      <point x="55" y="759" type="line"/>
      <point x="126" y="593" type="line"/>
    </contour>
  </outline>
</glyph>
<glyph name="b" format="1">
  <advance width="471"/>
  <unicode hex="0062"/>
  <outline>
    <contour>
      <point x="126" y="800" type="curve"/>
      <point x="86" y="800"/>
      <point x="52" y="800"/>
      <point x="14" y="800" type="curve"/>
      <point x="14" y="750"/>
      <point x="14" y="803"/>
      <point x="14" y="753" type="curve"/>
      <point x="138" y="753"/>
      <point x="2" y="753"/>
      <point x="126" y="753" type="curve"/>
      <point x="126" y="803"/>
      <point x="126" y="750"/>
    </contour>
    <contour>
      <point x="141" y="391" type="curve"/>
      <point x="151" y="429"/>
      <point x="193" y="490"/>
      <point x="251" y="490" type="curve"/>
      <point x="342" y="490"/>
      <point x="359" y="381"/>
      <point x="359" y="267" type="curve"/>
      <point x="360" y="159"/>
      <point x="336" y="43"/>
      <point x="252" y="43" type="curve"/>
      <point x="203" y="43"/>
      <point x="164" y="89"/>
      <point x="143" y="145" type="curve"/>
      <point x="109" y="121"/>
      <point x="149" y="142"/>
      <point x="115" y="118" type="curve"/>
      <point x="139" y="51"/>
      <point x="185" y="-5"/>
      <point x="256" y="-5" type="curve"/>
      <point x="377" y="-5"/>
      <point x="416" y="123"/>
      <point x="416" y="270" type="curve"/>
      <point x="416" y="411"/>
      <point x="380" y="538"/>
      <point x="257" y="538" type="curve"/>
      <point x="179" y="538"/>
      <point x="130" y="473"/>
      <point x="116" y="421" type="curve"/>
      <point x="142" y="394"/>
      <point x="114" y="417"/>
    </contour>
    <contour>
      <point x="152" y="0" type="curve"/>
      <point x="152" y="265"/>
      <point x="152" y="535"/>
      <point x="152" y="800" type="curve"/>
      <point x="91" y="800"/>
      <point x="157" y="800"/>
      <point x="95" y="800" type="curve"/>
      <point x="95" y="535"/>
      <point x="95" y="265"/>
      <point x="95" y="0" type="curve"/>
      <point x="157" y="0"/>
      <point x="91" y="0"/>
    </contour>
    <contour>
      <point x="126" y="47" type="curve"/>
      <point x="3" y="47"/>
      <point x="138" y="47"/>
      <point x="14" y="47" type="curve"/>
      <point x="14" y="-3"/>
      <point x="14" y="50"/>
      <point x="14" y="0" type="curve"/>
      <point x="52" y="0"/>
      <point x="87" y="0"/>
      <point x="126" y="0" type="curve"/>
      <point x="126" y="50"/>
      <point x="126" y="-3"/>
    </contour>
  </outline>
</glyph>
<glyph name="e" format="1">
  <advance width="408"/>
  <unicode hex="0065"/>
  <outline>
    <contour>
      <point x="210" y="654" type="move" name="top"/>
    </contour>
    <contour>
      <point x="241" y="0" type="move" name="bottom"/>
    </contour>
    <contour>
      <point x="87" y="260" type="curve"/>
      <point x="168" y="260"/>
      <point x="250" y="260"/>
      <point x="330" y="260" type="curve"/>
      <point x="352" y="260"/>
      <point x="330" y="260"/>
      <point x="352" y="260" type="curve"/>
      <point x="352" y="276"/>
      <point x="352" y="260"/>
      <point x="352" y="276" type="curve"/>
      <point x="352" y="284"/>
      <point x="352" y="293"/>
      <point x="352" y="301" type="curve"/>
      <point x="352" y="433"/>
      <point x="323" y="538"/>
      <point x="210" y="538" type="curve"/>
      <point x="87" y="538"/>
      <point x="58" y="425"/>
      <point x="58" y="280" type="curve"/>
      <point x="58" y="122"/>
      <point x="89" y="-5"/>
      <point x="221" y="-5" type="curve"/>
      <point x="277" y="-5"/>
      <point x="312" y="26"/>
      <point x="346" y="76" type="curve"/>
      <point x="308" y="107"/>
      <point x="346" y="76"/>
      <point x="308" y="107" type="curve"/>
      <point x="286" y="71"/>
      <point x="259" y="44"/>
      <point x="221" y="44" type="curve"/>
      <point x="123" y="44"/>
      <point x="116" y="153"/>
      <point x="116" y="280" type="curve"/>
      <point x="116" y="392"/>
      <point x="120" y="490"/>
      <point x="207" y="490" type="curve"/>
      <point x="288" y="490"/>
      <point x="297" y="404"/>
      <point x="297" y="304" type="curve"/>
      <point x="297" y="294"/>
      <point x="297" y="285"/>
      <point x="297" y="275" type="curve"/>
      <point x="303" y="281"/>
      <point x="309" y="286"/>
      <point x="314" y="292" type="curve"/>
      <point x="318" y="297"/>
      <point x="325" y="299"/>
      <point x="330" y="305" type="curve"/>
      <point x="250" y="305"/>
      <point x="168" y="305"/>
      <point x="87" y="305" type="curve"/>
      <point x="87" y="258"/>
      <point x="87" y="307"/>
    </contour>
  </outline>
</glyph>
<glyph name="f" format="1">
  <advance width="324"/>
  <unicode hex="0066"/>
  <outline>
    <contour>
      <point x="266" y="776" type="curve"/>
      <point x="266" y="658"/>
      <point x="266" y="784"/>
      <point x="266" y="666" type="curve"/>
      <point x="312" y="666"/>
      <point x="266" y="666"/>
      <point x="312" y="666" type="curve"/>
      <point x="312" y="784"/>
      <point x="312" y="658"/>
      <point x="312" y="776" type="curve"/>
      <point x="266" y="776"/>
      <point x="312" y="776"/>
    </contour>
    <contour>
      <point x="150" y="0" type="curve"/>
      <point x="188" y="0"/>
      <point x="222" y="0"/>
      <point x="261" y="0" type="curve"/>
      <point x="261" y="47"/>
      <point x="261" y="0"/>
      <point x="261" y="47" type="curve"/>
      <point x="143" y="47"/>
      <point x="267" y="47"/>
      <point x="150" y="47" type="curve"/>
      <point x="150" y="0"/>
      <point x="150" y="47"/>
    </contour>
    <contour>
      <point x="150" y="47" type="curve"/>
      <point x="32" y="47"/>
      <point x="155" y="47"/>
      <point x="38" y="47" type="curve"/>
      <point x="38" y="0"/>
      <point x="38" y="47"/>
      <point x="38" y="0" type="curve"/>
      <point x="77" y="0"/>
      <point x="111" y="0"/>
      <point x="150" y="0" type="curve"/>
      <point x="150" y="47"/>
      <point x="150" y="0"/>
    </contour>
    <contour>
      <point x="33" y="486" type="curve"/>
      <point x="273" y="486" type="line"/>
      <point x="273" y="533"/>
      <point x="273" y="486"/>
      <point x="273" y="533" type="curve"/>
      <point x="33" y="533" type="line"/>
      <point x="33" y="486"/>
      <point x="33" y="533"/>
    </contour>
    <contour>
      <point x="178" y="0" type="curve"/>
      <point x="178" y="630" type="line"/>
      <point x="178" y="697"/>
      <point x="184" y="761"/>
      <point x="237" y="761" type="curve"/>
      <point x="258" y="761"/>
      <point x="275" y="751"/>
      <point x="290" y="739" type="curve"/>
      <point x="312" y="776"/>
      <point x="290" y="739"/>
      <point x="312" y="776" type="curve"/>
      <point x="291" y="793"/>
      <point x="264" y="805"/>
      <point x="237" y="805" type="curve"/>
      <point x="153" y="805"/>
      <point x="120" y="725"/>
      <point x="121" y="630" type="curve"/>
      <point x="121" y="0" type="line"/>
      <point x="178" y="0"/>
      <point x="121" y="0"/>
    </contour>
  </outline>
</glyph>
<glyph name="g" format="1">
  <advance width="395"/>
  <unicode hex="0067"/>
  <outline>
    <contour>
      <point x="203" y="654" type="move" name="top"/>
    </contour>
    <contour>
      <point x="278" y="478" type="curve"/>
      <point x="370" y="552" type="line"/>
      <point x="359" y="568"/>
      <point x="355" y="578"/>
      <point x="344" y="593" type="curve"/>
      <point x="247" y="516" type="line"/>
      <point x="278" y="479"/>
      <point x="247" y="516"/>
    </contour>
    <contour>
      <point x="124" y="352" type="curve"/>
      <point x="124" y="422"/>
      <point x="143" y="492"/>
      <point x="204" y="492" type="curve"/>
      <point x="266" y="492"/>
      <point x="283" y="425"/>
      <point x="283" y="353" type="curve"/>
      <point x="283" y="287"/>
      <point x="264" y="221"/>
      <point x="204" y="221" type="curve"/>
      <point x="146" y="221"/>
      <point x="124" y="284"/>
      <point x="124" y="352" type="curve"/>
      <point x="67" y="349"/>
      <point x="124" y="352"/>
      <point x="67" y="349" type="curve"/>
      <point x="67" y="254"/>
      <point x="112" y="175"/>
      <point x="201" y="175" type="curve"/>
      <point x="292" y="175"/>
      <point x="340" y="256"/>
      <point x="340" y="355" type="curve"/>
      <point x="340" y="454"/>
      <point x="296" y="538"/>
      <point x="204" y="538" type="curve"/>
      <point x="110" y="538"/>
      <point x="67" y="452"/>
      <point x="67" y="349" type="curve"/>
      <point x="124" y="352"/>
      <point x="67" y="349"/>
    </contour>
    <contour>
      <point x="127" y="233" type="curve"/>
      <point x="89" y="200"/>
      <point x="70" y="161"/>
      <point x="70" y="110" type="curve"/>
      <point x="70" y="37"/>
      <point x="122" y="-10"/>
      <point x="196" y="-19" type="curve"/>
      <point x="267" y="-28"/>
      <point x="320" y="-67"/>
      <point x="320" y="-137" type="curve"/>
      <point x="320" y="-208"/>
      <point x="273" y="-258"/>
      <point x="202" y="-258" type="curve"/>
      <point x="134" y="-258"/>
      <point x="96" y="-199"/>
      <point x="96" y="-126" type="curve"/>
      <point x="96" y="-70"/>
      <point x="109" y="-20"/>
      <point x="155" y="9" type="curve"/>
      <point x="127" y="39"/>
      <point x="155" y="9"/>
      <point x="127" y="39" type="curve"/>
      <point x="66" y="0"/>
      <point x="39" y="-56"/>
      <point x="39" y="-128" type="curve"/>
      <point x="39" y="-229"/>
      <point x="100" y="-304"/>
      <point x="200" y="-304" type="curve"/>
      <point x="301" y="-304"/>
      <point x="373" y="-234"/>
      <point x="372" y="-133" type="curve"/>
      <point x="372" y="-41"/>
      <point x="301" y="14"/>
      <point x="207" y="26" type="curve"/>
      <point x="158" y="31"/>
      <point x="126" y="66"/>
      <point x="126" y="115" type="curve"/>
      <point x="126" y="151"/>
      <point x="132" y="178"/>
      <point x="158" y="202" type="curve"/>
      <point x="127" y="233"/>
      <point x="158" y="202"/>
    </contour>
  </outline>
</glyph>
<glyph name="h" format="1">
  <advance width="465"/>
  <unicode hex="0068"/>
  <outline>
    <contour>
      <point x="349" y="0" type="curve"/>
      <point x="389" y="0"/>
      <point x="422" y="0"/>
      <point x="461" y="0" type="curve"/>
      <point x="461" y="47"/>
      <point x="461" y="0"/>
      <point x="461" y="47" type="curve"/>
      <point x="344" y="47"/>
      <point x="468" y="47"/>
      <point x="349" y="47" type="curve"/>
      <point x="349" y="0"/>
      <point x="349" y="47"/>
    </contour>
    <contour>
      <point x="119" y="0" type="curve"/>
      <point x="152" y="0"/>
      <point x="113" y="0"/>
      <point x="212" y="0" type="curve"/>
      <point x="212" y="47"/>
      <point x="212" y="0"/>
      <point x="212" y="47" type="curve"/>
      <point x="113" y="47"/>
      <point x="218" y="47"/>
      <point x="119" y="47" type="curve"/>
      <point x="119" y="0"/>
      <point x="119" y="47"/>
    </contour>
    <contour>
      <point x="119" y="800" type="curve"/>
      <point x="80" y="800"/>
      <point x="46" y="800"/>
      <point x="7" y="800" type="curve"/>
      <point x="7" y="753"/>
      <point x="7" y="800"/>
      <point x="7" y="753" type="curve"/>
      <point x="125" y="753"/>
      <point x="1" y="753"/>
      <point x="119" y="753" type="curve"/>
      <point x="119" y="800"/>
      <point x="119" y="753"/>
    </contour>
    <contour>
      <point x="119" y="47" type="curve"/>
      <point x="1" y="47"/>
      <point x="125" y="47"/>
      <point x="7" y="47" type="curve"/>
      <point x="7" y="0"/>
      <point x="7" y="47"/>
      <point x="7" y="0" type="curve"/>
      <point x="46" y="0"/>
      <point x="80" y="0"/>
      <point x="119" y="0" type="curve"/>
      <point x="119" y="47"/>
      <point x="119" y="0"/>
    </contour>
    <contour>
      <point x="134" y="340" type="curve"/>
      <point x="144" y="404"/>
      <point x="182" y="490"/>
      <point x="247" y="490" type="curve"/>
      <point x="319" y="490"/>
      <point x="322" y="417"/>
      <point x="322" y="333" type="curve"/>
      <point x="322" y="222"/>
      <point x="322" y="111"/>
      <point x="322" y="0" type="curve"/>
      <point x="379" y="0"/>
      <point x="322" y="0"/>
      <point x="379" y="0" type="curve"/>
      <point x="379" y="112"/>
      <point x="379" y="224"/>
      <point x="379" y="337" type="curve"/>
      <point x="379" y="448"/>
      <point x="360" y="536"/>
      <point x="261" y="536" type="curve"/>
      <point x="181" y="536"/>
      <point x="126" y="450"/>
      <point x="117" y="368" type="curve"/>
      <point x="137" y="342"/>
      <point x="115" y="365"/>
    </contour>
    <contour>
      <point x="147" y="0" type="curve"/>
      <point x="147" y="267"/>
      <point x="147" y="533"/>
      <point x="147" y="800" type="curve"/>
      <point x="90" y="800"/>
      <point x="147" y="800"/>
      <point x="90" y="800" type="curve"/>
      <point x="90" y="533"/>
      <point x="90" y="267"/>
      <point x="90" y="0" type="curve"/>
      <point x="147" y="0"/>
      <point x="90" y="0"/>
    </contour>
  </outline>
</glyph>
<glyph name="i" format="1">
  <advance width="261"/>
  <unicode hex="0069"/>
  <outline>
    <contour>
      <point x="141" y="654" type="move" name="top"/>
    </contour>
    <contour>
      <point x="170" y="1" type="move" name="bottom"/>
    </contour>
    <contour>
      <point x="143" y="47" type="curve"/>
      <point x="25" y="47"/>
      <point x="150" y="47"/>
      <point x="32" y="47" type="curve"/>
      <point x="31" y="0"/>
      <point x="32" y="47"/>
      <point x="31" y="0" type="curve"/>
      <point x="70" y="0"/>
      <point x="105" y="0"/>
      <point x="143" y="0" type="curve"/>
      <point x="143" y="47"/>
      <point x="143" y="0"/>
    </contour>
    <contour>
      <point x="143" y="0" type="curve"/>
      <point x="180" y="0"/>
      <point x="211" y="0"/>
      <point x="249" y="0" type="curve"/>
      <point x="249" y="47"/>
      <point x="249" y="0"/>
      <point x="249" y="47" type="curve"/>
      <point x="137" y="47"/>
      <point x="255" y="47"/>
      <point x="143" y="47" type="curve"/>
      <point x="143" y="0"/>
      <point x="143" y="47"/>
    </contour>
    <contour>
      <point x="143" y="533" type="curve"/>
      <point x="105" y="533"/>
      <point x="70" y="533"/>
      <point x="32" y="533" type="curve"/>
      <point x="31" y="486"/>
      <point x="32" y="533"/>
      <point x="31" y="486" type="curve"/>
      <point x="150" y="486"/>
      <point x="25" y="486"/>
      <point x="143" y="486" type="curve"/>
      <point x="143" y="533"/>
      <point x="143" y="486"/>
    </contour>
    <contour>
      <point x="173" y="0" type="curve"/>
      <point x="173" y="178"/>
      <point x="173" y="355"/>
      <point x="173" y="533" type="curve"/>
      <point x="113" y="533"/>
      <point x="173" y="533"/>
      <point x="113" y="533" type="curve"/>
      <point x="113" y="355"/>
      <point x="113" y="178"/>
      <point x="113" y="0" type="curve"/>
      <point x="173" y="0"/>
      <point x="113" y="0"/>
    </contour>
    <contour>
      <point x="174" y="683" type="curve"/>
      <point x="174" y="704"/>
      <point x="160" y="715"/>
      <point x="140" y="715" type="curve"/>
      <point x="120" y="715"/>
      <point x="108" y="703"/>
      <point x="108" y="683" type="curve"/>
      <point x="176" y="683"/>
      <point x="106" y="683"/>
      <point x="174" y="683" type="curve"/>
      <point x="174" y="661"/>
      <point x="160" y="650"/>
      <point x="140" y="650" type="curve"/>
      <point x="120" y="650"/>
      <point x="108" y="662"/>
      <point x="108" y="683" type="curve"/>
      <point x="176" y="683"/>
      <point x="106" y="683"/>
    </contour>
  </outline>
</glyph>
<glyph name="j" format="1">
  <advance width="231"/>
  <unicode hex="006A"/>
  <outline>
    <contour>
      <point x="113" y="533" type="curve"/>
      <point x="74" y="533"/>
      <point x="41" y="533"/>
      <point x="3" y="533" type="curve"/>
      <point x="3" y="486"/>
      <point x="3" y="533"/>
      <point x="3" y="486" type="curve"/>
      <point x="121" y="486"/>
      <point x="-5" y="486"/>
      <point x="113" y="486" type="curve"/>
      <point x="113" y="533"/>
      <point x="113" y="486"/>
    </contour>
    <contour>
      <point x="0" y="-302" type="curve"/>
      <point x="6" y="-303"/>
      <point x="14" y="-304"/>
      <point x="21" y="-304" type="curve"/>
      <point x="102" y="-304"/>
      <point x="142" y="-224"/>
      <point x="142" y="-136" type="curve"/>
      <point x="142" y="87"/>
      <point x="142" y="310"/>
      <point x="142" y="533" type="curve"/>
      <point x="85" y="533"/>
      <point x="142" y="533"/>
      <point x="85" y="533" type="curve"/>
      <point x="85" y="310"/>
      <point x="85" y="87"/>
      <point x="85" y="-136" type="curve"/>
      <point x="85" y="-190"/>
      <point x="71" y="-255"/>
      <point x="24" y="-255" type="curve"/>
      <point x="19" y="-255"/>
      <point x="14" y="-255"/>
      <point x="9" y="-254" type="curve"/>
      <point x="1" y="-298"/>
      <point x="9" y="-257"/>
    </contour>
    <contour>
      <point x="146" y="681" type="curve"/>
      <point x="146" y="702"/>
      <point x="133" y="713"/>
      <point x="113" y="713" type="curve"/>
      <point x="93" y="713"/>
      <point x="81" y="701"/>
      <point x="81" y="681" type="curve"/>
      <point x="149" y="681"/>
      <point x="79" y="681"/>
      <point x="146" y="681" type="curve"/>
      <point x="146" y="659"/>
      <point x="133" y="649"/>
      <point x="113" y="649" type="curve"/>
      <point x="93" y="649"/>
      <point x="81" y="660"/>
      <point x="81" y="681" type="curve"/>
      <point x="149" y="681"/>
      <point x="79" y="681"/>
    </contour>
  </outline>
</glyph>
<glyph name="m" format="1">
  <advance width="689"/>
  <unicode hex="006D"/>
  <outline>
    <contour>
      <point x="356" y="0" type="curve"/>
      <point x="454" y="0"/>
      <point x="357" y="0"/>
      <point x="455" y="0" type="curve"/>
      <point x="455" y="47"/>
      <point x="455" y="0"/>
      <point x="455" y="47" type="curve"/>
      <point x="357" y="47"/>
      <point x="454" y="47"/>
      <point x="356" y="47" type="curve"/>
      <point x="356" y="0"/>
      <point x="356" y="47"/>
    </contour>
    <contour>
      <point x="563" y="0" type="curve"/>
      <point x="603" y="0"/>
      <point x="636" y="0"/>
      <point x="676" y="0" type="curve"/>
      <point x="676" y="47"/>
      <point x="676" y="0"/>
      <point x="676" y="47" type="curve"/>
      <point x="556" y="47"/>
      <point x="683" y="47"/>
      <point x="563" y="47" type="curve"/>
      <point x="563" y="0"/>
      <point x="563" y="47"/>
    </contour>
    <contour>
      <point x="149" y="47" type="curve"/>
      <point x="30" y="47"/>
      <point x="157" y="47"/>
      <point x="38" y="47" type="curve"/>
      <point x="38" y="0"/>
      <point x="38" y="47"/>
      <point x="38" y="0" type="curve"/>
      <point x="77" y="0"/>
      <point x="110" y="0"/>
      <point x="149" y="0" type="curve"/>
      <point x="149" y="47"/>
      <point x="149" y="0"/>
    </contour>
    <contour>
      <point x="149" y="0" type="curve"/>
      <point x="186" y="0"/>
      <point x="134" y="0"/>
      <point x="241" y="0" type="curve"/>
      <point x="241" y="47"/>
      <point x="241" y="0"/>
      <point x="241" y="47" type="curve"/>
      <point x="134" y="47"/>
      <point x="257" y="47"/>
      <point x="149" y="47" type="curve"/>
      <point x="149" y="0"/>
      <point x="149" y="47"/>
    </contour>
    <contour>
      <point x="149" y="533" type="curve"/>
      <point x="110" y="533"/>
      <point x="77" y="533"/>
      <point x="38" y="533" type="curve"/>
      <point x="38" y="486"/>
      <point x="38" y="533"/>
      <point x="38" y="486" type="curve"/>
      <point x="157" y="486"/>
      <point x="30" y="486"/>
      <point x="149" y="486" type="curve"/>
      <point x="149" y="533"/>
      <point x="149" y="486"/>
    </contour>
    <contour>
      <point x="371" y="331" type="curve"/>
      <point x="388" y="405"/>
      <point x="410" y="491"/>
      <point x="469" y="491" type="curve"/>
      <point x="544" y="491"/>
      <point x="534" y="421"/>
      <point x="534" y="332" type="curve"/>
      <point x="534" y="221"/>
      <point x="534" y="111"/>
      <point x="534" y="0" type="curve"/>
      <point x="590" y="0"/>
      <point x="534" y="0"/>
      <point x="590" y="0" type="curve"/>
      <point x="590" y="112"/>
      <point x="590" y="224"/>
      <point x="590" y="337" type="curve"/>
      <point x="590" y="453"/>
      <point x="590" y="538"/>
      <point x="488" y="538" type="curve"/>
      <point x="405" y="538"/>
      <point x="369" y="452"/>
      <point x="355" y="358" type="curve"/>
      <point x="373" y="332"/>
      <point x="353" y="357"/>
    </contour>
    <contour>
      <point x="166" y="331" type="curve"/>
      <point x="178" y="403"/>
      <point x="201" y="491"/>
      <point x="263" y="491" type="curve"/>
      <point x="338" y="491"/>
      <point x="328" y="421"/>
      <point x="328" y="332" type="curve"/>
      <point x="328" y="221"/>
      <point x="328" y="111"/>
      <point x="328" y="0" type="curve"/>
      <point x="385" y="0"/>
      <point x="328" y="0"/>
      <point x="385" y="0" type="curve"/>
      <point x="385" y="112"/>
      <point x="385" y="224"/>
      <point x="385" y="337" type="curve"/>
      <point x="385" y="453"/>
      <point x="384" y="539"/>
      <point x="282" y="539" type="curve"/>
      <point x="196" y="539"/>
      <point x="163" y="452"/>
      <point x="149" y="357" type="curve"/>
      <point x="167" y="332"/>
      <point x="147" y="357"/>
    </contour>
    <contour>
      <point x="178" y="0" type="curve"/>
      <point x="178" y="178"/>
      <point x="178" y="355"/>
      <point x="178" y="533" type="curve"/>
      <point x="121" y="533"/>
      <point x="178" y="533"/>
      <point x="121" y="533" type="curve"/>
      <point x="121" y="355"/>
      <point x="121" y="178"/>
      <point x="121" y="0" type="curve"/>
      <point x="178" y="0"/>
      <point x="121" y="0"/>
    </contour>
  </outline>
</glyph>
<glyph name="s" format="1">
  <advance width="368"/>
  <unicode hex="0073"/>
  <outline>
    <contour>
      <point x="188" y="654" type="move" name="top"/>
    </contour>
    <contour>
      <point x="203" y="-65" type="move" name="bottom"/>
    </contour>
    <contour>
      <point x="57" y="48" type="curve"/>
      <point x="96" y="16"/>
      <point x="140" y="-5"/>
      <point x="188" y="-5" type="curve"/>
      <point x="272" y="-5"/>
      <point x="313" y="56"/>
      <point x="313" y="139" type="curve"/>
      <point x="312" y="222"/>
      <point x="267" y="266"/>
      <point x="194" y="300" type="curve" smooth="yes"/>
      <point x="147" y="323"/>
      <point x="126" y="358"/>
      <point x="126" y="412" type="curve"/>
      <point x="126" y="453"/>
      <point x="142" y="490"/>
      <point x="181" y="490" type="curve"/>
      <point x="213" y="490"/>
      <point x="237" y="474"/>
      <point x="260" y="451" type="curve"/>
      <point x="280" y="483"/>
      <point x="266" y="461"/>
      <point x="286" y="492" type="curve"/>
      <point x="257" y="520"/>
      <point x="224" y="538"/>
      <point x="183" y="538" type="curve"/>
      <point x="113" y="538"/>
      <point x="74" y="483"/>
      <point x="74" y="412" type="curve"/>
      <point x="74" y="336"/>
      <point x="107" y="287"/>
      <point x="176" y="255" type="curve" smooth="yes"/>
      <point x="226" y="231"/>
      <point x="258" y="197"/>
      <point x="258" y="136" type="curve"/>
      <point x="258" y="87"/>
      <point x="236" y="44"/>
      <point x="193" y="44" type="curve"/>
      <point x="152" y="44"/>
      <point x="117" y="63"/>
      <point x="85" y="89" type="curve"/>
      <point x="57" y="48"/>
      <point x="85" y="90"/>
    </contour>
    <contour>
      <point x="239" y="492" type="curve"/>
      <point x="239" y="368"/>
      <point x="239" y="502"/>
      <point x="239" y="378" type="curve"/>
      <point x="286" y="378"/>
      <point x="239" y="378"/>
      <point x="286" y="378" type="curve"/>
      <point x="286" y="502"/>
      <point x="286" y="368"/>
      <point x="286" y="492" type="curve"/>
      <point x="250" y="492"/>
      <point x="274" y="492"/>
    </contour>
    <contour>
      <point x="105" y="48" type="curve"/>
      <point x="105" y="174"/>
      <point x="105" y="39"/>
      <point x="105" y="164" type="curve"/>
      <point x="57" y="164"/>
      <point x="105" y="164"/>
      <point x="57" y="164" type="curve"/>
      <point x="57" y="39"/>
      <point x="57" y="174"/>
      <point x="57" y="48" type="curve"/>
      <point x="105" y="48"/>
      <point x="57" y="48"/>
    </contour>
  </outline>
</glyph>
<glyph name="t" format="1">
  <advance width="283"/>
  <unicode hex="0074"/>
  <outline>
    <contour>
      <point x="194" y="-64" type="move" name="bottom"/>
    </contour>
    <contour>
      <point x="18" y="486" type="curve"/>
      <point x="263" y="486" type="line"/>
      <point x="263" y="533"/>
      <point x="263" y="486"/>
      <point x="263" y="533" type="curve"/>
      <point x="18" y="533" type="line"/>
      <point x="18" y="486"/>
      <point x="18" y="533"/>
    </contour>
    <contour>
      <point x="237" y="68" type="curve"/>
      <point x="222" y="54"/>
      <point x="209" y="44"/>
      <point x="190" y="44" type="curve"/>
      <point x="144" y="44"/>
      <point x="142" y="94"/>
      <point x="142" y="153" type="curve"/>
      <point x="142" y="681" type="line"/>
      <point x="97" y="653"/>
      <point x="129" y="665"/>
      <point x="85" y="637" type="curve"/>
      <point x="85" y="151" type="line"/>
      <point x="85" y="59"/>
      <point x="104" y="-5"/>
      <point x="182" y="-5" type="curve"/>
      <point x="214" y="-5"/>
      <point x="236" y="5"/>
      <point x="263" y="26" type="curve"/>
      <point x="237" y="68"/>
      <point x="263" y="26"/>
    </contour>
  </outline>
</glyph>
<glyph name="x" format="1">
  <advance width="480"/>
  <unicode hex="0078"/>
  <outline>
    <contour>
      <point x="106" y="47" type="curve"/>
      <point x="10" y="47"/>
      <point x="109" y="47"/>
      <point x="12" y="47" type="curve"/>
      <point x="12" y="0"/>
      <point x="12" y="47"/>
      <point x="12" y="0" type="curve"/>
      <point x="44" y="0"/>
      <point x="74" y="0"/>
      <point x="106" y="0" type="curve"/>
      <point x="106" y="47"/>
      <point x="106" y="0"/>
    </contour>
    <contour>
      <point x="382" y="47" type="curve"/>
      <point x="271" y="47"/>
      <point x="389" y="47"/>
      <point x="279" y="47" type="curve"/>
      <point x="279" y="0"/>
      <point x="279" y="47"/>
      <point x="279" y="0" type="curve"/>
      <point x="315" y="0"/>
      <point x="346" y="0"/>
      <point x="382" y="0" type="curve"/>
      <point x="382" y="47"/>
      <point x="382" y="0"/>
    </contour>
    <contour>
      <point x="375" y="0" type="curve"/>
      <point x="408" y="0"/>
      <point x="441" y="0"/>
      <point x="473" y="0" type="curve"/>
      <point x="473" y="47"/>
      <point x="473" y="0"/>
      <point x="473" y="47" type="curve"/>
      <point x="376" y="47"/>
      <point x="472" y="47"/>
      <point x="375" y="47" type="curve"/>
      <point x="375" y="0"/>
      <point x="375" y="47"/>
    </contour>
    <contour>
      <point x="99" y="0" type="curve"/>
      <point x="136" y="0"/>
      <point x="91" y="0"/>
      <point x="202" y="0" type="curve"/>
      <point x="202" y="47"/>
      <point x="202" y="0"/>
      <point x="202" y="47" type="curve"/>
      <point x="91" y="47"/>
      <point x="210" y="47"/>
      <point x="99" y="47" type="curve"/>
      <point x="99" y="0"/>
      <point x="99" y="47"/>
    </contour>
    <contour>
      <point x="366" y="486" type="curve"/>
      <point x="465" y="486"/>
      <point x="368" y="486"/>
      <point x="468" y="486" type="curve"/>
      <point x="468" y="533"/>
      <point x="468" y="486"/>
      <point x="468" y="533" type="curve"/>
      <point x="434" y="533"/>
      <point x="398" y="533"/>
      <point x="366" y="533" type="curve"/>
      <point x="366" y="486"/>
      <point x="366" y="533"/>
    </contour>
    <contour>
      <point x="129" y="533" type="curve"/>
      <point x="95" y="533"/>
      <point x="61" y="533"/>
      <point x="27" y="533" type="curve"/>
      <point x="27" y="486"/>
      <point x="27" y="533"/>
      <point x="27" y="486" type="curve"/>
      <point x="130" y="486"/>
      <point x="27" y="486"/>
      <point x="129" y="486" type="curve"/>
      <point x="129" y="533"/>
      <point x="129" y="486"/>
    </contour>
    <contour>
      <point x="121" y="486" type="curve"/>
      <point x="226" y="486"/>
      <point x="103" y="486"/>
      <point x="208" y="486" type="curve"/>
      <point x="208" y="533"/>
      <point x="208" y="486"/>
      <point x="208" y="533" type="curve"/>
      <point x="174" y="533"/>
      <point x="156" y="533"/>
      <point x="121" y="533" type="curve"/>
      <point x="121" y="486"/>
      <point x="121" y="533"/>
    </contour>
    <contour>
      <point x="376" y="533" type="curve"/>
      <point x="338" y="533"/>
      <point x="320" y="533"/>
      <point x="283" y="533" type="curve"/>
      <point x="283" y="486"/>
      <point x="283" y="533"/>
      <point x="283" y="486" type="curve"/>
      <point x="394" y="486"/>
      <point x="265" y="486"/>
      <point x="376" y="486" type="curve"/>
      <point x="376" y="533"/>
      <point x="376" y="486"/>
    </contour>
    <contour>
      <point x="409" y="11" type="curve"/>
      <point x="348" y="139"/>
      <point x="200" y="405"/>
      <point x="140" y="533" type="curve"/>
      <point x="101" y="533"/>
      <point x="129" y="519"/>
      <point x="90" y="519" type="curve"/>
      <point x="150" y="392"/>
      <point x="296" y="128"/>
      <point x="356" y="0" type="curve"/>
      <point x="398" y="0"/>
      <point x="367" y="11"/>
    </contour>
    <contour>
      <point x="354" y="533" type="curve"/>
      <point x="292" y="405"/>
      <point x="137" y="142"/>
      <point x="77" y="14" type="curve"/>
      <point x="116" y="14"/>
      <point x="88" y="0"/>
      <point x="127" y="0" type="curve"/>
      <point x="188" y="128"/>
      <point x="344" y="394"/>
      <point x="404" y="522" type="curve"/>
      <point x="365" y="522"/>
      <point x="393" y="533"/>
    </contour>
  </outline>
</glyph>
<glyph name="braceleft" format="1">
  <advance width="226"/>
  <unicode hex="007B"/>
  <outline>
    <contour>
      <point x="181" y="-73" type="curve"/>
      <point x="133" y="-73"/>
      <point x="135" y="-19"/>
      <point x="135" y="37" type="curve"/>
      <point x="135" y="94"/>
      <point x="135" y="151"/>
      <point x="135" y="208" type="curve"/>
      <point x="135" y="292"/>
      <point x="112" y="364"/>
      <point x="37" y="364" type="curve"/>
      <point x="37" y="315"/>
      <point x="37" y="364"/>
      <point x="37" y="315" type="curve"/>
      <point x="81" y="315"/>
      <point x="83" y="265"/>
      <point x="83" y="212" type="curve"/>
      <point x="83" y="155"/>
      <point x="83" y="97"/>
      <point x="83" y="40" type="curve"/>
      <point x="83" y="-48"/>
      <point x="105" y="-119"/>
      <point x="181" y="-119" type="curve"/>
      <point x="181" y="-73"/>
      <point x="181" y="-119"/>
    </contour>
    <contour>
      <point x="181" y="797" type="curve"/>
      <point x="105" y="797"/>
      <point x="83" y="727"/>
      <point x="83" y="640" type="curve"/>
      <point x="83" y="581"/>
      <point x="83" y="523"/>
      <point x="83" y="464" type="curve"/>
      <point x="83" y="411"/>
      <point x="81" y="364"/>
      <point x="37" y="364" type="curve"/>
      <point x="37" y="315"/>
      <point x="37" y="364"/>
      <point x="37" y="315" type="curve"/>
      <point x="112" y="315"/>
      <point x="135" y="385"/>
      <point x="135" y="471" type="curve"/>
      <point x="135" y="527"/>
      <point x="135" y="583"/>
      <point x="135" y="640" type="curve"/>
      <point x="135" y="697"/>
      <point x="132" y="750"/>
      <point x="181" y="750" type="curve"/>
      <point x="181" y="797"/>
      <point x="181" y="750"/>
    </contour>
  </outline>
</glyph>
<glyph name="bar" format="1">
  <advance width="211"/>
  <unicode hex="007C"/>
  <outline>
    <contour>
      <point x="134" y="-300" type="curve"/>
      <point x="134" y="67"/>
      <point x="134" y="433"/>
      <point x="134" y="800" type="curve"/>
      <point x="76" y="800"/>
      <point x="134" y="800"/>
      <point x="76" y="800" type="curve"/>
      <point x="76" y="433"/>
      <point x="76" y="67"/>
      <point x="76" y="-300" type="curve"/>
      <point x="134" y="-300"/>
      <point x="76" y="-300"/>
    </contour>
  </outline>
</glyph>
<glyph name="braceright" format="1">
  <advance width="227"/>
  <unicode hex="007D"/>
  <outline>
    <contour>
      <point x="46" y="-119" type="curve"/>
      <point x="123" y="-119"/>
      <point x="145" y="-48"/>
      <point x="145" y="40" type="curve"/>
      <point x="145" y="97"/>
      <point x="145" y="155"/>
      <point x="145" y="212" type="curve"/>
      <point x="145" y="265"/>
      <point x="145" y="315"/>
      <point x="189" y="315" type="curve"/>
      <point x="189" y="364"/>
      <point x="189" y="315"/>
      <point x="189" y="364" type="curve"/>
      <point x="115" y="364"/>
      <point x="92" y="292"/>
      <point x="92" y="208" type="curve"/>
      <point x="92" y="151"/>
      <point x="92" y="94"/>
      <point x="92" y="37" type="curve"/>
      <point x="92" y="-19"/>
      <point x="94" y="-73"/>
      <point x="46" y="-73" type="curve"/>
      <point x="46" y="-119"/>
      <point x="46" y="-73"/>
    </contour>
    <contour>
      <point x="46" y="750" type="curve"/>
      <point x="95" y="750"/>
      <point x="93" y="697"/>
      <point x="93" y="640" type="curve"/>
      <point x="93" y="583"/>
      <point x="93" y="527"/>
      <point x="93" y="471" type="curve"/>
      <point x="93" y="385"/>
      <point x="115" y="315"/>
      <point x="189" y="315" type="curve"/>
      <point x="189" y="364"/>
      <point x="189" y="315"/>
      <point x="189" y="364" type="curve"/>
      <point x="147" y="364"/>
      <point x="145" y="411"/>
      <point x="145" y="464" type="curve"/>
      <point x="145" y="523"/>
      <point x="145" y="581"/>
      <point x="145" y="640" type="curve"/>
      <point x="145" y="727"/>
      <point x="123" y="797"/>
      <point x="46" y="797" type="curve"/>
      <point x="46" y="750"/>
      <point x="46" y="797"/>
    </contour>
  </outline>
</glyph>
<glyph name="asciitilde" format="1">
  <advance width="502"/>
  <unicode hex="007E"/>
  <outline>
    <contour>
      <point x="379" y="354" type="curve"/>
      <point x="370" y="313"/>
      <point x="365" y="261"/>
      <point x="327" y="261" type="curve"/>
      <point x="300" y="261"/>
      <point x="287" y="278"/>
      <point x="272" y="301" type="curve"/>
      <point x="246" y="336"/>
      <point x="224" y="359"/>
      <point x="182" y="359" type="curve"/>
      <point x="110" y="359"/>
      <point x="90" y="303"/>
      <point x="78" y="229" type="curve"/>
      <point x="106" y="221"/>
      <point x="98" y="222"/>
      <point x="126" y="215" type="curve"/>
      <point x="132" y="261"/>
      <point x="139" y="309"/>
      <point x="180" y="309" type="curve"/>
      <point x="205" y="309"/>
      <point x="217" y="293"/>
      <point x="230" y="272" type="curve"/>
      <point x="259" y="235"/>
      <point x="282" y="212"/>
      <point x="327" y="212" type="curve"/>
      <point x="397" y="212"/>
      <point x="411" y="272"/>
      <point x="426" y="342" type="curve"/>
      <point x="398" y="349"/>
      <point x="406" y="348"/>
    </contour>
  </outline>
</glyph>
<glyph name="exclamdown" format="1">
  <advance width="225"/>
  <unicode hex="00A1"/>
  <outline>
    <contour>
      <point x="84" y="295" type="line"/>
      <point x="78" y="-198" type="line"/>
      <point x="147" y="-199" type="line"/>
      <point x="143" y="294" type="line"/>
    </contour>
    <contour>
      <point x="80" y="497" type="curve"/>
      <point x="80" y="476"/>
      <point x="94" y="465"/>
      <point x="113" y="465" type="curve"/>
      <point x="133" y="465"/>
      <point x="145" y="477"/>
      <point x="145" y="497" type="curve"/>
      <point x="78" y="497"/>
      <point x="148" y="497"/>
      <point x="80" y="497" type="curve"/>
      <point x="80" y="519"/>
      <point x="94" y="529"/>
      <point x="114" y="528" type="curve"/>
      <point x="134" y="528"/>
      <point x="146" y="518"/>
      <point x="145" y="497" type="curve"/>
      <point x="78" y="497"/>
      <point x="148" y="497"/>
    </contour>
  </outline>
</glyph>
<glyph name="sterling" format="1">
  <advance width="363"/>
  <unicode hex="00A3"/>
  <outline>
    <contour>
      <point x="298" y="47" type="curve"/>
      <point x="212" y="47"/>
      <point x="129" y="47"/>
      <point x="45" y="47" type="curve"/>
      <point x="45" y="0"/>
      <point x="45" y="47"/>
      <point x="45" y="0" type="curve"/>
      <point x="129" y="0"/>
      <point x="215" y="0"/>
      <point x="298" y="0" type="curve"/>
      <point x="298" y="47"/>
      <point x="298" y="0"/>
    </contour>
    <contour>
      <point x="266" y="400" type="curve"/>
      <point x="199" y="400"/>
      <point x="130" y="400"/>
      <point x="64" y="400" type="curve"/>
      <point x="64" y="353"/>
      <point x="64" y="400"/>
      <point x="64" y="353" type="curve"/>
      <point x="130" y="353"/>
      <point x="199" y="353"/>
      <point x="266" y="353" type="curve"/>
      <point x="266" y="400"/>
      <point x="266" y="353"/>
    </contour>
    <contour>
      <point x="313" y="672" type="curve"/>
      <point x="285" y="708"/>
      <point x="259" y="725"/>
      <point x="220" y="725" type="curve"/>
      <point x="74" y="725"/>
      <point x="85" y="559"/>
      <point x="110" y="371" type="curve"/>
      <point x="131" y="205"/>
      <point x="163" y="47"/>
      <point x="45" y="47" type="curve"/>
      <point x="45" y="0"/>
      <point x="45" y="47"/>
      <point x="45" y="0" type="curve"/>
      <point x="209" y="0"/>
      <point x="187" y="181"/>
      <point x="161" y="381" type="curve"/>
      <point x="143" y="533"/>
      <point x="118" y="678"/>
      <point x="217" y="678" type="curve"/>
      <point x="247" y="678"/>
      <point x="264" y="660"/>
      <point x="282" y="640" type="curve"/>
      <point x="313" y="672"/>
      <point x="282" y="640"/>
    </contour>
  </outline>
</glyph>
<glyph name="currency" format="1">
  <advance width="533"/>
  <unicode hex="00A4"/>
  <outline>
    <contour>
      <point x="201" y="312" type="curve"/>
      <point x="201" y="379"/>
      <point x="209" y="442"/>
      <point x="266" y="442" type="curve"/>
      <point x="323" y="442"/>
      <point x="330" y="381"/>
      <point x="330" y="312" type="curve"/>
      <point x="330" y="242"/>
      <point x="326" y="176"/>
      <point x="267" y="176" type="curve"/>
      <point x="208" y="176"/>
      <point x="201" y="241"/>
      <point x="201" y="312" type="curve"/>
      <point x="144" y="312"/>
      <point x="203" y="312"/>
      <point x="146" y="312" type="curve"/>
      <point x="146" y="211"/>
      <point x="178" y="130"/>
      <point x="267" y="130" type="curve"/>
      <point x="357" y="130"/>
      <point x="386" y="214"/>
      <point x="386" y="314" type="curve"/>
      <point x="386" y="409"/>
      <point x="355" y="488"/>
      <point x="271" y="488" type="curve"/>
      <point x="181" y="488"/>
      <point x="146" y="410"/>
      <point x="146" y="312" type="curve"/>
      <point x="203" y="312"/>
      <point x="144" y="312"/>
    </contour>
    <contour>
      <point x="327" y="409" type="line"/>
      <point x="469" y="544" type="line"/>
      <point x="427" y="587" type="line"/>
      <point x="292" y="445" type="line"/>
    </contour>
    <contour>
      <point x="296" y="181" type="line"/>
      <point x="431" y="39" type="line"/>
      <point x="473" y="81" type="line"/>
      <point x="332" y="216" type="line"/>
    </contour>
    <contour>
      <point x="201" y="217" type="line"/>
      <point x="60" y="81" type="line"/>
      <point x="102" y="39" type="line"/>
      <point x="237" y="181" type="line"/>
    </contour>
    <contour>
      <point x="243" y="446" type="line"/>
      <point x="108" y="588" type="line"/>
      <point x="65" y="545" type="line"/>
      <point x="207" y="410" type="line"/>
    </contour>
  </outline>
</glyph>
<glyph name="yen" format="1">
  <advance width="555"/>
  <unicode hex="00A5"/>
  <outline>
    <contour>
      <point x="416" y="383" type="curve"/>
      <point x="371" y="383"/>
      <point x="327" y="383"/>
      <point x="284" y="383" type="curve"/>
      <point x="284" y="332"/>
      <point x="284" y="383"/>
      <point x="284" y="332" type="curve"/>
      <point x="327" y="332"/>
      <point x="371" y="332"/>
      <point x="416" y="332" type="curve"/>
      <point x="416" y="383"/>
      <point x="416" y="332"/>
    </contour>
    <contour>
      <point x="266" y="383" type="curve"/>
      <point x="223" y="383"/>
      <point x="180" y="383"/>
      <point x="138" y="383" type="curve"/>
      <point x="138" y="332"/>
      <point x="138" y="383"/>
      <point x="138" y="332" type="curve"/>
      <point x="180" y="332"/>
      <point x="223" y="332"/>
      <point x="266" y="332" type="curve"/>
      <point x="266" y="383"/>
      <point x="266" y="332"/>
    </contour>
    <contour>
      <point x="416" y="259" type="curve"/>
      <point x="322" y="259"/>
      <point x="230" y="259"/>
      <point x="138" y="259" type="curve"/>
      <point x="138" y="207"/>
      <point x="138" y="259"/>
      <point x="138" y="207" type="curve"/>
      <point x="230" y="207"/>
      <point x="322" y="207"/>
      <point x="416" y="207" type="curve"/>
      <point x="416" y="259"/>
      <point x="416" y="207"/>
    </contour>
    <contour>
      <point x="272" y="47" type="curve"/>
      <point x="156" y="47"/>
      <point x="279" y="47"/>
      <point x="163" y="47" type="curve"/>
      <point x="163" y="0"/>
      <point x="163" y="47"/>
      <point x="163" y="0" type="curve"/>
      <point x="201" y="0"/>
      <point x="234" y="0"/>
      <point x="272" y="0" type="curve"/>
      <point x="272" y="47"/>
      <point x="272" y="0"/>
    </contour>
    <contour>
      <point x="272" y="0" type="curve"/>
      <point x="310" y="0"/>
      <point x="342" y="0"/>
      <point x="381" y="0" type="curve"/>
      <point x="381" y="47"/>
      <point x="381" y="0"/>
      <point x="381" y="47" type="curve"/>
      <point x="265" y="47"/>
      <point x="388" y="47"/>
      <point x="272" y="47" type="curve"/>
      <point x="272" y="0"/>
      <point x="272" y="47"/>
    </contour>
    <contour>
      <point x="415" y="722" type="curve"/>
      <point x="378" y="722"/>
      <point x="346" y="722"/>
      <point x="309" y="722" type="curve"/>
      <point x="309" y="675"/>
      <point x="309" y="722"/>
      <point x="309" y="675" type="curve"/>
      <point x="422" y="675"/>
      <point x="302" y="675"/>
      <point x="415" y="675" type="curve"/>
      <point x="415" y="722"/>
      <point x="415" y="675"/>
    </contour>
    <contour>
      <point x="131" y="722" type="curve"/>
      <point x="97" y="722"/>
      <point x="69" y="722"/>
      <point x="34" y="722" type="curve"/>
      <point x="34" y="675"/>
      <point x="34" y="722"/>
      <point x="34" y="675" type="curve"/>
      <point x="138" y="675"/>
      <point x="26" y="675"/>
      <point x="131" y="675" type="curve"/>
      <point x="131" y="722"/>
      <point x="131" y="675"/>
    </contour>
    <contour>
      <point x="138" y="675" type="curve"/>
      <point x="250" y="675"/>
      <point x="130" y="675"/>
      <point x="243" y="675" type="curve"/>
      <point x="243" y="722"/>
      <point x="243" y="675"/>
      <point x="243" y="722" type="curve"/>
      <point x="206" y="722"/>
      <point x="175" y="722"/>
      <point x="138" y="722" type="curve"/>
      <point x="138" y="675"/>
      <point x="138" y="722"/>
    </contour>
    <contour>
      <point x="421" y="675" type="curve"/>
      <point x="528" y="675"/>
      <point x="413" y="675"/>
      <point x="521" y="675" type="curve"/>
      <point x="521" y="722"/>
      <point x="521" y="675"/>
      <point x="521" y="722" type="curve"/>
      <point x="486" y="722"/>
      <point x="457" y="722"/>
      <point x="421" y="722" type="curve"/>
      <point x="421" y="675"/>
      <point x="421" y="722"/>
    </contour>
    <contour>
      <point x="95" y="724" type="curve"/>
      <point x="144" y="595"/>
      <point x="192" y="467"/>
      <point x="241" y="337" type="curve"/>
      <point x="300" y="337"/>
      <point x="234" y="337"/>
      <point x="292" y="337" type="curve"/>
      <point x="247" y="467"/>
      <point x="202" y="593"/>
      <point x="156" y="722" type="curve"/>
      <point x="95" y="722"/>
      <point x="156" y="724"/>
    </contour>
    <contour>
      <point x="396" y="722" type="curve"/>
      <point x="347" y="592"/>
      <point x="299" y="466"/>
      <point x="248" y="337" type="curve"/>
      <point x="307" y="337"/>
      <point x="244" y="337"/>
      <point x="303" y="337" type="curve"/>
      <point x="355" y="466"/>
      <point x="405" y="595"/>
      <point x="457" y="724" type="curve"/>
      <point x="396" y="724"/>
      <point x="457" y="722"/>
    </contour>
    <contour>
      <point x="303" y="0" type="curve"/>
      <point x="303" y="115"/>
      <point x="303" y="229"/>
      <point x="303" y="345" type="curve"/>
      <point x="241" y="345"/>
      <point x="303" y="345"/>
      <point x="241" y="345" type="curve"/>
      <point x="241" y="229"/>
      <point x="241" y="115"/>
      <point x="241" y="0" type="curve"/>
      <point x="303" y="0"/>
      <point x="241" y="0"/>
    </contour>
  </outline>
</glyph>
<glyph name="section" format="1">
  <advance width="379"/>
  <unicode hex="00A7"/>
  <outline>
    <contour>
      <point x="292" y="706" type="curve"/>
      <point x="259" y="735"/>
      <point x="234" y="751"/>
      <point x="193" y="751" type="curve"/>
      <point x="119" y="751"/>
      <point x="83" y="693"/>
      <point x="83" y="618" type="curve"/>
      <point x="83" y="550"/>
      <point x="109" y="500"/>
      <point x="170" y="469" type="curve"/>
      <point x="221" y="441"/>
      <point x="265" y="417"/>
      <point x="265" y="361" type="curve"/>
      <point x="265" y="304"/>
      <point x="248" y="259"/>
      <point x="196" y="243" type="curve"/>
      <point x="230" y="206"/>
      <point x="196" y="243"/>
      <point x="230" y="206" type="curve"/>
      <point x="298" y="230"/>
      <point x="322" y="287"/>
      <point x="322" y="361" type="curve"/>
      <point x="321" y="437"/>
      <point x="269" y="478"/>
      <point x="198" y="512" type="curve"/>
      <point x="157" y="534"/>
      <point x="137" y="570"/>
      <point x="137" y="618" type="curve"/>
      <point x="137" y="662"/>
      <point x="149" y="704"/>
      <point x="192" y="704" type="curve"/>
      <point x="224" y="704"/>
      <point x="242" y="689"/>
      <point x="263" y="670" type="curve"/>
      <point x="292" y="706"/>
      <point x="263" y="670"/>
    </contour>
    <contour>
      <point x="150" y="517" type="curve"/>
      <point x="87" y="488"/>
      <point x="61" y="437"/>
      <point x="61" y="367" type="curve"/>
      <point x="61" y="292"/>
      <point x="104" y="246"/>
      <point x="173" y="213" type="curve"/>
      <point x="217" y="189"/>
      <point x="248" y="161"/>
      <point x="248" y="110" type="curve"/>
      <point x="248" y="60"/>
      <point x="233" y="18"/>
      <point x="191" y="18" type="curve"/>
      <point x="153" y="18"/>
      <point x="133" y="37"/>
      <point x="109" y="66" type="curve"/>
      <point x="75" y="33"/>
      <point x="109" y="66"/>
      <point x="75" y="33" type="curve"/>
      <point x="109" y="-8"/>
      <point x="141" y="-29"/>
      <point x="190" y="-29" type="curve"/>
      <point x="264" y="-29"/>
      <point x="304" y="29"/>
      <point x="304" y="109" type="curve"/>
      <point x="303" y="178"/>
      <point x="271" y="226"/>
      <point x="209" y="256" type="curve"/>
      <point x="158" y="284"/>
      <point x="119" y="311"/>
      <point x="119" y="366" type="curve"/>
      <point x="119" y="418"/>
      <point x="133" y="460"/>
      <point x="179" y="482" type="curve"/>
      <point x="150" y="517"/>
      <point x="179" y="482"/>
    </contour>
    <contour>
      <point x="122" y="33" type="curve"/>
      <point x="122" y="153"/>
      <point x="122" y="31"/>
      <point x="122" y="151" type="curve"/>
      <point x="75" y="151"/>
      <point x="122" y="151"/>
      <point x="75" y="151" type="curve"/>
      <point x="75" y="31"/>
      <point x="75" y="153"/>
      <point x="75" y="33" type="curve"/>
      <point x="122" y="33"/>
      <point x="75" y="33"/>
    </contour>
    <contour>
      <point x="292" y="588" type="curve"/>
      <point x="292" y="708"/>
      <point x="292" y="586"/>
      <point x="292" y="706" type="curve"/>
      <point x="245" y="706"/>
      <point x="292" y="706"/>
      <point x="245" y="706" type="curve"/>
      <point x="245" y="586"/>
      <point x="245" y="708"/>
      <point x="245" y="588" type="curve"/>
      <point x="292" y="588"/>
      <point x="245" y="588"/>
    </contour>
  </outline>
</glyph>
<glyph name="dieresis" format="1">
  <advance width="326"/>
  <unicode hex="00A8"/>
  <outline>
    <contour>
      <point x="129" y="646" type="move" name="_top"/>
    </contour>
    <contour>
      <point x="109" y="674" type="curve"/>
      <point x="109" y="695"/>
      <point x="95" y="706"/>
      <point x="75" y="706" type="curve"/>
      <point x="55" y="706"/>
      <point x="44" y="694"/>
      <point x="44" y="674" type="curve"/>
      <point x="111" y="674"/>
      <point x="41" y="674"/>
      <point x="109" y="674" type="curve"/>
      <point x="109" y="652"/>
      <point x="96" y="642"/>
      <point x="75" y="642" type="curve"/>
      <point x="55" y="642"/>
      <point x="44" y="653"/>
      <point x="44" y="674" type="curve"/>
      <point x="111" y="674"/>
      <point x="41" y="674"/>
    </contour>
    <contour>
      <point x="215" y="674" type="curve"/>
      <point x="215" y="695"/>
      <point x="202" y="706"/>
      <point x="182" y="706" type="curve"/>
      <point x="163" y="706"/>
      <point x="150" y="694"/>
      <point x="150" y="674" type="curve"/>
      <point x="218" y="674"/>
      <point x="148" y="674"/>
      <point x="215" y="674" type="curve"/>
      <point x="215" y="652"/>
      <point x="203" y="642"/>
      <point x="182" y="642" type="curve"/>
      <point x="163" y="642"/>
      <point x="150" y="653"/>
      <point x="150" y="674" type="curve"/>
      <point x="218" y="674"/>
      <point x="148" y="674"/>
    </contour>
  </outline>
</glyph>
<glyph name="copyright" format="1">
  <advance width="544"/>
  <unicode hex="00A9"/>
  <outline>
    <contour>
      <point x="109" y="320" type="curve"/>
      <point x="109" y="469"/>
      <point x="148" y="606"/>
      <point x="275" y="606" type="curve"/>
      <point x="400" y="606"/>
      <point x="438" y="467"/>
      <point x="438" y="319" type="curve"/>
      <point x="438" y="175"/>
      <point x="402" y="39"/>
      <point x="279" y="39" type="curve"/>
      <point x="155" y="39"/>
      <point x="109" y="173"/>
      <point x="109" y="320" type="curve"/>
      <point x="59" y="320"/>
      <point x="110" y="320"/>
      <point x="60" y="320" type="curve"/>
      <point x="60" y="149"/>
      <point x="126" y="-2"/>
      <point x="277" y="-2" type="curve"/>
      <point x="427" y="-2"/>
      <point x="485" y="150"/>
      <point x="485" y="321" type="curve"/>
      <point x="485" y="493"/>
      <point x="425" y="646"/>
      <point x="275" y="646" type="curve"/>
      <point x="123" y="646"/>
      <point x="60" y="493"/>
      <point x="60" y="320" type="curve"/>
      <point x="110" y="320"/>
      <point x="59" y="320"/>
    </contour>
    <contour>
      <point x="320" y="442" type="curve"/>
      <point x="320" y="423"/>
      <point x="320" y="398"/>
      <point x="320" y="377" type="curve"/>
      <point x="365" y="377"/>
      <point x="320" y="377"/>
      <point x="365" y="377" type="curve"/>
      <point x="365" y="406"/>
      <point x="365" y="437"/>
      <point x="365" y="463" type="curve"/>
      <point x="320" y="442"/>
      <point x="365" y="463"/>
    </contour>
    <contour>
      <point x="364" y="463" type="curve"/>
      <point x="340" y="490"/>
      <point x="315" y="501"/>
      <point x="279" y="501" type="curve"/>
      <point x="192" y="501"/>
      <point x="163" y="419"/>
      <point x="163" y="320" type="curve"/>
      <point x="163" y="223"/>
      <point x="186" y="144"/>
      <point x="270" y="144" type="curve"/>
      <point x="312" y="144"/>
      <point x="341" y="157"/>
      <point x="367" y="198" type="curve"/>
      <point x="335" y="221"/>
      <point x="367" y="198"/>
      <point x="335" y="221" type="curve"/>
      <point x="320" y="199"/>
      <point x="302" y="184"/>
      <point x="272" y="184" type="curve"/>
      <point x="214" y="184"/>
      <point x="209" y="251"/>
      <point x="209" y="322" type="curve"/>
      <point x="209" y="394"/>
      <point x="217" y="460"/>
      <point x="277" y="460" type="curve"/>
      <point x="297" y="460"/>
      <point x="308" y="454"/>
      <point x="320" y="442" type="curve"/>
      <point x="364" y="463"/>
      <point x="320" y="442"/>
    </contour>
  </outline>
</glyph>
<glyph name="ordfeminine" format="1">
  <advance width="346"/>
  <unicode hex="00AA"/>
  <outline>
    <contour>
      <point x="81" y="719" type="curve"/>
      <point x="81" y="685"/>
      <point x="81" y="697"/>
      <point x="81" y="663" type="curve"/>
      <point x="107" y="663"/>
      <point x="91" y="663"/>
      <point x="117" y="663" type="curve"/>
      <point x="117" y="697"/>
      <point x="117" y="685"/>
      <point x="117" y="719" type="curve"/>
      <point x="91" y="719"/>
      <point x="107" y="719"/>
    </contour>
    <contour>
      <point x="250" y="429" type="curve"/>
      <point x="250" y="517"/>
      <point x="250" y="587"/>
      <point x="250" y="676" type="curve"/>
      <point x="250" y="731"/>
      <point x="218" y="766"/>
      <point x="166" y="766" type="curve"/>
      <point x="126" y="766"/>
      <point x="105" y="747"/>
      <point x="81" y="719" type="curve"/>
      <point x="95" y="698"/>
      <point x="88" y="711"/>
      <point x="102" y="689" type="curve"/>
      <point x="116" y="709"/>
      <point x="130" y="730"/>
      <point x="160" y="730" type="curve"/>
      <point x="192" y="730"/>
      <point x="207" y="703"/>
      <point x="207" y="668" type="curve"/>
      <point x="207" y="581"/>
      <point x="207" y="515"/>
      <point x="207" y="429" type="curve"/>
      <point x="239" y="429"/>
      <point x="218" y="429"/>
    </contour>
    <contour>
      <point x="229" y="429" type="curve"/>
      <point x="247" y="429"/>
      <point x="260" y="429"/>
      <point x="278" y="429" type="curve"/>
      <point x="278" y="455"/>
      <point x="278" y="439"/>
      <point x="278" y="465" type="curve"/>
      <point x="246" y="465"/>
      <point x="262" y="465"/>
      <point x="229" y="465" type="curve"/>
      <point x="229" y="439"/>
      <point x="229" y="455"/>
    </contour>
    <contour>
      <point x="227" y="636" type="curve"/>
      <point x="200" y="631"/>
      <point x="182" y="628"/>
      <point x="154" y="622" type="curve"/>
      <point x="101" y="611"/>
      <point x="67" y="579"/>
      <point x="67" y="523" type="curve"/>
      <point x="67" y="468"/>
      <point x="94" y="428"/>
      <point x="148" y="428" type="curve"/>
      <point x="198" y="428"/>
      <point x="216" y="469"/>
      <point x="239" y="511" type="curve"/>
      <point x="223" y="524"/>
      <point x="234" y="516"/>
      <point x="217" y="530" type="curve"/>
      <point x="203" y="495"/>
      <point x="194" y="464"/>
      <point x="158" y="464" type="curve"/>
      <point x="124" y="464"/>
      <point x="109" y="491"/>
      <point x="109" y="526" type="curve"/>
      <point x="109" y="559"/>
      <point x="127" y="584"/>
      <point x="155" y="590" type="curve"/>
      <point x="183" y="596"/>
      <point x="201" y="600"/>
      <point x="229" y="606" type="curve"/>
      <point x="228" y="628"/>
      <point x="228" y="615"/>
    </contour>
  </outline>
</glyph>
<glyph name="guillemotleft" format="1">
  <advance width="454"/>
  <unicode hex="00AB"/>
  <outline>
    <contour>
      <point x="223" y="425" type="curve"/>
      <point x="213" y="416"/>
      <point x="75" y="318"/>
      <point x="64" y="308" type="curve"/>
      <point x="64" y="257"/>
      <point x="64" y="302"/>
      <point x="64" y="250" type="curve"/>
      <point x="75" y="260"/>
      <point x="213" y="361"/>
      <point x="223" y="371" type="curve"/>
      <point x="223" y="422"/>
      <point x="223" y="374"/>
    </contour>
    <contour>
      <point x="224" y="188" type="curve"/>
      <point x="214" y="198"/>
      <point x="75" y="298"/>
      <point x="64" y="308" type="curve"/>
      <point x="64" y="257"/>
      <point x="64" y="302"/>
      <point x="64" y="250" type="curve"/>
      <point x="75" y="240"/>
      <point x="214" y="144"/>
      <point x="224" y="134" type="curve"/>
      <point x="224" y="185"/>
      <point x="224" y="137"/>
    </contour>
    <contour>
      <point x="368" y="425" type="curve"/>
      <point x="357" y="416"/>
      <point x="220" y="318"/>
      <point x="209" y="308" type="curve"/>
      <point x="209" y="257"/>
      <point x="209" y="302"/>
      <point x="209" y="250" type="curve"/>
      <point x="220" y="260"/>
      <point x="357" y="361"/>
      <point x="368" y="371" type="curve"/>
      <point x="368" y="422"/>
      <point x="368" y="374"/>
    </contour>
    <contour>
      <point x="369" y="188" type="curve"/>
      <point x="358" y="198"/>
      <point x="220" y="298"/>
      <point x="209" y="308" type="curve"/>
      <point x="209" y="257"/>
      <point x="209" y="302"/>
      <point x="209" y="250" type="curve"/>
      <point x="220" y="240"/>
      <point x="358" y="144"/>
      <point x="369" y="134" type="curve"/>
      <point x="369" y="185"/>
      <point x="369" y="137"/>
    </contour>
  </outline>
</glyph>
<glyph name="logicalnot" format="1">
  <advance width="562"/>
  <unicode hex="00AC"/>
  <outline>
    <contour>
      <point x="96" y="285" type="curve"/>
      <point x="482" y="285" type="line"/>
      <point x="482" y="337"/>
      <point x="482" y="285"/>
      <point x="482" y="337" type="curve"/>
      <point x="96" y="337" type="line"/>
      <point x="96" y="285"/>
      <point x="96" y="337"/>
    </contour>
    <contour>
      <point x="482" y="149" type="curve"/>
      <point x="482" y="337" type="line"/>
      <point x="425" y="337"/>
      <point x="482" y="337"/>
      <point x="425" y="337" type="curve"/>
      <point x="425" y="149" type="line"/>
      <point x="482" y="149"/>
      <point x="425" y="149"/>
    </contour>
  </outline>
</glyph>
<glyph name="registered" format="1">
  <advance width="551"/>
  <unicode hex="00AE"/>
  <outline>
    <contour>
      <point x="104" y="320" type="curve"/>
      <point x="104" y="472"/>
      <point x="147" y="608"/>
      <point x="278" y="608" type="curve"/>
      <point x="408" y="608"/>
      <point x="449" y="471"/>
      <point x="449" y="319" type="curve"/>
      <point x="449" y="170"/>
      <point x="410" y="35"/>
      <point x="283" y="35" type="curve"/>
      <point x="152" y="35"/>
      <point x="104" y="168"/>
      <point x="104" y="320" type="curve"/>
      <point x="77" y="320"/>
      <point x="88" y="320"/>
      <point x="60" y="320" type="curve"/>
      <point x="60" y="146"/>
      <point x="126" y="-2"/>
      <point x="280" y="-2" type="curve"/>
      <point x="434" y="-2"/>
      <point x="492" y="147"/>
      <point x="492" y="320" type="curve"/>
      <point x="492" y="495"/>
      <point x="432" y="645"/>
      <point x="278" y="645" type="curve"/>
      <point x="123" y="645"/>
      <point x="60" y="495"/>
      <point x="60" y="320" type="curve"/>
      <point x="88" y="320"/>
      <point x="77" y="320"/>
    </contour>
    <contour>
      <point x="334" y="147" type="curve"/>
      <point x="354" y="147"/>
      <point x="366" y="147"/>
      <point x="386" y="147" type="curve"/>
      <point x="386" y="186"/>
      <point x="386" y="147"/>
      <point x="386" y="186" type="curve"/>
      <point x="378" y="186"/>
      <point x="370" y="186"/>
      <point x="362" y="186" type="curve"/>
      <point x="339" y="184"/>
      <point x="343" y="195"/>
    </contour>
    <contour>
      <point x="256" y="496" type="curve"/>
      <point x="229" y="496"/>
      <point x="203" y="496"/>
      <point x="177" y="496" type="curve"/>
      <point x="177" y="455"/>
      <point x="177" y="496"/>
      <point x="177" y="455" type="curve"/>
      <point x="187" y="455"/>
      <point x="197" y="455"/>
      <point x="206" y="455" type="curve"/>
      <point x="256" y="496"/>
      <point x="206" y="455"/>
    </contour>
    <contour>
      <point x="256" y="186" type="curve"/>
      <point x="229" y="186"/>
      <point x="203" y="186"/>
      <point x="177" y="186" type="curve"/>
      <point x="177" y="147"/>
      <point x="177" y="186"/>
      <point x="177" y="147" type="curve"/>
      <point x="187" y="147"/>
      <point x="197" y="147"/>
      <point x="206" y="147" type="curve"/>
      <point x="256" y="186"/>
      <point x="206" y="147"/>
    </contour>
    <contour>
      <point x="206" y="147" type="curve"/>
      <point x="231" y="147"/>
      <point x="254" y="147"/>
      <point x="278" y="147" type="curve"/>
      <point x="278" y="186"/>
      <point x="278" y="147"/>
      <point x="278" y="186" type="curve"/>
      <point x="270" y="186"/>
      <point x="263" y="186"/>
      <point x="256" y="186" type="curve"/>
      <point x="206" y="147"/>
      <point x="256" y="186"/>
    </contour>
    <contour>
      <point x="270" y="313" type="curve"/>
      <point x="281" y="276"/>
      <point x="322" y="182"/>
      <point x="334" y="147" type="curve"/>
      <point x="364" y="168"/>
      <point x="351" y="157"/>
      <point x="362" y="186" type="curve"/>
      <point x="315" y="311" type="line"/>
      <point x="258" y="310"/>
      <point x="327" y="313"/>
    </contour>
    <contour>
      <point x="252" y="186" type="curve"/>
      <point x="252" y="289"/>
      <point x="252" y="393"/>
      <point x="252" y="496" type="curve"/>
      <point x="202" y="455"/>
      <point x="256" y="496"/>
      <point x="206" y="455" type="curve"/>
      <point x="206" y="352"/>
      <point x="206" y="249"/>
      <point x="206" y="147" type="curve"/>
      <point x="256" y="186"/>
      <point x="202" y="147"/>
    </contour>
    <contour>
      <point x="232" y="288" type="curve"/>
      <point x="244" y="288"/>
      <point x="257" y="288"/>
      <point x="268" y="288" type="curve"/>
      <point x="329" y="288"/>
      <point x="359" y="327"/>
      <point x="359" y="392" type="curve"/>
      <point x="359" y="451"/>
      <point x="332" y="496"/>
      <point x="279" y="496" type="curve"/>
      <point x="272" y="496"/>
      <point x="263" y="496"/>
      <point x="256" y="496" type="curve"/>
      <point x="206" y="455"/>
      <point x="256" y="496"/>
      <point x="206" y="455" type="curve"/>
      <point x="227" y="455"/>
      <point x="249" y="455"/>
      <point x="270" y="455" type="curve"/>
      <point x="302" y="455"/>
      <point x="315" y="426"/>
      <point x="315" y="389" type="curve"/>
      <point x="315" y="355"/>
      <point x="304" y="328"/>
      <point x="276" y="328" type="curve"/>
      <point x="261" y="328"/>
      <point x="246" y="328"/>
      <point x="232" y="328" type="curve"/>
      <point x="232" y="288"/>
      <point x="232" y="328"/>
    </contour>
  </outline>
</glyph>
<glyph name="macron" format="1">
  <advance width="250"/>
  <unicode hex="00AF"/>
  <outline>
    <contour>
      <point x="95" y="637" type="move" name="_top"/>
    </contour>
    <contour>
      <point x="164" y="683" type="curve"/>
      <point x="118" y="683"/>
      <point x="71" y="683"/>
      <point x="25" y="683" type="curve"/>
      <point x="25" y="637"/>
      <point x="25" y="683"/>
      <point x="25" y="637" type="curve"/>
      <point x="71" y="637"/>
      <point x="118" y="637"/>
      <point x="164" y="637" type="curve"/>
      <point x="164" y="683"/>
      <point x="164" y="637"/>
    </contour>
  </outline>
</glyph>
<glyph name="degree" format="1">
  <advance width="363"/>
  <unicode hex="00B0"/>
  <outline>
    <contour>
      <point x="299" y="492" type="curve"/>
      <point x="299" y="597"/>
      <point x="274" y="686"/>
      <point x="181" y="686" type="curve"/>
      <point x="89" y="686"/>
      <point x="65" y="599"/>
      <point x="65" y="493" type="curve"/>
      <point x="90" y="493"/>
      <point x="89" y="493"/>
      <point x="113" y="493" type="curve"/>
      <point x="113" y="570"/>
      <point x="114" y="643"/>
      <point x="179" y="643" type="curve"/>
      <point x="245" y="643"/>
      <point x="249" y="570"/>
      <point x="249" y="492" type="curve"/>
      <point x="249" y="410"/>
      <point x="249" y="336"/>
      <point x="182" y="336" type="curve"/>
      <point x="114" y="336"/>
      <point x="113" y="412"/>
      <point x="113" y="493" type="curve"/>
      <point x="89" y="493"/>
      <point x="90" y="493"/>
      <point x="65" y="493" type="curve"/>
      <point x="65" y="383"/>
      <point x="86" y="293"/>
      <point x="181" y="293" type="curve"/>
      <point x="276" y="293"/>
      <point x="299" y="383"/>
    </contour>
  </outline>
</glyph>
<glyph name="plusminus" format="1">
  <advance width="606"/>
  <unicode hex="00B1"/>
  <outline>
    <contour>
      <point x="66" y="30" type="line"/>
      <point x="539" y="30" type="line"/>
      <point x="539" y="81" type="line"/>
      <point x="66" y="81" type="line"/>
    </contour>
    <contour>
      <point x="66" y="285" type="curve"/>
      <point x="539" y="285" type="line"/>
      <point x="539" y="337"/>
      <point x="539" y="285"/>
      <point x="539" y="337" type="curve"/>
      <point x="66" y="337" type="line"/>
      <point x="66" y="285"/>
      <point x="66" y="337"/>
    </contour>
    <contour>
      <point x="331" y="31" type="curve"/>
      <point x="331" y="585" type="line"/>
      <point x="274" y="585"/>
      <point x="334" y="585"/>
      <point x="276" y="585" type="curve"/>
      <point x="276" y="31" type="line"/>
      <point x="334" y="31"/>
      <point x="274" y="31"/>
    </contour>
  </outline>
</glyph>
<glyph name="twosuperior" format="1">
  <advance width="366"/>
  <unicode hex="00B2"/>
  <outline>
    <contour>
      <point x="198" y="737" type="move" name="_top"/>
    </contour>
    <contour>
      <point x="173" y="317" type="move" name="_bottom"/>
    </contour>
    <contour>
      <point x="291" y="318" type="curve"/>
      <point x="291" y="358"/>
      <point x="291" y="372"/>
      <point x="291" y="413" type="curve"/>
      <point x="246" y="413"/>
      <point x="298" y="413"/>
      <point x="253" y="413" type="curve"/>
      <point x="253" y="386"/>
      <point x="253" y="384"/>
      <point x="253" y="357" type="curve"/>
      <point x="297" y="317"/>
      <point x="247" y="358"/>
    </contour>
    <contour>
      <point x="72" y="318" type="curve"/>
      <point x="142" y="318"/>
      <point x="222" y="318"/>
      <point x="291" y="318" type="curve"/>
      <point x="247" y="358"/>
      <point x="297" y="317"/>
      <point x="253" y="357" type="curve"/>
      <point x="195" y="357"/>
      <point x="131" y="357"/>
      <point x="72" y="357" type="curve"/>
      <point x="72" y="318"/>
      <point x="72" y="357"/>
    </contour>
    <contour>
      <point x="128" y="628" type="curve"/>
      <point x="138" y="664"/>
      <point x="148" y="696"/>
      <point x="184" y="696" type="curve"/>
      <point x="223" y="696"/>
      <point x="235" y="657"/>
      <point x="235" y="611" type="curve"/>
      <point x="235" y="567"/>
      <point x="217" y="539"/>
      <point x="191" y="503" type="curve"/>
      <point x="152" y="454"/>
      <point x="112" y="406"/>
      <point x="72" y="357" type="curve"/>
      <point x="81" y="317"/>
      <point x="72" y="357"/>
      <point x="81" y="317" type="curve"/>
      <point x="125" y="368"/>
      <point x="180" y="419"/>
      <point x="222" y="472" type="curve"/>
      <point x="257" y="518"/>
      <point x="280" y="554"/>
      <point x="280" y="613" type="curve"/>
      <point x="280" y="683"/>
      <point x="249" y="736"/>
      <point x="186" y="736" type="curve"/>
      <point x="135" y="736"/>
      <point x="106" y="704"/>
      <point x="92" y="641" type="curve"/>
      <point x="128" y="628"/>
      <point x="92" y="641"/>
    </contour>
  </outline>
</glyph>
<glyph name="threesuperior" format="1">
  <advance width="333"/>
  <unicode hex="00B3"/>
  <outline>
    <contour>
      <point x="178" y="735" type="move" name="_top"/>
    </contour>
    <contour>
      <point x="166" y="313" type="move" name="_bottom"/>
    </contour>
    <contour>
      <point x="106" y="658" type="curve"/>
      <point x="117" y="676"/>
      <point x="130" y="695"/>
      <point x="154" y="695" type="curve"/>
      <point x="190" y="695"/>
      <point x="206" y="663"/>
      <point x="206" y="621" type="curve"/>
      <point x="206" y="580"/>
      <point x="173" y="549"/>
      <point x="128" y="544" type="curve"/>
      <point x="128" y="510"/>
      <point x="128" y="544"/>
      <point x="128" y="510" type="curve"/>
      <point x="201" y="514"/>
      <point x="254" y="556"/>
      <point x="254" y="625" type="curve"/>
      <point x="254" y="690"/>
      <point x="221" y="736"/>
      <point x="159" y="736" type="curve"/>
      <point x="122" y="736"/>
      <point x="92" y="711"/>
      <point x="75" y="680" type="curve"/>
      <point x="106" y="658"/>
      <point x="75" y="680"/>
    </contour>
    <contour>
      <point x="72" y="346" type="curve"/>
      <point x="95" y="325"/>
      <point x="119" y="312"/>
      <point x="149" y="312" type="curve"/>
      <point x="221" y="309"/>
      <point x="264" y="357"/>
      <point x="264" y="430" type="curve"/>
      <point x="264" y="500"/>
      <point x="205" y="533"/>
      <point x="128" y="537" type="curve"/>
      <point x="128" y="507"/>
      <point x="128" y="537"/>
      <point x="128" y="507" type="curve"/>
      <point x="181" y="503"/>
      <point x="216" y="472"/>
      <point x="216" y="428" type="curve"/>
      <point x="215" y="385"/>
      <point x="194" y="350"/>
      <point x="154" y="352" type="curve"/>
      <point x="132" y="352"/>
      <point x="113" y="361"/>
      <point x="97" y="376" type="curve"/>
      <point x="72" y="346"/>
      <point x="97" y="376"/>
    </contour>
  </outline>
</glyph>
<glyph name="acute" format="1">
  <advance width="231"/>
  <unicode hex="00B4"/>
  <outline>
    <contour>
      <point x="46" y="591" type="move" name="_top"/>
    </contour>
    <contour>
      <point x="71" y="591" type="line"/>
      <point x="142" y="757" type="line"/>
      <point x="73" y="757" type="line"/>
      <point x="18" y="591" type="line"/>
    </contour>
  </outline>
</glyph>
<glyph name="paragraph" format="1">
  <advance width="541"/>
  <unicode hex="00B6"/>
  <outline>
    <contour>
      <point x="295" y="675" type="curve"/>
      <point x="419" y="675"/>
      <point x="295" y="675"/>
      <point x="419" y="675" type="curve"/>
      <point x="419" y="722"/>
      <point x="419" y="675"/>
      <point x="419" y="722" type="curve"/>
      <point x="378" y="722"/>
      <point x="336" y="722"/>
      <point x="295" y="722" type="curve"/>
      <point x="295" y="675"/>
      <point x="295" y="722"/>
    </contour>
    <contour>
      <point x="295" y="0" type="curve"/>
      <point x="336" y="0"/>
      <point x="378" y="0"/>
      <point x="419" y="0" type="curve"/>
      <point x="419" y="47"/>
      <point x="419" y="0"/>
      <point x="419" y="47" type="curve"/>
      <point x="295" y="47"/>
      <point x="419" y="47"/>
      <point x="295" y="47" type="curve"/>
      <point x="295" y="0"/>
      <point x="295" y="47"/>
    </contour>
    <contour>
      <point x="295" y="47" type="curve"/>
      <point x="196" y="47"/>
      <point x="295" y="47"/>
      <point x="196" y="47" type="curve"/>
      <point x="196" y="0"/>
      <point x="196" y="47"/>
      <point x="196" y="0" type="curve"/>
      <point x="295" y="0"/>
      <point x="262" y="0"/>
      <point x="295" y="0" type="curve"/>
      <point x="295" y="47"/>
      <point x="295" y="0"/>
    </contour>
    <contour>
      <point x="284" y="358" type="curve"/>
      <point x="256" y="334"/>
      <point x="234" y="318"/>
      <point x="197" y="318" type="curve"/>
      <point x="122" y="318"/>
      <point x="99" y="398"/>
      <point x="99" y="488" type="curve"/>
      <point x="99" y="587"/>
      <point x="131" y="675"/>
      <point x="218" y="675" type="curve"/>
      <point x="244" y="675"/>
      <point x="268" y="675"/>
      <point x="293" y="675" type="curve"/>
      <point x="293" y="722"/>
      <point x="293" y="675"/>
      <point x="293" y="722" type="curve"/>
      <point x="266" y="722"/>
      <point x="238" y="722"/>
      <point x="211" y="722" type="curve"/>
      <point x="95" y="722"/>
      <point x="42" y="617"/>
      <point x="42" y="490" type="curve"/>
      <point x="42" y="364"/>
      <point x="91" y="274"/>
      <point x="200" y="273" type="curve"/>
      <point x="241" y="273"/>
      <point x="274" y="293"/>
      <point x="303" y="318" type="curve"/>
      <point x="284" y="357"/>
      <point x="302" y="319"/>
    </contour>
    <contour>
      <point x="324" y="0" type="curve"/>
      <point x="324" y="241"/>
      <point x="324" y="481"/>
      <point x="324" y="722" type="curve"/>
      <point x="267" y="722"/>
      <point x="324" y="722"/>
      <point x="267" y="722" type="curve"/>
      <point x="267" y="481"/>
      <point x="267" y="241"/>
      <point x="267" y="0" type="curve"/>
      <point x="324" y="0"/>
      <point x="267" y="0"/>
    </contour>
    <contour>
      <point x="462" y="0" type="curve"/>
      <point x="462" y="241"/>
      <point x="462" y="481"/>
      <point x="462" y="722" type="curve"/>
      <point x="405" y="722"/>
      <point x="462" y="722"/>
      <point x="405" y="722" type="curve"/>
      <point x="405" y="481"/>
      <point x="405" y="241"/>
      <point x="405" y="0" type="curve"/>
      <point x="462" y="0"/>
      <point x="405" y="0"/>
    </contour>
  </outline>
</glyph>
<glyph name="periodcentered" format="1">
  <advance width="215"/>
  <unicode hex="00B7"/>
  <outline>
    <contour>
      <point x="140" y="440" type="curve"/>
      <point x="140" y="461"/>
      <point x="126" y="472"/>
      <point x="107" y="472" type="curve"/>
      <point x="87" y="472"/>
      <point x="75" y="460"/>
      <point x="75" y="440" type="curve"/>
      <point x="143" y="440"/>
      <point x="72" y="440"/>
      <point x="140" y="440" type="curve"/>
      <point x="140" y="419"/>
      <point x="127" y="408"/>
      <point x="107" y="408" type="curve"/>
      <point x="87" y="408"/>
      <point x="75" y="419"/>
      <point x="75" y="440" type="curve"/>
      <point x="143" y="440"/>
      <point x="72" y="440"/>
    </contour>
  </outline>
</glyph>
<glyph name="cedilla" format="1">
  <advance width="287"/>
  <unicode hex="00B8"/>
  <outline>
    <contour>
      <point x="141" y="26" type="move" name="_bottom"/>
    </contour>
    <contour>
      <point x="99" y="58" type="curve"/>
      <point x="89" y="33"/>
      <point x="73" y="-13"/>
      <point x="65" y="-38" type="curve"/>
      <point x="105" y="-75"/>
      <point x="65" y="-38"/>
      <point x="105" y="-75" type="curve"/>
      <point x="113" y="-48"/>
      <point x="133" y="-1"/>
      <point x="142" y="26" type="curve"/>
      <point x="99" y="58"/>
      <point x="142" y="26"/>
    </contour>
    <contour>
      <point x="105" y="-75" type="curve"/>
      <point x="111" y="-68"/>
      <point x="116" y="-64"/>
      <point x="126" y="-64" type="curve"/>
      <point x="145" y="-64"/>
      <point x="148" y="-84"/>
      <point x="148" y="-108" type="curve"/>
      <point x="148" y="-133"/>
      <point x="138" y="-152"/>
      <point x="116" y="-152" type="curve"/>
      <point x="99" y="-152"/>
      <point x="86" y="-149"/>
      <point x="75" y="-137" type="curve"/>
      <point x="52" y="-171"/>
      <point x="75" y="-137"/>
      <point x="52" y="-171" type="curve"/>
      <point x="70" y="-188"/>
      <point x="88" y="-195"/>
      <point x="113" y="-195" type="curve"/>
      <point x="161" y="-195"/>
      <point x="187" y="-159"/>
      <point x="187" y="-108" type="curve"/>
      <point x="187" y="-57"/>
      <point x="167" y="-19"/>
      <point x="121" y="-19" type="curve"/>
      <point x="99" y="-19"/>
      <point x="83" y="-24"/>
      <point x="65" y="-38" type="curve"/>
      <point x="105" y="-75"/>
      <point x="65" y="-38"/>
    </contour>
  </outline>
</glyph>
<glyph name="onesuperior" format="1">
  <advance width="299"/>
  <unicode hex="00B9"/>
  <outline>
    <contour>
      <point x="169" y="725" type="move" name="_top"/>
    </contour>
    <contour>
      <point x="174" y="322" type="move" name="_bottom"/>
    </contour>
    <contour>
      <point x="149" y="318" type="curve"/>
      <point x="184" y="318"/>
      <point x="201" y="318"/>
      <point x="236" y="318" type="curve"/>
      <point x="236" y="357"/>
      <point x="236" y="318"/>
      <point x="236" y="358" type="curve"/>
      <point x="217" y="358"/>
      <point x="216" y="358"/>
      <point x="196" y="358" type="curve"/>
      <point x="149" y="318"/>
      <point x="196" y="357"/>
    </contour>
    <contour>
      <point x="196" y="358" type="curve"/>
      <point x="162" y="358"/>
      <point x="144" y="358"/>
      <point x="108" y="358" type="curve"/>
      <point x="108" y="318"/>
      <point x="108" y="357"/>
      <point x="108" y="318" type="curve"/>
      <point x="128" y="318"/>
      <point x="129" y="318"/>
      <point x="149" y="318" type="curve"/>
      <point x="196" y="357"/>
      <point x="149" y="318"/>
    </contour>
    <contour>
      <point x="98" y="594" type="line"/>
      <point x="195" y="720" type="line"/>
      <point x="149" y="727" type="line"/>
      <point x="66" y="622" type="line"/>
    </contour>
    <contour>
      <point x="196" y="358" type="curve"/>
      <point x="196" y="727" type="line"/>
      <point x="149" y="727" type="line"/>
      <point x="149" y="318" type="line"/>
      <point x="196" y="357"/>
      <point x="149" y="318"/>
    </contour>
  </outline>
</glyph>
<glyph name="ordmasculine" format="1">
  <advance width="332"/>
  <unicode hex="00BA"/>
  <outline>
    <contour>
      <point x="106" y="602" type="curve"/>
      <point x="106" y="669"/>
      <point x="112" y="728"/>
      <point x="167" y="728" type="curve"/>
      <point x="218" y="728"/>
      <point x="223" y="669"/>
      <point x="223" y="601" type="curve"/>
      <point x="223" y="526"/>
      <point x="219" y="461"/>
      <point x="170" y="461" type="curve"/>
      <point x="109" y="461"/>
      <point x="106" y="528"/>
      <point x="106" y="602" type="curve"/>
      <point x="92" y="602"/>
      <point x="80" y="602"/>
      <point x="66" y="602" type="curve"/>
      <point x="66" y="504"/>
      <point x="85" y="424"/>
      <point x="169" y="424" type="curve"/>
      <point x="246" y="424"/>
      <point x="265" y="503"/>
      <point x="265" y="601" type="curve"/>
      <point x="265" y="692"/>
      <point x="246" y="764"/>
      <point x="168" y="764" type="curve"/>
      <point x="86" y="764"/>
      <point x="66" y="692"/>
      <point x="66" y="602" type="curve"/>
      <point x="80" y="602"/>
      <point x="92" y="602"/>
    </contour>
  </outline>
</glyph>
<glyph name="guillemotright" format="1">
  <advance width="454"/>
  <unicode hex="00BB"/>
  <outline>
    <contour>
      <point x="230" y="425" type="curve"/>
      <point x="241" y="416"/>
      <point x="378" y="318"/>
      <point x="389" y="308" type="curve"/>
      <point x="389" y="257"/>
      <point x="389" y="302"/>
      <point x="389" y="250" type="curve"/>
      <point x="378" y="260"/>
      <point x="241" y="361"/>
      <point x="230" y="371" type="curve"/>
      <point x="230" y="422"/>
      <point x="230" y="374"/>
    </contour>
    <contour>
      <point x="230" y="188" type="curve"/>
      <point x="240" y="198"/>
      <point x="378" y="298"/>
      <point x="389" y="308" type="curve"/>
      <point x="389" y="257"/>
      <point x="389" y="302"/>
      <point x="389" y="250" type="curve"/>
      <point x="378" y="240"/>
      <point x="240" y="144"/>
      <point x="230" y="134" type="curve"/>
      <point x="230" y="185"/>
      <point x="230" y="137"/>
    </contour>
    <contour>
      <point x="86" y="425" type="curve"/>
      <point x="96" y="416"/>
      <point x="234" y="318"/>
      <point x="245" y="308" type="curve"/>
      <point x="245" y="257"/>
      <point x="245" y="302"/>
      <point x="245" y="250" type="curve"/>
      <point x="234" y="260"/>
      <point x="96" y="361"/>
      <point x="86" y="371" type="curve"/>
      <point x="86" y="422"/>
      <point x="86" y="374"/>
    </contour>
    <contour>
      <point x="85" y="188" type="curve"/>
      <point x="96" y="198"/>
      <point x="234" y="298"/>
      <point x="245" y="308" type="curve"/>
      <point x="245" y="257"/>
      <point x="245" y="302"/>
      <point x="245" y="250" type="curve"/>
      <point x="234" y="240"/>
      <point x="96" y="144"/>
      <point x="85" y="134" type="curve"/>
      <point x="85" y="185"/>
      <point x="85" y="137"/>
    </contour>
  </outline>
</glyph>
<glyph name="onequarter" format="1">
  <advance width="640"/>
  <unicode hex="00BC"/>
  <outline>
    <contour>
      <point x="211" y="-77" type="line"/>
      <point x="477" y="743" type="line"/>
      <point x="421" y="743" type="line"/>
      <point x="156" y="-77" type="line"/>
    </contour>
    <contour>
      <point x="123" y="338" type="curve"/>
      <point x="158" y="338"/>
      <point x="175" y="338"/>
      <point x="210" y="338" type="curve"/>
      <point x="210" y="378"/>
      <point x="210" y="338"/>
      <point x="210" y="378" type="curve"/>
      <point x="191" y="378"/>
      <point x="189" y="378"/>
      <point x="171" y="378" type="curve"/>
      <point x="123" y="338"/>
      <point x="171" y="378"/>
    </contour>
    <contour>
      <point x="171" y="378" type="curve"/>
      <point x="136" y="378"/>
      <point x="118" y="378"/>
      <point x="82" y="378" type="curve"/>
      <point x="82" y="338"/>
      <point x="82" y="378"/>
      <point x="82" y="338" type="curve"/>
      <point x="102" y="338"/>
      <point x="103" y="338"/>
      <point x="122" y="338" type="curve"/>
      <point x="171" y="378"/>
      <point x="122" y="338"/>
    </contour>
    <contour>
      <point x="72" y="614" type="line"/>
      <point x="169" y="741" type="line"/>
      <point x="122" y="747" type="line"/>
      <point x="40" y="643" type="line"/>
    </contour>
    <contour>
      <point x="171" y="378" type="curve"/>
      <point x="171" y="747" type="line"/>
      <point x="122" y="747" type="line"/>
      <point x="122" y="338" type="line"/>
      <point x="171" y="378"/>
      <point x="122" y="338"/>
    </contour>
    <contour>
      <point x="612" y="78" type="line"/>
      <point x="351" y="78" type="line"/>
      <point x="351" y="40" type="line"/>
      <point x="612" y="40" type="line"/>
    </contour>
    <contour>
      <point x="374" y="41" type="line"/>
      <point x="532" y="346" type="line"/>
      <point x="495" y="358" type="line"/>
      <point x="351" y="78" type="line"/>
    </contour>
    <contour>
      <point x="541" y="-72" type="line"/>
      <point x="541" y="358" type="line"/>
      <point x="495" y="358" type="line"/>
      <point x="495" y="-72" type="line"/>
    </contour>
    <contour>
      <point x="518" y="-37" type="line"/>
      <point x="442" y="-37" type="line"/>
      <point x="442" y="-73" type="line"/>
      <point x="518" y="-73" type="line"/>
    </contour>
    <contour>
      <point x="518" y="-73" type="line"/>
      <point x="595" y="-73" type="line"/>
      <point x="595" y="-37" type="line"/>
      <point x="518" y="-37" type="line"/>
    </contour>
  </outline>
</glyph>
<glyph name="onehalf" format="1">
  <advance width="682"/>
  <unicode hex="00BD"/>
  <outline>
    <contour>
      <point x="233" y="-77" type="line"/>
      <point x="499" y="743" type="line"/>
      <point x="442" y="743" type="line"/>
      <point x="177" y="-77" type="line"/>
    </contour>
    <contour>
      <point x="121" y="338" type="curve"/>
      <point x="156" y="338"/>
      <point x="173" y="338"/>
      <point x="207" y="338" type="curve"/>
      <point x="207" y="378"/>
      <point x="207" y="338"/>
      <point x="207" y="378" type="curve"/>
      <point x="189" y="378"/>
      <point x="187" y="378"/>
      <point x="169" y="378" type="curve"/>
      <point x="121" y="338"/>
      <point x="169" y="378"/>
    </contour>
    <contour>
      <point x="169" y="378" type="curve"/>
      <point x="134" y="378"/>
      <point x="116" y="378"/>
      <point x="80" y="378" type="curve"/>
      <point x="80" y="338"/>
      <point x="80" y="378"/>
      <point x="80" y="338" type="curve"/>
      <point x="100" y="338"/>
      <point x="101" y="338"/>
      <point x="120" y="338" type="curve"/>
      <point x="169" y="378"/>
      <point x="120" y="338"/>
    </contour>
    <contour>
      <point x="70" y="614" type="line"/>
      <point x="166" y="741" type="line"/>
      <point x="120" y="747" type="line"/>
      <point x="38" y="643" type="line"/>
    </contour>
    <contour>
      <point x="169" y="378" type="curve"/>
      <point x="169" y="747" type="line"/>
      <point x="120" y="747" type="line"/>
      <point x="120" y="338" type="line"/>
      <point x="169" y="378"/>
      <point x="120" y="338"/>
    </contour>
    <contour>
      <point x="642" y="-73" type="curve"/>
      <point x="642" y="-34"/>
      <point x="642" y="-19"/>
      <point x="642" y="22" type="curve"/>
      <point x="597" y="22"/>
      <point x="649" y="22"/>
      <point x="604" y="22" type="curve"/>
      <point x="604" y="-6"/>
      <point x="604" y="-7"/>
      <point x="604" y="-34" type="curve"/>
      <point x="648" y="-74"/>
      <point x="598" y="-33"/>
    </contour>
    <contour>
      <point x="423" y="-73" type="curve"/>
      <point x="493" y="-73"/>
      <point x="574" y="-73"/>
      <point x="642" y="-73" type="curve"/>
      <point x="598" y="-33"/>
      <point x="648" y="-74"/>
      <point x="604" y="-34" type="curve"/>
      <point x="546" y="-34"/>
      <point x="482" y="-34"/>
      <point x="423" y="-34" type="curve"/>
      <point x="423" y="-73"/>
      <point x="423" y="-34"/>
    </contour>
    <contour>
      <point x="480" y="237" type="curve"/>
      <point x="489" y="272"/>
      <point x="500" y="306"/>
      <point x="536" y="306" type="curve"/>
      <point x="575" y="306"/>
      <point x="586" y="266"/>
      <point x="586" y="220" type="curve"/>
      <point x="586" y="176"/>
      <point x="568" y="148"/>
      <point x="542" y="112" type="curve"/>
      <point x="503" y="64"/>
      <point x="463" y="15"/>
      <point x="423" y="-34" type="curve"/>
      <point x="432" y="-73"/>
      <point x="423" y="-34"/>
      <point x="432" y="-73" type="curve"/>
      <point x="476" y="-23"/>
      <point x="531" y="29"/>
      <point x="574" y="81" type="curve"/>
      <point x="608" y="127"/>
      <point x="632" y="164"/>
      <point x="632" y="222" type="curve"/>
      <point x="632" y="292"/>
      <point x="601" y="345"/>
      <point x="537" y="345" type="curve"/>
      <point x="486" y="345"/>
      <point x="457" y="312"/>
      <point x="443" y="249" type="curve"/>
      <point x="480" y="237"/>
      <point x="443" y="249"/>
    </contour>
  </outline>
</glyph>
<glyph name="questiondown" format="1">
  <advance width="393"/>
  <unicode hex="00BF"/>
  <outline>
    <contour>
      <point x="232" y="374" type="curve"/>
      <point x="232" y="411"/>
      <point x="232" y="462"/>
      <point x="232" y="499" type="curve"/>
      <point x="180" y="499"/>
      <point x="232" y="499"/>
      <point x="180" y="499" type="curve"/>
      <point x="180" y="462"/>
      <point x="180" y="411"/>
      <point x="180" y="374" type="curve"/>
      <point x="232" y="374"/>
      <point x="180" y="374"/>
    </contour>
    <contour>
      <point x="305" y="111" type="line"/>
      <point x="286" y="75"/>
      <point x="260" y="48"/>
      <point x="215" y="48" type="curve"/>
      <point x="140" y="48"/>
      <point x="113" y="120"/>
      <point x="113" y="202" type="curve"/>
      <point x="113" y="294"/>
      <point x="144" y="374"/>
      <point x="224" y="374" type="curve"/>
      <point x="224" y="402"/>
      <point x="225" y="391"/>
      <point x="225" y="420" type="curve"/>
      <point x="112" y="420"/>
      <point x="58" y="323"/>
      <point x="58" y="202" type="curve"/>
      <point x="58" y="89"/>
      <point x="109" y="-1"/>
      <point x="212" y="-1" type="curve"/>
      <point x="278" y="-1"/>
      <point x="315" y="31"/>
      <point x="340" y="77" type="curve"/>
    </contour>
    <contour>
      <point x="174" y="692" type="curve"/>
      <point x="174" y="671"/>
      <point x="187" y="659"/>
      <point x="207" y="659" type="curve"/>
      <point x="227" y="659"/>
      <point x="240" y="672"/>
      <point x="240" y="692" type="curve"/>
      <point x="174" y="692"/>
      <point x="240" y="692"/>
      <point x="174" y="692" type="curve"/>
      <point x="174" y="714"/>
      <point x="187" y="725"/>
      <point x="207" y="725" type="curve"/>
      <point x="227" y="725"/>
      <point x="240" y="714"/>
      <point x="240" y="692" type="curve"/>
      <point x="174" y="692"/>
      <point x="240" y="692"/>
    </contour>
  </outline>
</glyph>
<glyph name="Atilde" format="1">
  <advance width="558"/>
  <unicode hex="00C3"/>
  <outline>
    <contour>
      <point x="94" y="47" type="curve"/>
      <point x="-37" y="47"/>
      <point x="114" y="47"/>
      <point x="-17" y="47" type="curve"/>
      <point x="-17" y="0"/>
      <point x="-17" y="47"/>
      <point x="-17" y="0" type="curve"/>
      <point x="27" y="0"/>
      <point x="50" y="0"/>
      <point x="94" y="0" type="curve"/>
      <point x="94" y="47"/>
      <point x="94" y="0"/>
    </contour>
    <contour>
      <point x="94" y="0" type="curve"/>
      <point x="142" y="0"/>
      <point x="77" y="0"/>
      <point x="219" y="0" type="curve"/>
      <point x="219" y="47"/>
      <point x="219" y="0"/>
      <point x="219" y="47" type="curve"/>
      <point x="77" y="47"/>
      <point x="236" y="47"/>
      <point x="94" y="47" type="curve"/>
      <point x="94" y="0"/>
      <point x="94" y="47"/>
    </contour>
    <contour>
      <point x="434" y="0" type="curve"/>
      <point x="477" y="0"/>
      <point x="501" y="0"/>
      <point x="545" y="0" type="curve"/>
      <point x="545" y="47"/>
      <point x="545" y="0"/>
      <point x="545" y="47" type="curve"/>
      <point x="414" y="47"/>
      <point x="565" y="47"/>
      <point x="434" y="47" type="curve"/>
      <point x="434" y="0"/>
      <point x="434" y="47"/>
    </contour>
    <contour>
      <point x="434" y="47" type="curve"/>
      <point x="291" y="47"/>
      <point x="450" y="47"/>
      <point x="308" y="47" type="curve"/>
      <point x="308" y="0"/>
      <point x="308" y="47"/>
      <point x="308" y="0" type="curve"/>
      <point x="355" y="0"/>
      <point x="386" y="0"/>
      <point x="434" y="0" type="curve"/>
      <point x="434" y="47"/>
      <point x="434" y="0"/>
    </contour>
    <contour>
      <point x="370" y="281" type="curve"/>
      <point x="303" y="281"/>
      <point x="236" y="281"/>
      <point x="168" y="281" type="curve"/>
      <point x="145" y="231"/>
      <point x="168" y="281"/>
      <point x="145" y="231" type="curve"/>
      <point x="227" y="231"/>
      <point x="308" y="231"/>
      <point x="389" y="231" type="curve"/>
      <point x="370" y="281"/>
      <point x="389" y="231"/>
    </contour>
    <contour>
      <point x="470" y="0" type="curve"/>
      <point x="414" y="241"/>
      <point x="356" y="481"/>
      <point x="300" y="722" type="curve"/>
      <point x="248" y="722"/>
      <point x="300" y="722"/>
      <point x="248" y="722" type="curve"/>
      <point x="303" y="481"/>
      <point x="355" y="241"/>
      <point x="411" y="0" type="curve"/>
      <point x="470" y="0"/>
      <point x="411" y="0"/>
    </contour>
    <contour>
      <point x="118" y="0" type="curve"/>
      <point x="179" y="241"/>
      <point x="237" y="481"/>
      <point x="298" y="722" type="curve"/>
      <point x="247" y="722"/>
      <point x="298" y="722"/>
      <point x="247" y="722" type="curve"/>
      <point x="184" y="481"/>
      <point x="118" y="241"/>
      <point x="55" y="0" type="curve"/>
      <point x="118" y="0"/>
      <point x="55" y="0"/>
    </contour>
    <contour>
      <point x="367" y="956" type="curve"/>
      <point x="356" y="911"/>
      <point x="352" y="872"/>
      <point x="327" y="872" type="curve"/>
      <point x="301" y="872"/>
      <point x="291" y="890"/>
      <point x="277" y="912" type="curve"/>
      <point x="259" y="939"/>
      <point x="248" y="959"/>
      <point x="217" y="959" type="curve"/>
      <point x="159" y="959"/>
      <point x="149" y="897"/>
      <point x="137" y="836" type="curve"/>
      <point x="181" y="814"/>
      <point x="137" y="836"/>
      <point x="181" y="814" type="curve"/>
      <point x="192" y="863"/>
      <point x="195" y="900"/>
      <point x="228" y="900" type="curve"/>
      <point x="252" y="900"/>
      <point x="258" y="881"/>
      <point x="270" y="862" type="curve"/>
      <point x="289" y="833"/>
      <point x="303" y="812"/>
      <point x="336" y="812" type="curve"/>
      <point x="395" y="812"/>
      <point x="400" y="874"/>
      <point x="413" y="936" type="curve"/>
      <point x="367" y="956"/>
      <point x="413" y="936"/>
    </contour>
  </outline>
</glyph>
<glyph name="Aring" format="1">
  <advance width="558"/>
  <unicode hex="00C5"/>
  <outline>
    <contour>
      <point x="94" y="47" type="curve"/>
      <point x="-37" y="47"/>
      <point x="114" y="47"/>
      <point x="-17" y="47" type="curve"/>
      <point x="-17" y="0"/>
      <point x="-17" y="47"/>
      <point x="-17" y="0" type="curve"/>
      <point x="27" y="0"/>
      <point x="50" y="0"/>
      <point x="94" y="0" type="curve"/>
      <point x="94" y="47"/>
      <point x="94" y="0"/>
    </contour>
    <contour>
      <point x="94" y="0" type="curve"/>
      <point x="142" y="0"/>
      <point x="77" y="0"/>
      <point x="219" y="0" type="curve"/>
      <point x="219" y="47"/>
      <point x="219" y="0"/>
      <point x="219" y="47" type="curve"/>
      <point x="77" y="47"/>
      <point x="236" y="47"/>
      <point x="94" y="47" type="curve"/>
      <point x="94" y="0"/>
      <point x="94" y="47"/>
    </contour>
    <contour>
      <point x="434" y="0" type="curve"/>
      <point x="477" y="0"/>
      <point x="501" y="0"/>
      <point x="545" y="0" type="curve"/>
      <point x="545" y="47"/>
      <point x="545" y="0"/>
      <point x="545" y="47" type="curve"/>
      <point x="414" y="47"/>
      <point x="565" y="47"/>
      <point x="434" y="47" type="curve"/>
      <point x="434" y="0"/>
      <point x="434" y="47"/>
    </contour>
    <contour>
      <point x="434" y="47" type="curve"/>
      <point x="291" y="47"/>
      <point x="450" y="47"/>
      <point x="308" y="47" type="curve"/>
      <point x="308" y="0"/>
      <point x="308" y="47"/>
      <point x="308" y="0" type="curve"/>
      <point x="355" y="0"/>
      <point x="386" y="0"/>
      <point x="434" y="0" type="curve"/>
      <point x="434" y="47"/>
      <point x="434" y="0"/>
    </contour>
    <contour>
      <point x="370" y="281" type="curve"/>
      <point x="303" y="281"/>
      <point x="236" y="281"/>
      <point x="168" y="281" type="curve"/>
      <point x="145" y="231"/>
      <point x="168" y="281"/>
      <point x="145" y="231" type="curve"/>
      <point x="227" y="231"/>
      <point x="308" y="231"/>
      <point x="389" y="231" type="curve"/>
      <point x="370" y="281"/>
      <point x="389" y="231"/>
    </contour>
    <contour>
      <point x="470" y="0" type="curve"/>
      <point x="414" y="241"/>
      <point x="356" y="481"/>
      <point x="300" y="722" type="curve"/>
      <point x="248" y="722"/>
      <point x="300" y="722"/>
      <point x="248" y="722" type="curve"/>
      <point x="303" y="481"/>
      <point x="355" y="241"/>
      <point x="411" y="0" type="curve"/>
      <point x="470" y="0"/>
      <point x="411" y="0"/>
    </contour>
    <contour>
      <point x="118" y="0" type="curve"/>
      <point x="179" y="241"/>
      <point x="237" y="481"/>
      <point x="298" y="722" type="curve"/>
      <point x="247" y="722"/>
      <point x="298" y="722"/>
      <point x="247" y="722" type="curve"/>
      <point x="184" y="481"/>
      <point x="118" y="241"/>
      <point x="55" y="0" type="curve"/>
      <point x="118" y="0"/>
      <point x="55" y="0"/>
    </contour>
    <contour>
      <point x="181" y="936" type="curve"/>
      <point x="181" y="866"/>
      <point x="208" y="811"/>
      <point x="272" y="811" type="curve"/>
      <point x="336" y="811"/>
      <point x="364" y="865"/>
      <point x="364" y="936" type="curve"/>
      <point x="364" y="1007"/>
      <point x="335" y="1062"/>
      <point x="270" y="1062" type="curve"/>
      <point x="207" y="1062"/>
      <point x="181" y="1006"/>
      <point x="181" y="936" type="curve"/>
      <point x="233" y="936"/>
      <point x="177" y="936"/>
      <point x="229" y="936" type="curve"/>
      <point x="229" y="977"/>
      <point x="233" y="1017"/>
      <point x="270" y="1017" type="curve"/>
      <point x="307" y="1017"/>
      <point x="314" y="978"/>
      <point x="314" y="936" type="curve"/>
      <point x="314" y="895"/>
      <point x="308" y="855"/>
      <point x="272" y="855" type="curve"/>
      <point x="234" y="855"/>
      <point x="229" y="895"/>
      <point x="229" y="936" type="curve"/>
      <point x="177" y="936"/>
      <point x="233" y="936"/>
    </contour>
  </outline>
</glyph>
<glyph name="Ccedilla" format="1">
  <advance width="491"/>
  <unicode hex="00C7"/>
  <outline>
    <contour>
      <point x="386" y="655" type="curve"/>
      <point x="386" y="535"/>
      <point x="386" y="657"/>
      <point x="386" y="537" type="curve"/>
      <point x="433" y="537"/>
      <point x="386" y="537"/>
      <point x="433" y="537" type="curve"/>
      <point x="433" y="657"/>
      <point x="433" y="535"/>
      <point x="433" y="655" type="curve"/>
      <point x="386" y="655"/>
      <point x="433" y="655"/>
    </contour>
    <contour>
      <point x="433" y="655" type="curve"/>
      <point x="392" y="695"/>
      <point x="341" y="727"/>
      <point x="279" y="727" type="curve"/>
      <point x="101" y="727"/>
      <point x="61" y="556"/>
      <point x="61" y="344" type="curve"/>
      <point x="61" y="151"/>
      <point x="102" y="-5"/>
      <point x="267" y="-5" type="curve"/>
      <point x="349" y="-5"/>
      <point x="399" y="34"/>
      <point x="445" y="97" type="curve"/>
      <point x="410" y="132"/>
      <point x="445" y="97"/>
      <point x="409" y="132" type="curve"/>
      <point x="371" y="81"/>
      <point x="335" y="46"/>
      <point x="270" y="46" type="curve"/>
      <point x="136" y="46"/>
      <point x="118" y="184"/>
      <point x="118" y="346" type="curve"/>
      <point x="118" y="524"/>
      <point x="136" y="678"/>
      <point x="277" y="678" type="curve"/>
      <point x="328" y="678"/>
      <point x="370" y="651"/>
      <point x="402" y="618" type="curve"/>
      <point x="433" y="655"/>
      <point x="402" y="618"/>
    </contour>
    <contour>
      <point x="238" y="29" type="curve"/>
      <point x="228" y="3"/>
      <point x="213" y="-43"/>
      <point x="204" y="-67" type="curve"/>
      <point x="244" y="-105"/>
      <point x="204" y="-67"/>
      <point x="244" y="-105" type="curve"/>
      <point x="253" y="-78"/>
      <point x="272" y="-30"/>
      <point x="281" y="-4" type="curve"/>
      <point x="238" y="29"/>
      <point x="281" y="-4"/>
    </contour>
    <contour>
      <point x="244" y="-105" type="curve"/>
      <point x="250" y="-97"/>
      <point x="256" y="-93"/>
      <point x="265" y="-93" type="curve"/>
      <point x="285" y="-93"/>
      <point x="288" y="-114"/>
      <point x="288" y="-138" type="curve"/>
      <point x="288" y="-163"/>
      <point x="277" y="-182"/>
      <point x="255" y="-182" type="curve"/>
      <point x="239" y="-182"/>
      <point x="226" y="-178"/>
      <point x="214" y="-166" type="curve"/>
      <point x="191" y="-201"/>
      <point x="214" y="-166"/>
      <point x="191" y="-201" type="curve"/>
      <point x="210" y="-217"/>
      <point x="228" y="-225"/>
      <point x="252" y="-225" type="curve"/>
      <point x="300" y="-225"/>
      <point x="327" y="-188"/>
      <point x="327" y="-137" type="curve"/>
      <point x="327" y="-87"/>
      <point x="306" y="-48"/>
      <point x="261" y="-48" type="curve"/>
      <point x="239" y="-48"/>
      <point x="223" y="-54"/>
      <point x="204" y="-67" type="curve"/>
      <point x="244" y="-105"/>
      <point x="204" y="-67"/>
    </contour>
  </outline>
</glyph>
<glyph name="Ecircumflex" format="1">
  <advance width="468"/>
  <unicode hex="00CA"/>
  <outline>
    <contour>
      <point x="424" y="23" type="curve"/>
      <point x="424" y="143"/>
      <point x="424" y="15"/>
      <point x="424" y="136" type="curve"/>
      <point x="376" y="136"/>
      <point x="424" y="136"/>
      <point x="376" y="136" type="curve"/>
      <point x="376" y="15"/>
      <point x="376" y="143"/>
      <point x="376" y="23" type="curve"/>
      <point x="424" y="23"/>
      <point x="376" y="23"/>
    </contour>
    <contour>
      <point x="356" y="699" type="curve"/>
      <point x="356" y="579"/>
      <point x="356" y="707"/>
      <point x="356" y="587" type="curve"/>
      <point x="403" y="587"/>
      <point x="356" y="587"/>
      <point x="403" y="587" type="curve"/>
      <point x="403" y="707"/>
      <point x="403" y="579"/>
      <point x="403" y="699" type="curve"/>
      <point x="356" y="699"/>
      <point x="403" y="699"/>
    </contour>
    <contour>
      <point x="157" y="47" type="curve"/>
      <point x="29" y="47"/>
      <point x="174" y="47"/>
      <point x="46" y="47" type="curve"/>
      <point x="46" y="0"/>
      <point x="46" y="47"/>
      <point x="46" y="0" type="curve"/>
      <point x="89" y="0"/>
      <point x="115" y="0"/>
      <point x="157" y="0" type="curve"/>
      <point x="157" y="47"/>
      <point x="157" y="0"/>
    </contour>
    <contour>
      <point x="157" y="722" type="curve"/>
      <point x="115" y="722"/>
      <point x="89" y="722"/>
      <point x="46" y="722" type="curve"/>
      <point x="46" y="675"/>
      <point x="46" y="722"/>
      <point x="46" y="675" type="curve"/>
      <point x="174" y="675"/>
      <point x="29" y="675"/>
      <point x="157" y="675" type="curve"/>
      <point x="157" y="722"/>
      <point x="157" y="675"/>
    </contour>
    <contour>
      <point x="159" y="350" type="curve"/>
      <point x="227" y="350"/>
      <point x="295" y="350"/>
      <point x="363" y="350" type="curve"/>
      <point x="363" y="397"/>
      <point x="363" y="350"/>
      <point x="363" y="397" type="curve"/>
      <point x="295" y="397"/>
      <point x="227" y="397"/>
      <point x="159" y="397" type="curve"/>
      <point x="159" y="350"/>
      <point x="159" y="397"/>
    </contour>
    <contour>
      <point x="151" y="675" type="curve"/>
      <point x="235" y="675"/>
      <point x="318" y="675"/>
      <point x="403" y="675" type="curve"/>
      <point x="403" y="722"/>
      <point x="403" y="675"/>
      <point x="403" y="722" type="curve"/>
      <point x="318" y="722"/>
      <point x="235" y="722"/>
      <point x="151" y="722" type="curve"/>
      <point x="151" y="675"/>
      <point x="151" y="722"/>
    </contour>
    <contour>
      <point x="186" y="0" type="curve"/>
      <point x="186" y="722" type="line"/>
      <point x="129" y="722"/>
      <point x="186" y="722"/>
      <point x="129" y="722" type="curve"/>
      <point x="129" y="481"/>
      <point x="129" y="241"/>
      <point x="129" y="0" type="curve"/>
      <point x="186" y="0"/>
      <point x="129" y="0"/>
    </contour>
    <contour>
      <point x="151" y="0" type="curve"/>
      <point x="241" y="0"/>
      <point x="332" y="0"/>
      <point x="424" y="0" type="curve"/>
      <point x="424" y="47"/>
      <point x="424" y="0"/>
      <point x="424" y="47" type="curve"/>
      <point x="332" y="47"/>
      <point x="241" y="47"/>
      <point x="151" y="47" type="curve"/>
      <point x="151" y="0"/>
      <point x="151" y="47"/>
    </contour>
    <contour>
      <point x="193" y="812" type="line"/>
      <point x="264" y="978" type="line"/>
      <point x="194" y="978" type="line"/>
      <point x="138" y="812" type="line"/>
    </contour>
    <contour>
      <point x="341" y="812" type="line"/>
      <point x="287" y="978" type="line"/>
      <point x="217" y="978" type="line"/>
      <point x="288" y="812" type="line"/>
    </contour>
  </outline>
</glyph>
<glyph name="Iacute" format="1">
  <advance width="301"/>
  <unicode hex="00CD"/>
  <outline>
    <contour>
      <point x="151" y="722" type="curve"/>
      <point x="109" y="722"/>
      <point x="82" y="722"/>
      <point x="39" y="722" type="curve"/>
      <point x="39" y="675"/>
      <point x="39" y="722"/>
      <point x="39" y="675" type="curve"/>
      <point x="166" y="675"/>
      <point x="24" y="675"/>
      <point x="151" y="675" type="curve"/>
      <point x="151" y="722"/>
      <point x="151" y="675"/>
    </contour>
    <contour>
      <point x="151" y="675" type="curve"/>
      <point x="279" y="675"/>
      <point x="136" y="675"/>
      <point x="264" y="675" type="curve"/>
      <point x="264" y="722"/>
      <point x="264" y="675"/>
      <point x="264" y="722" type="curve"/>
      <point x="221" y="722"/>
      <point x="193" y="722"/>
      <point x="151" y="722" type="curve"/>
      <point x="151" y="675"/>
      <point x="151" y="722"/>
    </contour>
    <contour>
      <point x="151" y="0" type="curve"/>
      <point x="193" y="0"/>
      <point x="221" y="0"/>
      <point x="264" y="0" type="curve"/>
      <point x="264" y="47"/>
      <point x="264" y="0"/>
      <point x="264" y="47" type="curve"/>
      <point x="136" y="47"/>
      <point x="279" y="47"/>
      <point x="151" y="47" type="curve"/>
      <point x="151" y="0"/>
      <point x="151" y="47"/>
    </contour>
    <contour>
      <point x="151" y="47" type="curve"/>
      <point x="24" y="47"/>
      <point x="166" y="47"/>
      <point x="39" y="47" type="curve"/>
      <point x="39" y="0"/>
      <point x="39" y="47"/>
      <point x="39" y="0" type="curve"/>
      <point x="82" y="0"/>
      <point x="109" y="0"/>
      <point x="151" y="0" type="curve"/>
      <point x="151" y="47"/>
      <point x="151" y="0"/>
    </contour>
    <contour>
      <point x="179" y="0" type="curve"/>
      <point x="179" y="241"/>
      <point x="179" y="481"/>
      <point x="179" y="722" type="curve"/>
      <point x="122" y="722"/>
      <point x="179" y="722"/>
      <point x="122" y="722" type="curve"/>
      <point x="122" y="481"/>
      <point x="122" y="241"/>
      <point x="122" y="0" type="curve"/>
      <point x="179" y="0"/>
      <point x="122" y="0"/>
    </contour>
    <contour>
      <point x="178" y="812" type="line"/>
      <point x="249" y="978" type="line"/>
      <point x="180" y="978" type="line"/>
      <point x="125" y="812" type="line"/>
    </contour>
  </outline>
</glyph>
<glyph name="Icircumflex" format="1">
  <advance width="294"/>
  <unicode hex="00CE"/>
  <outline>
    <contour>
      <point x="148" y="722" type="curve"/>
      <point x="106" y="722"/>
      <point x="78" y="722"/>
      <point x="36" y="722" type="curve"/>
      <point x="36" y="675"/>
      <point x="36" y="722"/>
      <point x="36" y="675" type="curve"/>
      <point x="163" y="675"/>
      <point x="20" y="675"/>
      <point x="148" y="675" type="curve"/>
      <point x="148" y="722"/>
      <point x="148" y="675"/>
    </contour>
    <contour>
      <point x="148" y="675" type="curve"/>
      <point x="275" y="675"/>
      <point x="133" y="675"/>
      <point x="260" y="675" type="curve"/>
      <point x="260" y="722"/>
      <point x="260" y="675"/>
      <point x="260" y="722" type="curve"/>
      <point x="217" y="722"/>
      <point x="190" y="722"/>
      <point x="148" y="722" type="curve"/>
      <point x="148" y="675"/>
      <point x="148" y="722"/>
    </contour>
    <contour>
      <point x="148" y="0" type="curve"/>
      <point x="190" y="0"/>
      <point x="217" y="0"/>
      <point x="260" y="0" type="curve"/>
      <point x="260" y="47"/>
      <point x="260" y="0"/>
      <point x="260" y="47" type="curve"/>
      <point x="133" y="47"/>
      <point x="275" y="47"/>
      <point x="148" y="47" type="curve"/>
      <point x="148" y="0"/>
      <point x="148" y="47"/>
    </contour>
    <contour>
      <point x="148" y="47" type="curve"/>
      <point x="20" y="47"/>
      <point x="163" y="47"/>
      <point x="36" y="47" type="curve"/>
      <point x="36" y="0"/>
      <point x="36" y="47"/>
      <point x="36" y="0" type="curve"/>
      <point x="78" y="0"/>
      <point x="106" y="0"/>
      <point x="148" y="0" type="curve"/>
      <point x="148" y="47"/>
      <point x="148" y="0"/>
    </contour>
    <contour>
      <point x="176" y="0" type="curve"/>
      <point x="176" y="241"/>
      <point x="176" y="481"/>
      <point x="176" y="722" type="curve"/>
      <point x="119" y="722"/>
      <point x="176" y="722"/>
      <point x="119" y="722" type="curve"/>
      <point x="119" y="481"/>
      <point x="119" y="241"/>
      <point x="119" y="0" type="curve"/>
      <point x="176" y="0"/>
      <point x="119" y="0"/>
    </contour>
    <contour>
      <point x="101" y="812" type="line"/>
      <point x="172" y="978" type="line"/>
      <point x="103" y="978" type="line"/>
      <point x="47" y="812" type="line"/>
    </contour>
    <contour>
      <point x="250" y="812" type="line"/>
      <point x="195" y="978" type="line"/>
      <point x="126" y="978" type="line"/>
      <point x="197" y="812" type="line"/>
    </contour>
  </outline>
</glyph>
<glyph name="Idieresis" format="1">
  <advance width="302"/>
  <unicode hex="00CF"/>
  <outline>
    <contour>
      <point x="151" y="722" type="curve"/>
      <point x="109" y="722"/>
      <point x="82" y="722"/>
      <point x="39" y="722" type="curve"/>
      <point x="39" y="675"/>
      <point x="39" y="722"/>
      <point x="39" y="675" type="curve"/>
      <point x="166" y="675"/>
      <point x="24" y="675"/>
      <point x="151" y="675" type="curve"/>
      <point x="151" y="722"/>
      <point x="151" y="675"/>
    </contour>
    <contour>
      <point x="151" y="675" type="curve"/>
      <point x="279" y="675"/>
      <point x="136" y="675"/>
      <point x="264" y="675" type="curve"/>
      <point x="264" y="722"/>
      <point x="264" y="675"/>
      <point x="264" y="722" type="curve"/>
      <point x="221" y="722"/>
      <point x="193" y="722"/>
      <point x="151" y="722" type="curve"/>
      <point x="151" y="675"/>
      <point x="151" y="722"/>
    </contour>
    <contour>
      <point x="151" y="0" type="curve"/>
      <point x="193" y="0"/>
      <point x="221" y="0"/>
      <point x="264" y="0" type="curve"/>
      <point x="264" y="47"/>
      <point x="264" y="0"/>
      <point x="264" y="47" type="curve"/>
      <point x="136" y="47"/>
      <point x="279" y="47"/>
      <point x="151" y="47" type="curve"/>
      <point x="151" y="0"/>
      <point x="151" y="47"/>
    </contour>
    <contour>
      <point x="151" y="47" type="curve"/>
      <point x="24" y="47"/>
      <point x="166" y="47"/>
      <point x="39" y="47" type="curve"/>
      <point x="39" y="0"/>
      <point x="39" y="47"/>
      <point x="39" y="0" type="curve"/>
      <point x="82" y="0"/>
      <point x="109" y="0"/>
      <point x="151" y="0" type="curve"/>
      <point x="151" y="47"/>
      <point x="151" y="0"/>
    </contour>
    <contour>
      <point x="179" y="0" type="curve"/>
      <point x="179" y="241"/>
      <point x="179" y="481"/>
      <point x="179" y="722" type="curve"/>
      <point x="122" y="722"/>
      <point x="179" y="722"/>
      <point x="122" y="722" type="curve"/>
      <point x="122" y="481"/>
      <point x="122" y="241"/>
      <point x="122" y="0" type="curve"/>
      <point x="179" y="0"/>
      <point x="122" y="0"/>
    </contour>
    <contour>
      <point x="132" y="840" type="curve"/>
      <point x="132" y="861"/>
      <point x="118" y="872"/>
      <point x="98" y="872" type="curve"/>
      <point x="78" y="872"/>
      <point x="67" y="860"/>
      <point x="67" y="840" type="curve"/>
      <point x="134" y="840"/>
      <point x="64" y="840"/>
      <point x="132" y="840" type="curve"/>
      <point x="132" y="818"/>
      <point x="118" y="808"/>
      <point x="99" y="808" type="curve"/>
      <point x="78" y="808"/>
      <point x="67" y="819"/>
      <point x="67" y="840" type="curve"/>
      <point x="134" y="840"/>
      <point x="64" y="840"/>
    </contour>
    <contour>
      <point x="238" y="840" type="curve"/>
      <point x="238" y="861"/>
      <point x="225" y="872"/>
      <point x="205" y="872" type="curve"/>
      <point x="186" y="872"/>
      <point x="173" y="860"/>
      <point x="173" y="840" type="curve"/>
      <point x="241" y="840"/>
      <point x="171" y="840"/>
      <point x="238" y="840" type="curve"/>
      <point x="238" y="818"/>
      <point x="226" y="808"/>
      <point x="205" y="808" type="curve"/>
      <point x="185" y="808"/>
      <point x="173" y="819"/>
      <point x="173" y="840" type="curve"/>
      <point x="241" y="840"/>
      <point x="171" y="840"/>
    </contour>
  </outline>
</glyph>
<glyph name="Ntilde" format="1">
  <advance width="622"/>
  <unicode hex="00D1"/>
  <outline>
    <contour>
      <point x="151" y="722" type="curve"/>
      <point x="109" y="722"/>
      <point x="82" y="722"/>
      <point x="40" y="722" type="curve"/>
      <point x="40" y="675"/>
      <point x="40" y="722"/>
      <point x="40" y="675" type="curve"/>
      <point x="166" y="675"/>
      <point x="25" y="675"/>
      <point x="151" y="675" type="curve"/>
      <point x="151" y="722"/>
      <point x="151" y="675"/>
    </contour>
    <contour>
      <point x="486" y="675" type="curve"/>
      <point x="612" y="675"/>
      <point x="471" y="675"/>
      <point x="596" y="675" type="curve"/>
      <point x="596" y="722"/>
      <point x="596" y="675"/>
      <point x="596" y="722" type="curve"/>
      <point x="554" y="722"/>
      <point x="528" y="722"/>
      <point x="486" y="722" type="curve"/>
      <point x="486" y="675"/>
      <point x="486" y="722"/>
    </contour>
    <contour>
      <point x="485" y="722" type="curve"/>
      <point x="444" y="722"/>
      <point x="418" y="722"/>
      <point x="377" y="722" type="curve"/>
      <point x="377" y="675"/>
      <point x="377" y="722"/>
      <point x="377" y="675" type="curve"/>
      <point x="500" y="675"/>
      <point x="361" y="675"/>
      <point x="485" y="675" type="curve"/>
      <point x="485" y="722"/>
      <point x="485" y="675"/>
    </contour>
    <contour>
      <point x="150" y="47" type="curve"/>
      <point x="24" y="47"/>
      <point x="165" y="47"/>
      <point x="39" y="47" type="curve"/>
      <point x="39" y="0"/>
      <point x="39" y="47"/>
      <point x="39" y="0" type="curve"/>
      <point x="81" y="0"/>
      <point x="108" y="0"/>
      <point x="150" y="0" type="curve"/>
      <point x="150" y="47"/>
      <point x="150" y="0"/>
    </contour>
    <contour>
      <point x="150" y="0" type="curve"/>
      <point x="190" y="0"/>
      <point x="134" y="0"/>
      <point x="258" y="0" type="curve"/>
      <point x="258" y="47"/>
      <point x="258" y="0"/>
      <point x="258" y="47" type="curve"/>
      <point x="134" y="47"/>
      <point x="273" y="47"/>
      <point x="150" y="47" type="curve"/>
      <point x="150" y="0"/>
      <point x="150" y="47"/>
    </contour>
    <contour>
      <point x="514" y="0" type="curve"/>
      <point x="402" y="241"/>
      <point x="291" y="481"/>
      <point x="181" y="722" type="curve"/>
      <point x="120" y="722"/>
      <point x="181" y="722"/>
      <point x="121" y="722" type="curve"/>
      <point x="232" y="481"/>
      <point x="343" y="241"/>
      <point x="454" y="0" type="curve"/>
      <point x="515" y="0"/>
      <point x="453" y="0"/>
    </contour>
    <contour>
      <point x="456" y="722" type="curve"/>
      <point x="456" y="481"/>
      <point x="456" y="241"/>
      <point x="456" y="0" type="curve"/>
      <point x="513" y="0"/>
      <point x="456" y="0"/>
      <point x="513" y="0" type="curve"/>
      <point x="513" y="241"/>
      <point x="513" y="481"/>
      <point x="513" y="722" type="curve"/>
      <point x="456" y="722"/>
      <point x="513" y="722"/>
    </contour>
    <contour>
      <point x="178" y="0" type="curve"/>
      <point x="178" y="241"/>
      <point x="178" y="481"/>
      <point x="178" y="722" type="curve"/>
      <point x="121" y="722"/>
      <point x="178" y="722"/>
      <point x="121" y="722" type="curve"/>
      <point x="121" y="481"/>
      <point x="121" y="241"/>
      <point x="121" y="0" type="curve"/>
      <point x="178" y="0"/>
      <point x="121" y="0"/>
    </contour>
    <contour>
      <point x="420" y="956" type="curve"/>
      <point x="408" y="911"/>
      <point x="404" y="872"/>
      <point x="379" y="872" type="curve"/>
      <point x="353" y="872"/>
      <point x="343" y="890"/>
      <point x="329" y="912" type="curve"/>
      <point x="312" y="939"/>
      <point x="300" y="959"/>
      <point x="270" y="959" type="curve"/>
      <point x="212" y="959"/>
      <point x="200" y="897"/>
      <point x="190" y="836" type="curve"/>
      <point x="234" y="814"/>
      <point x="190" y="836"/>
      <point x="234" y="814" type="curve"/>
      <point x="243" y="863"/>
      <point x="248" y="900"/>
      <point x="281" y="900" type="curve"/>
      <point x="304" y="900"/>
      <point x="310" y="881"/>
      <point x="321" y="862" type="curve"/>
      <point x="341" y="833"/>
      <point x="356" y="812"/>
      <point x="389" y="812" type="curve"/>
      <point x="447" y="812"/>
      <point x="452" y="874"/>
      <point x="466" y="936" type="curve"/>
      <point x="420" y="956"/>
      <point x="466" y="936"/>
    </contour>
  </outline>
</glyph>
<glyph name="Ograve" format="1">
  <advance width="538"/>
  <unicode hex="00D2"/>
  <outline>
    <contour>
      <point x="119" y="360" type="curve"/>
      <point x="119" y="525"/>
      <point x="129" y="678"/>
      <point x="267" y="678" type="curve"/>
      <point x="403" y="678"/>
      <point x="420" y="527"/>
      <point x="420" y="363" type="curve"/>
      <point x="420" y="200"/>
      <point x="409" y="44"/>
      <point x="270" y="44" type="curve"/>
      <point x="133" y="44"/>
      <point x="119" y="195"/>
      <point x="119" y="360" type="curve"/>
      <point x="61" y="360"/>
      <point x="119" y="360"/>
      <point x="61" y="360" type="curve"/>
      <point x="61" y="164"/>
      <point x="101" y="-5"/>
      <point x="268" y="-5" type="curve"/>
      <point x="437" y="-5"/>
      <point x="477" y="166"/>
      <point x="477" y="363" type="curve"/>
      <point x="477" y="558"/>
      <point x="438" y="727"/>
      <point x="270" y="727" type="curve"/>
      <point x="101" y="727"/>
      <point x="61" y="556"/>
      <point x="61" y="360" type="curve"/>
      <point x="119" y="360"/>
      <point x="61" y="360"/>
    </contour>
    <contour>
      <point x="297" y="813" type="line"/>
      <point x="241" y="979" type="line"/>
      <point x="172" y="979" type="line"/>
      <point x="243" y="813" type="line"/>
    </contour>
  </outline>
</glyph>
<glyph name="Ocircumflex" format="1">
  <advance width="538"/>
  <unicode hex="00D4"/>
  <outline>
    <contour>
      <point x="119" y="360" type="curve"/>
      <point x="119" y="525"/>
      <point x="129" y="678"/>
      <point x="267" y="678" type="curve"/>
      <point x="403" y="678"/>
      <point x="420" y="527"/>
      <point x="420" y="363" type="curve"/>
      <point x="420" y="200"/>
      <point x="409" y="44"/>
      <point x="270" y="44" type="curve"/>
      <point x="133" y="44"/>
      <point x="119" y="195"/>
      <point x="119" y="360" type="curve"/>
      <point x="61" y="360"/>
      <point x="119" y="360"/>
      <point x="61" y="360" type="curve"/>
      <point x="61" y="164"/>
      <point x="101" y="-5"/>
      <point x="268" y="-5" type="curve"/>
      <point x="437" y="-5"/>
      <point x="477" y="166"/>
      <point x="477" y="363" type="curve"/>
      <point x="477" y="558"/>
      <point x="438" y="727"/>
      <point x="270" y="727" type="curve"/>
      <point x="101" y="727"/>
      <point x="61" y="556"/>
      <point x="61" y="360" type="curve"/>
      <point x="119" y="360"/>
      <point x="61" y="360"/>
    </contour>
    <contour>
      <point x="221" y="812" type="line"/>
      <point x="292" y="978" type="line"/>
      <point x="222" y="978" type="line"/>
      <point x="166" y="812" type="line"/>
    </contour>
    <contour>
      <point x="369" y="812" type="line"/>
      <point x="315" y="978" type="line"/>
      <point x="245" y="978" type="line"/>
      <point x="316" y="812" type="line"/>
    </contour>
  </outline>
</glyph>
<glyph name="Otilde" format="1">
  <advance width="538"/>
  <unicode hex="00D5"/>
  <outline>
    <contour>
      <point x="119" y="360" type="curve"/>
      <point x="119" y="525"/>
      <point x="129" y="678"/>
      <point x="267" y="678" type="curve"/>
      <point x="403" y="678"/>
      <point x="420" y="527"/>
      <point x="420" y="363" type="curve"/>
      <point x="420" y="200"/>
      <point x="409" y="44"/>
      <point x="270" y="44" type="curve"/>
      <point x="133" y="44"/>
      <point x="119" y="195"/>
      <point x="119" y="360" type="curve"/>
      <point x="61" y="360"/>
      <point x="119" y="360"/>
      <point x="61" y="360" type="curve"/>
      <point x="61" y="164"/>
      <point x="101" y="-5"/>
      <point x="268" y="-5" type="curve"/>
      <point x="437" y="-5"/>
      <point x="477" y="166"/>
      <point x="477" y="363" type="curve"/>
      <point x="477" y="558"/>
      <point x="438" y="727"/>
      <point x="270" y="727" type="curve"/>
      <point x="101" y="727"/>
      <point x="61" y="556"/>
      <point x="61" y="360" type="curve"/>
      <point x="119" y="360"/>
      <point x="61" y="360"/>
    </contour>
    <contour>
      <point x="364" y="956" type="curve"/>
      <point x="353" y="911"/>
      <point x="348" y="872"/>
      <point x="324" y="872" type="curve"/>
      <point x="297" y="872"/>
      <point x="287" y="890"/>
      <point x="273" y="912" type="curve"/>
      <point x="255" y="939"/>
      <point x="244" y="959"/>
      <point x="214" y="959" type="curve"/>
      <point x="156" y="959"/>
      <point x="145" y="897"/>
      <point x="134" y="836" type="curve"/>
      <point x="178" y="814"/>
      <point x="134" y="836"/>
      <point x="178" y="814" type="curve"/>
      <point x="188" y="863"/>
      <point x="192" y="900"/>
      <point x="225" y="900" type="curve"/>
      <point x="248" y="900"/>
      <point x="255" y="881"/>
      <point x="266" y="862" type="curve"/>
      <point x="286" y="833"/>
      <point x="300" y="812"/>
      <point x="333" y="812" type="curve"/>
      <point x="391" y="812"/>
      <point x="397" y="874"/>
      <point x="410" y="936" type="curve"/>
      <point x="364" y="956"/>
      <point x="410" y="936"/>
    </contour>
  </outline>
</glyph>
<glyph name="multiply" format="1">
  <advance width="534"/>
  <unicode hex="00D7"/>
  <outline>
    <contour>
      <point x="103" y="108" type="line"/>
      <point x="467" y="477" type="line"/>
      <point x="432" y="512" type="line"/>
      <point x="69" y="143" type="line"/>
    </contour>
    <contour>
      <point x="466" y="142" type="line"/>
      <point x="103" y="510" type="line"/>
      <point x="69" y="475" type="line"/>
      <point x="431" y="107" type="line"/>
    </contour>
  </outline>
</glyph>
<glyph name="Uacute" format="1">
  <advance width="590"/>
  <unicode hex="00DA"/>
  <outline>
    <contour>
      <point x="451" y="675" type="curve"/>
      <point x="569" y="675"/>
      <point x="443" y="675"/>
      <point x="562" y="675" type="curve"/>
      <point x="562" y="722"/>
      <point x="562" y="675"/>
      <point x="562" y="722" type="curve"/>
      <point x="523" y="722"/>
      <point x="490" y="722"/>
      <point x="451" y="722" type="curve"/>
      <point x="451" y="675"/>
      <point x="451" y="722"/>
    </contour>
    <contour>
      <point x="451" y="722" type="curve"/>
      <point x="412" y="722"/>
      <point x="379" y="722"/>
      <point x="340" y="722" type="curve"/>
      <point x="340" y="675"/>
      <point x="340" y="722"/>
      <point x="340" y="675" type="curve"/>
      <point x="459" y="675"/>
      <point x="333" y="675"/>
      <point x="451" y="675" type="curve"/>
      <point x="451" y="722"/>
      <point x="451" y="675"/>
    </contour>
    <contour>
      <point x="140" y="722" type="curve"/>
      <point x="101" y="722"/>
      <point x="68" y="722"/>
      <point x="30" y="722" type="curve"/>
      <point x="30" y="675"/>
      <point x="30" y="722"/>
      <point x="30" y="675" type="curve"/>
      <point x="148" y="675"/>
      <point x="23" y="675"/>
      <point x="140" y="675" type="curve"/>
      <point x="140" y="722"/>
      <point x="140" y="675"/>
    </contour>
    <contour>
      <point x="140" y="675" type="curve"/>
      <point x="259" y="675"/>
      <point x="133" y="675"/>
      <point x="252" y="675" type="curve"/>
      <point x="252" y="722"/>
      <point x="252" y="675"/>
      <point x="252" y="722" type="curve"/>
      <point x="212" y="722"/>
      <point x="180" y="722"/>
      <point x="140" y="722" type="curve"/>
      <point x="140" y="675"/>
      <point x="140" y="722"/>
    </contour>
    <contour>
      <point x="112" y="708" type="curve"/>
      <point x="112" y="566"/>
      <point x="112" y="413"/>
      <point x="112" y="271" type="curve"/>
      <point x="112" y="108"/>
      <point x="150" y="-5"/>
      <point x="294" y="-5" type="curve"/>
      <point x="437" y="-5"/>
      <point x="478" y="107"/>
      <point x="478" y="269" type="curve"/>
      <point x="478" y="412"/>
      <point x="478" y="566"/>
      <point x="478" y="708" type="curve"/>
      <point x="425" y="708"/>
      <point x="479" y="708"/>
      <point x="425" y="708" type="curve"/>
      <point x="425" y="562"/>
      <point x="425" y="407"/>
      <point x="425" y="262" type="curve"/>
      <point x="425" y="139"/>
      <point x="399" y="46"/>
      <point x="299" y="46" type="curve"/>
      <point x="184" y="46"/>
      <point x="165" y="147"/>
      <point x="165" y="280" type="curve"/>
      <point x="165" y="420"/>
      <point x="165" y="570"/>
      <point x="165" y="708" type="curve"/>
      <point x="112" y="708"/>
      <point x="165" y="708"/>
    </contour>
    <contour>
      <point x="323" y="812" type="line"/>
      <point x="394" y="978" type="line"/>
      <point x="324" y="978" type="line"/>
      <point x="270" y="812" type="line"/>
    </contour>
  </outline>
</glyph>
<glyph name="Udieresis" format="1">
  <advance width="590"/>
  <unicode hex="00DC"/>
  <outline>
    <contour>
      <point x="451" y="675" type="curve"/>
      <point x="569" y="675"/>
      <point x="443" y="675"/>
      <point x="562" y="675" type="curve"/>
      <point x="562" y="722"/>
      <point x="562" y="675"/>
      <point x="562" y="722" type="curve"/>
      <point x="523" y="722"/>
      <point x="490" y="722"/>
      <point x="451" y="722" type="curve"/>
      <point x="451" y="675"/>
      <point x="451" y="722"/>
    </contour>
    <contour>
      <point x="451" y="722" type="curve"/>
      <point x="412" y="722"/>
      <point x="379" y="722"/>
      <point x="340" y="722" type="curve"/>
      <point x="340" y="675"/>
      <point x="340" y="722"/>
      <point x="340" y="675" type="curve"/>
      <point x="459" y="675"/>
      <point x="333" y="675"/>
      <point x="451" y="675" type="curve"/>
      <point x="451" y="722"/>
      <point x="451" y="675"/>
    </contour>
    <contour>
      <point x="140" y="722" type="curve"/>
      <point x="101" y="722"/>
      <point x="68" y="722"/>
      <point x="30" y="722" type="curve"/>
      <point x="30" y="675"/>
      <point x="30" y="722"/>
      <point x="30" y="675" type="curve"/>
      <point x="148" y="675"/>
      <point x="23" y="675"/>
      <point x="140" y="675" type="curve"/>
      <point x="140" y="722"/>
      <point x="140" y="675"/>
    </contour>
    <contour>
      <point x="140" y="675" type="curve"/>
      <point x="259" y="675"/>
      <point x="133" y="675"/>
      <point x="252" y="675" type="curve"/>
      <point x="252" y="722"/>
      <point x="252" y="675"/>
      <point x="252" y="722" type="curve"/>
      <point x="212" y="722"/>
      <point x="180" y="722"/>
      <point x="140" y="722" type="curve"/>
      <point x="140" y="675"/>
      <point x="140" y="722"/>
    </contour>
    <contour>
      <point x="112" y="708" type="curve"/>
      <point x="112" y="566"/>
      <point x="112" y="413"/>
      <point x="112" y="271" type="curve"/>
      <point x="112" y="108"/>
      <point x="150" y="-5"/>
      <point x="294" y="-5" type="curve"/>
      <point x="437" y="-5"/>
      <point x="478" y="107"/>
      <point x="478" y="269" type="curve"/>
      <point x="478" y="412"/>
      <point x="478" y="566"/>
      <point x="478" y="708" type="curve"/>
      <point x="425" y="708"/>
      <point x="479" y="708"/>
      <point x="425" y="708" type="curve"/>
      <point x="425" y="562"/>
      <point x="425" y="407"/>
      <point x="425" y="262" type="curve"/>
      <point x="425" y="139"/>
      <point x="399" y="46"/>
      <point x="299" y="46" type="curve"/>
      <point x="184" y="46"/>
      <point x="165" y="147"/>
      <point x="165" y="280" type="curve"/>
      <point x="165" y="420"/>
      <point x="165" y="570"/>
      <point x="165" y="708" type="curve"/>
      <point x="112" y="708"/>
      <point x="165" y="708"/>
    </contour>
    <contour>
      <point x="277" y="840" type="curve"/>
      <point x="277" y="861"/>
      <point x="263" y="872"/>
      <point x="243" y="872" type="curve"/>
      <point x="224" y="872"/>
      <point x="211" y="860"/>
      <point x="211" y="840" type="curve"/>
      <point x="280" y="840"/>
      <point x="209" y="840"/>
      <point x="277" y="840" type="curve"/>
      <point x="277" y="818"/>
      <point x="263" y="808"/>
      <point x="243" y="808" type="curve"/>
      <point x="223" y="808"/>
      <point x="211" y="819"/>
      <point x="211" y="840" type="curve"/>
      <point x="280" y="840"/>
      <point x="209" y="840"/>
    </contour>
    <contour>
      <point x="383" y="840" type="curve"/>
      <point x="383" y="861"/>
      <point x="369" y="872"/>
      <point x="351" y="872" type="curve"/>
      <point x="331" y="872"/>
      <point x="319" y="860"/>
      <point x="319" y="840" type="curve"/>
      <point x="386" y="840"/>
      <point x="316" y="840"/>
      <point x="383" y="840" type="curve"/>
      <point x="383" y="818"/>
      <point x="370" y="808"/>
      <point x="351" y="808" type="curve"/>
      <point x="331" y="808"/>
      <point x="319" y="819"/>
      <point x="319" y="840" type="curve"/>
      <point x="386" y="840"/>
      <point x="316" y="840"/>
    </contour>
  </outline>
</glyph>
<glyph name="Thorn" format="1">
  <advance width="449"/>
  <unicode hex="00DE"/>
  <outline>
    <contour>
      <point x="149" y="722" type="curve"/>
      <point x="115" y="722"/>
      <point x="81" y="722"/>
      <point x="46" y="722" type="curve"/>
      <point x="46" y="675"/>
      <point x="46" y="722"/>
      <point x="46" y="675" type="curve"/>
      <point x="149" y="675"/>
      <point x="46" y="675"/>
      <point x="149" y="675" type="curve"/>
      <point x="149" y="722"/>
      <point x="149" y="675"/>
    </contour>
    <contour>
      <point x="149" y="47" type="curve"/>
      <point x="46" y="47"/>
      <point x="149" y="47"/>
      <point x="46" y="47" type="curve"/>
      <point x="46" y="0"/>
      <point x="46" y="47"/>
      <point x="46" y="0" type="curve"/>
      <point x="81" y="0"/>
      <point x="115" y="0"/>
      <point x="149" y="0" type="curve"/>
      <point x="149" y="47"/>
      <point x="149" y="0"/>
    </contour>
    <contour>
      <point x="149" y="0" type="curve"/>
      <point x="183" y="0"/>
      <point x="149" y="0"/>
      <point x="251" y="0" type="curve"/>
      <point x="251" y="47"/>
      <point x="251" y="0"/>
      <point x="251" y="47" type="curve"/>
      <point x="149" y="47"/>
      <point x="251" y="47"/>
      <point x="149" y="47" type="curve"/>
      <point x="149" y="0"/>
      <point x="149" y="47"/>
    </contour>
    <contour>
      <point x="141" y="217" type="curve"/>
      <point x="173" y="191"/>
      <point x="209" y="172"/>
      <point x="253" y="172" type="curve"/>
      <point x="357" y="174"/>
      <point x="403" y="263"/>
      <point x="403" y="387" type="curve"/>
      <point x="403" y="508"/>
      <point x="349" y="608"/>
      <point x="234" y="608" type="curve"/>
      <point x="206" y="608"/>
      <point x="179" y="608"/>
      <point x="152" y="608" type="curve"/>
      <point x="152" y="561"/>
      <point x="152" y="608"/>
      <point x="152" y="561" type="curve"/>
      <point x="176" y="561"/>
      <point x="201" y="561"/>
      <point x="226" y="561" type="curve"/>
      <point x="313" y="561"/>
      <point x="346" y="478"/>
      <point x="346" y="385" type="curve"/>
      <point x="346" y="296"/>
      <point x="324" y="218"/>
      <point x="248" y="218" type="curve"/>
      <point x="211" y="218"/>
      <point x="188" y="233"/>
      <point x="159" y="258" type="curve"/>
      <point x="141" y="219"/>
      <point x="159" y="257"/>
    </contour>
    <contour>
      <point x="177" y="0" type="curve"/>
      <point x="177" y="241"/>
      <point x="177" y="481"/>
      <point x="177" y="722" type="curve"/>
      <point x="120" y="722"/>
      <point x="177" y="722"/>
      <point x="120" y="722" type="curve"/>
      <point x="120" y="481"/>
      <point x="120" y="241"/>
      <point x="120" y="0" type="curve"/>
      <point x="177" y="0"/>
      <point x="120" y="0"/>
    </contour>
    <contour>
      <point x="149" y="675" type="curve"/>
      <point x="183" y="675"/>
      <point x="149" y="675"/>
      <point x="251" y="675" type="curve"/>
      <point x="251" y="722"/>
      <point x="251" y="675"/>
      <point x="251" y="722" type="curve"/>
      <point x="149" y="722"/>
      <point x="251" y="722"/>
      <point x="149" y="722" type="curve"/>
      <point x="149" y="675"/>
      <point x="149" y="722"/>
    </contour>
  </outline>
</glyph>
